<svg version="1.1" viewBox="0.0 0.0 705.6850393700787 209.86089238845145" fill="none" stroke="none" stroke-linecap="square" stroke-miterlimit="10" xmlns:xlink="http://www.w3.org/1999/xlink" xmlns="http://www.w3.org/2000/svg"><clipPath id="p.0"><path d="m0 0l705.68506 0l0 209.86089l-705.68506 0l0 -209.86089z" clip-rule="nonzero"/></clipPath><g clip-path="url(#p.0)"><path fill="#000000" fill-opacity="0.0" d="m0 0l705.68506 0l0 209.86089l-705.68506 0z" fill-rule="evenodd"/><path fill="#ffffff" d="m-1.064374E-5 128.99738l10.316162 59.964508l28.698685 0c3.3655586 -15.926331 5.5056114 -26.395737 6.420166 -31.408218c2.0120163 11.728699 4.334984 22.198105 6.968895 31.408218l28.863308 0l10.261284 -59.964508l-22.443138 0c-2.999733 13.876907 -5.1397896 28.062454 -6.420162 42.556656l-2.52417 -22.778366c-1.3535385 -11.432404 -2.1949272 -18.025162 -2.524166 -19.77829l-24.034462 0c-3.4021397 16.963394 -5.523903 30.66745 -6.3652916 41.112167l-2.414421 -20.1857l-2.3595486 -20.926468z" fill-rule="evenodd"/><path fill="#ffffff" d="m120.39179 147.62749c1.2437973 0 2.0668945 0.3703766 2.4692993 1.111145c0.4024048 0.7407532 0.60359955 2.3827667 0.60359955 4.9260406l0 3.5926971l-6.4750366 0l0 -3.5926971c0 -2.765503 0.18291473 -4.461014 0.5487366 -5.086548c0.36582184 -0.63375854 1.3169556 -0.9506378 2.8534012 -0.9506378zm-1.0425873 -8.703934c-5.084915 0 -9.584518 0.66256714 -13.49881 1.9877014c-3.9142838 1.3169098 -6.7311096 3.2182007 -8.45047 5.7038574c-1.7193604 2.4774323 -2.5790405 5.8643494 -2.5790405 10.160751l0 14.33371c0 3.654419 0.3841095 6.4404907 1.1523361 8.358246c0.7682266 1.9095001 2.1461487 3.6626434 4.1337814 5.259384c1.9998169 1.5885162 4.792259 2.8395844 8.377312 3.753189c3.5850449 0.91360474 7.7188263 1.3704071 12.401337 1.3704071c4.828842 0 8.840683 -0.46092224 12.035522 -1.3827515c3.2070312 -0.93006897 5.8531494 -2.321045 7.938324 -4.1729584c2.0851898 -1.8518982 3.4082336 -3.592682 3.969162 -5.222351c0.5731201 -1.6296692 0.8596802 -3.9630585 0.8596802 -7.000183l0 -3.629715l-21.016434 0l0 6.4816437c0 2.4445038 -0.2865677 4.094757 -0.8596802 4.9507446c-0.560936 0.84776306 -1.6827774 1.271637 -3.3655548 1.271637c-1.3535385 0 -2.268097 -0.32099915 -2.74366 -0.9629822c-0.47557068 -0.6419983 -0.713356 -2.0741272 -0.713356 -4.296417l0 -10.629898l28.698685 0l0 -6.518692c0 -4.7655487 -0.81700134 -8.461121 -2.451004 -11.0867c-1.6218109 -2.6338043 -4.4569244 -4.74498 -8.505341 -6.333496c-4.0362396 -1.596756 -9.163826 -2.3951263 -15.38279 -2.3951263z" fill-rule="evenodd"/><path fill="#ffffff" d="m178.33789 147.62749c1.3901215 0 2.3229675 0.3909607 2.7985382 1.1728668c0.47557068 0.77368164 0.7133484 2.4321594 0.7133484 4.9754333l0 20.704239c0 2.9136658 -0.21339417 4.7532196 -0.6401825 5.5186615c-0.41459656 0.76545715 -1.3169556 1.1481781 -2.707077 1.1481781c-1.3535461 0 -2.2620087 -0.3703766 -2.7253723 -1.111145c-0.45118713 -0.7407532 -0.6767731 -2.4321594 -0.6767731 -5.0742035l0 -21.18573c0 -2.7408142 0.2012024 -4.4486694 0.6036072 -5.123581c0.4024048 -0.68315125 1.2803802 -1.0247192 2.6339111 -1.0247192zm-25.40628 -18.630112l0 59.964508l20.742065 0l1.4266968 -3.7037964c1.8656921 1.530899 3.9203796 2.6790771 6.164093 3.4445343c2.25589 0.7654419 4.6825104 1.1481781 7.279846 1.1481781c3.6216278 0 6.749405 -0.64611816 9.383316 -1.938324c2.6339111 -1.3004456 4.3045044 -2.8313446 5.0117493 -4.5927124c0.7194519 -1.7695923 1.0791779 -4.456909 1.0791779 -8.061935l0 -22.148727c0 -3.629715 -0.12193298 -6.0001526 -0.3658142 -7.1112823c-0.23168945 -1.111145 -0.93284607 -2.2469788 -2.103485 -3.4075012c-1.1706238 -1.1605225 -2.8716888 -2.0617828 -5.103195 -2.7037659c-2.2315216 -0.6419983 -4.8654327 -0.96299744 -7.9017487 -0.96299744c-2.6339111 0 -5.078827 0.3539276 -7.334717 1.0617523c-2.2437134 0.6996155 -4.2801056 1.7654877 -6.1092224 3.1976166l0 -14.185547z" fill-rule="evenodd"/><path fill="#ffffff" d="m254.88602 139.2569c2.52417 0 4.2435303 0.18107605 5.158081 0.54322815c0.9145508 0.35391235 1.4998779 0.91360474 1.7559509 1.6790466c0.256073 0.76545715 0.38409424 2.5062408 0.38409424 5.2223663l0 23.29689c0 4.000107 -0.38409424 6.4528503 -1.1523438 7.3582153c-0.768219 0.8971405 -2.816803 1.3457184 -6.1457825 1.3457184l0 -39.445465zm-23.101624 -10.2595215l0 59.964508l29.137665 0c5.523926 0 9.657684 -0.2016449 12.401367 -0.60494995c2.7436523 -0.4115448 5.0483093 -1.1276093 6.9140015 -2.1482086c1.8656921 -1.0288391 3.1704712 -2.4486237 3.9143066 -4.259369c0.75601196 -1.8189697 1.1340332 -5.4198914 1.1340332 -10.80275l0 -21.000534c0 -5.6791687 -0.256073 -9.48584 -0.768219 -11.420044c-0.512146 -1.9424438 -1.7925415 -3.7038116 -3.8411255 -5.284088c-2.0486145 -1.5802917 -5.0422363 -2.7161255 -8.9809265 -3.4075012c-3.9264832 -0.69137573 -11.468475 -1.0370636 -22.626038 -1.0370636z" fill-rule="evenodd"/><path fill="#ffffff" d="m318.15482 147.62749c1.2438049 0 2.0668945 0.3703766 2.4692993 1.111145c0.4024048 0.7407532 0.6036072 2.3827667 0.6036072 4.9260406l0 3.5926971l-6.4750366 0l0 -3.5926971c0 -2.765503 0.18289185 -4.461014 0.5487366 -5.086548c0.3658142 -0.63375854 1.3169556 -0.9506378 2.8533936 -0.9506378zm-1.0426025 -8.703934c-5.0849 0 -9.584503 0.66256714 -13.49881 1.9877014c-3.9142761 1.3169098 -6.7311096 3.2182007 -8.45047 5.7038574c-1.7193604 2.4774323 -2.5790405 5.8643494 -2.5790405 10.160751l0 14.33371c0 3.654419 0.38412476 6.4404907 1.1523438 8.358246c0.768219 1.9095001 2.1461487 3.6626434 4.133789 5.259384c1.9998169 1.5885162 4.792267 2.8395844 8.377319 3.753189c3.585022 0.91360474 7.718811 1.3704071 12.401337 1.3704071c4.828827 0 8.840668 -0.46092224 12.035522 -1.3827515c3.2070312 -0.93006897 5.8531494 -2.321045 7.938324 -4.1729584c2.0851746 -1.8518982 3.4082336 -3.592682 3.9691467 -5.222351c0.5731201 -1.6296692 0.8596802 -3.9630585 0.8596802 -7.000183l0 -3.629715l-21.016418 0l0 6.4816437c0 2.4445038 -0.28656006 4.094757 -0.8596802 4.9507446c-0.5609436 0.84776306 -1.6828003 1.271637 -3.36557 1.271637c-1.3535461 0 -2.268097 -0.32099915 -2.7436523 -0.9629822c-0.47558594 -0.6419983 -0.7133484 -2.0741272 -0.7133484 -4.296417l0 -10.629898l28.69867 0l0 -6.518692c0 -4.7655487 -0.8169861 -8.461121 -2.4509888 -11.0867c-1.6218262 -2.6338043 -4.4569397 -4.74498 -8.505341 -6.333496c-4.036255 -1.596756 -9.163849 -2.3951263 -15.3828125 -2.3951263z" fill-rule="evenodd"/><path fill="#ffffff" d="m346.08527 139.81247l11.139282 49.149414l28.918152 0l10.371063 -49.149414l-19.809235 0c-0.8048096 5.3581696 -1.5364685 10.889175 -2.1949463 16.593018c-1.1340332 10.222488 -1.9388428 16.64241 -2.4143982 19.259766l-6.2006836 -35.852783z" fill-rule="evenodd"/><path fill="#ffffff" d="m424.71857 147.62749c1.2438049 0 2.0668945 0.3703766 2.4692993 1.111145c0.4024048 0.7407532 0.6036072 2.3827667 0.6036072 4.9260406l0 3.5926971l-6.4750366 0l0 -3.5926971c0 -2.765503 0.18292236 -4.461014 0.5487366 -5.086548c0.3658142 -0.63375854 1.3169556 -0.9506378 2.8533936 -0.9506378zm-1.042572 -8.703934c-5.0849304 0 -9.584534 0.66256714 -13.49881 1.9877014c-3.9143066 1.3169098 -6.7311096 3.2182007 -8.45047 5.7038574c-1.7193604 2.4774323 -2.5790405 5.8643494 -2.5790405 10.160751l0 14.33371c0 3.654419 0.38409424 6.4404907 1.1523132 8.358246c0.7682495 1.9095001 2.1461487 3.6626434 4.133789 5.259384c1.9998169 1.5885162 4.792267 2.8395844 8.377319 3.753189c3.5850525 0.91360474 7.718811 1.3704071 12.401337 1.3704071c4.8288574 0 8.840698 -0.46092224 12.035522 -1.3827515c3.2070312 -0.93006897 5.8531494 -2.321045 7.938324 -4.1729584c2.0851746 -1.8518982 3.4082336 -3.592682 3.9691772 -5.222351c0.5731201 -1.6296692 0.8596802 -3.9630585 0.8596802 -7.000183l0 -3.629715l-21.016449 0l0 6.4816437c0 2.4445038 -0.28656006 4.094757 -0.8596802 4.9507446c-0.5609131 0.84776306 -1.6827698 1.271637 -3.36557 1.271637c-1.3535156 0 -2.2680664 -0.32099915 -2.7436523 -0.9629822c-0.47555542 -0.6419983 -0.7133484 -2.0741272 -0.7133484 -4.296417l0 -10.629898l28.6987 0l0 -6.518692c0 -4.7655487 -0.8170166 -8.461121 -2.4510193 -11.0867c-1.6217957 -2.6338043 -4.456909 -4.74498 -8.505341 -6.333496c-4.0362244 -1.596756 -9.163818 -2.3951263 -15.382782 -2.3951263z" fill-rule="evenodd"/><path fill="#ffffff" d="m457.2584 128.99738l0 59.964508l22.82724 0l0 -59.964508z" fill-rule="evenodd"/><path fill="#ffffff" d="m512.8449 147.62749c1.3169556 0 2.1766357 0.32922363 2.5790405 0.9876709c0.4024048 0.6502228 0.6036377 2.2346344 0.6036377 4.7532196l0 22.667252c0 2.1235046 -0.2133789 3.506256 -0.64019775 4.1482544c-0.41461182 0.64198303 -1.2803955 0.9629822 -2.597351 0.9629822c-1.2803345 0 -2.1400146 -0.34980774 -2.57901 -1.049408c-0.43899536 -0.70783997 -0.6584778 -2.2222748 -0.6584778 -4.5433197l0 -22.18576c0 -2.5185852 0.21948242 -4.102997 0.6584778 -4.7532196c0.43899536 -0.65844727 1.3169556 -0.9876709 2.6338806 -0.9876709zm-0.7681885 -8.703934c-5.9263 0 -10.791748 0.7778015 -14.596283 2.3333893c-3.804535 1.555603 -6.438446 3.6173859 -7.9017334 6.1853485c-1.4632874 2.567978 -2.1949463 6.135971 -2.1949463 10.7039795l0 12.592926c0 4.172943 0.4024048 7.3047028 1.2072144 9.395294c0.8048096 2.082367 2.1461792 3.8601837 4.024048 5.333481c1.8900757 1.4650574 4.536194 2.5638428 7.938324 3.2963715c3.4021301 0.7243042 7.554199 1.0864563 12.456238 1.0864563c4.3898315 0 8.273621 -0.42388916 11.651367 -1.271637c3.3899536 -0.8560028 6.1641235 -2.1770172 8.322449 -3.9630737c2.1583252 -1.794281 3.5667725 -3.7202606 4.2252197 -5.7779236c0.6585083 -2.0659027 0.98773193 -5.308777 0.98773193 -9.728638l0 -12.0373535c0 -3.4815674 -0.3597412 -6.074234 -1.0791626 -7.7779846c-0.7072754 -1.7037354 -2.0303345 -3.3581085 -3.9691772 -4.963089c-1.9388428 -1.6049805 -4.694702 -2.905426 -8.267578 -3.9013367c-3.560608 -1.0041351 -7.8285522 -1.5062103 -12.803711 -1.5062103z" fill-rule="evenodd"/><path fill="#ffffff" d="m571.1203 147.62749c1.4998169 0 2.4144287 0.32099915 2.7436523 0.9629822c0.32922363 0.6419983 0.49383545 2.4815521 0.49383545 5.5186615l0 21.074615c0 2.6173553 -0.17681885 4.2676086 -0.53045654 4.9507446c-0.34143066 0.6749115 -1.2254639 1.0123749 -2.6521606 1.0123749c-1.4633179 0 -2.4144287 -0.3703766 -2.8534546 -1.111145c-0.43896484 -0.7407532 -0.65844727 -2.5926514 -0.65844727 -5.5556946l0 -20.370895c0 -2.839569 0.20727539 -4.6297455 0.6218872 -5.3704987c0.42681885 -0.74076843 1.3718262 -1.111145 2.835144 -1.111145zm10.864868 -8.703934c-2.8168335 0 -5.4141235 0.43211365 -7.791992 1.2963257c-2.3778076 0.8642273 -4.5544434 2.1728973 -6.529907 3.9260406l0.38409424 -4.3334503l-22.552856 0l0 56.149597l22.168762 0l0 -11.259552c1.9388428 1.7037506 4.0789185 2.987732 6.420166 3.8519592c2.3412476 0.86421204 4.883728 1.2963257 7.6273804 1.2963257c3.4387207 0 6.371399 -0.5596924 8.797974 -1.6790619c2.4388428 -1.127594 4.048462 -2.6338196 4.8288574 -4.518631c0.79260254 -1.8930511 1.1889038 -5.0742035 1.1889038 -9.543457l0 -20.704239c0 -3.9013367 -0.3109131 -6.6668396 -0.9328003 -8.296509c-0.62194824 -1.6296692 -2.1888428 -3.065918 -4.7008057 -4.3087463c-2.499817 -1.2510681 -5.469055 -1.8766022 -8.907776 -1.8766022z" fill-rule="evenodd"/><path fill="#ffffff" d="m628.7371 147.62749c1.2438354 0 2.0668945 0.3703766 2.4692993 1.111145c0.4024048 0.7407532 0.6036377 2.3827667 0.6036377 4.9260406l0 3.5926971l-6.4750366 0l0 -3.5926971c0 -2.765503 0.18292236 -4.461014 0.54870605 -5.086548c0.36584473 -0.63375854 1.3169556 -0.9506378 2.8533936 -0.9506378zm-1.0425415 -8.703934c-5.084961 0 -9.584534 0.66256714 -13.49884 1.9877014c-3.9143066 1.3169098 -6.731079 3.2182007 -8.450439 5.7038574c-1.7193604 2.4774323 -2.5790405 5.8643494 -2.5790405 10.160751l0 14.33371c0 3.654419 0.38409424 6.4404907 1.1522827 8.358246c0.7682495 1.9095001 2.1461792 3.6626434 4.133789 5.259384c1.9998169 1.5885162 4.7922974 2.8395844 8.377319 3.753189c3.585083 0.91360474 7.718811 1.3704071 12.401367 1.3704071c4.8287964 0 8.840637 -0.46092224 12.035522 -1.3827515c3.2070312 -0.93006897 5.8531494 -2.321045 7.9382935 -4.1729584c2.085205 -1.8518982 3.4082642 -3.592682 3.9691772 -5.222351c0.5731201 -1.6296692 0.8596802 -3.9630585 0.8596802 -7.000183l0 -3.629715l-21.016418 0l0 6.4816437c0 2.4445038 -0.28656006 4.094757 -0.8596802 4.9507446c-0.5609741 0.84776306 -1.6828003 1.271637 -3.3656006 1.271637c-1.3535156 0 -2.2680664 -0.32099915 -2.7436523 -0.9629822c-0.4755249 -0.6419983 -0.7133179 -2.0741272 -0.7133179 -4.296417l0 -10.629898l28.69867 0l0 -6.518692c0 -4.7655487 -0.8170166 -8.461121 -2.4509888 -11.0867c-1.6218262 -2.6338043 -4.456909 -4.74498 -8.505371 -6.333496c-4.036255 -1.596756 -9.163818 -2.3951263 -15.382751 -2.3951263z" fill-rule="evenodd"/><path fill="#ffffff" d="m696.5604 138.92355c-6.109192 0.2716217 -10.7734375 2.7161255 -13.992676 7.3335266l0.8779907 -6.4446106l-22.168762 0l0 49.149414l22.168762 0l0 -19.407913c0 -4.7655487 0.21948242 -7.806778 0.65844727 -9.123688c0.43902588 -1.3251343 1.6096191 -2.358078 3.5119019 -3.0988464c1.9022827 -0.7407532 4.883728 -1.1111298 8.944336 -1.1111298l0 -17.296753z" fill-rule="evenodd"/><path stroke="#b7b7b7" stroke-width="2.0" stroke-linejoin="round" stroke-linecap="butt" d="m-1.064374E-5 128.99738l10.316162 59.964508l28.698685 0c3.3655586 -15.926331 5.5056114 -26.395737 6.420166 -31.408218c2.0120163 11.728699 4.334984 22.198105 6.968895 31.408218l28.863308 0l10.261284 -59.964508l-22.443138 0c-2.999733 13.876907 -5.1397896 28.062454 -6.420162 42.556656l-2.52417 -22.778366c-1.3535385 -11.432404 -2.1949272 -18.025162 -2.524166 -19.77829l-24.034462 0c-3.4021397 16.963394 -5.523903 30.66745 -6.3652916 41.112167l-2.414421 -20.1857l-2.3595486 -20.926468z" fill-rule="evenodd"/><path stroke="#b7b7b7" stroke-width="2.0" stroke-linejoin="round" stroke-linecap="butt" d="m120.39179 147.62749c1.2437973 0 2.0668945 0.3703766 2.4692993 1.111145c0.4024048 0.7407532 0.60359955 2.3827667 0.60359955 4.9260406l0 3.5926971l-6.4750366 0l0 -3.5926971c0 -2.765503 0.18291473 -4.461014 0.5487366 -5.086548c0.36582184 -0.63375854 1.3169556 -0.9506378 2.8534012 -0.9506378zm-1.0425873 -8.703934c-5.084915 0 -9.584518 0.66256714 -13.49881 1.9877014c-3.9142838 1.3169098 -6.7311096 3.2182007 -8.45047 5.7038574c-1.7193604 2.4774323 -2.5790405 5.8643494 -2.5790405 10.160751l0 14.33371c0 3.654419 0.3841095 6.4404907 1.1523361 8.358246c0.7682266 1.9095001 2.1461487 3.6626434 4.1337814 5.259384c1.9998169 1.5885162 4.792259 2.8395844 8.377312 3.753189c3.5850449 0.91360474 7.7188263 1.3704071 12.401337 1.3704071c4.828842 0 8.840683 -0.46092224 12.035522 -1.3827515c3.2070312 -0.93006897 5.8531494 -2.321045 7.938324 -4.1729584c2.0851898 -1.8518982 3.4082336 -3.592682 3.969162 -5.222351c0.5731201 -1.6296692 0.8596802 -3.9630585 0.8596802 -7.000183l0 -3.629715l-21.016434 0l0 6.4816437c0 2.4445038 -0.2865677 4.094757 -0.8596802 4.9507446c-0.560936 0.84776306 -1.6827774 1.271637 -3.3655548 1.271637c-1.3535385 0 -2.268097 -0.32099915 -2.74366 -0.9629822c-0.47557068 -0.6419983 -0.713356 -2.0741272 -0.713356 -4.296417l0 -10.629898l28.698685 0l0 -6.518692c0 -4.7655487 -0.81700134 -8.461121 -2.451004 -11.0867c-1.6218109 -2.6338043 -4.4569244 -4.74498 -8.505341 -6.333496c-4.0362396 -1.596756 -9.163826 -2.3951263 -15.38279 -2.3951263z" fill-rule="evenodd"/><path stroke="#b7b7b7" stroke-width="2.0" stroke-linejoin="round" stroke-linecap="butt" d="m178.33789 147.62749c1.3901215 0 2.3229675 0.3909607 2.7985382 1.1728668c0.47557068 0.77368164 0.7133484 2.4321594 0.7133484 4.9754333l0 20.704239c0 2.9136658 -0.21339417 4.7532196 -0.6401825 5.5186615c-0.41459656 0.76545715 -1.3169556 1.1481781 -2.707077 1.1481781c-1.3535461 0 -2.2620087 -0.3703766 -2.7253723 -1.111145c-0.45118713 -0.7407532 -0.6767731 -2.4321594 -0.6767731 -5.0742035l0 -21.18573c0 -2.7408142 0.2012024 -4.4486694 0.6036072 -5.123581c0.4024048 -0.68315125 1.2803802 -1.0247192 2.6339111 -1.0247192zm-25.40628 -18.630112l0 59.964508l20.742065 0l1.4266968 -3.7037964c1.8656921 1.530899 3.9203796 2.6790771 6.164093 3.4445343c2.25589 0.7654419 4.6825104 1.1481781 7.279846 1.1481781c3.6216278 0 6.749405 -0.64611816 9.383316 -1.938324c2.6339111 -1.3004456 4.3045044 -2.8313446 5.0117493 -4.5927124c0.7194519 -1.7695923 1.0791779 -4.456909 1.0791779 -8.061935l0 -22.148727c0 -3.629715 -0.12193298 -6.0001526 -0.3658142 -7.1112823c-0.23168945 -1.111145 -0.93284607 -2.2469788 -2.103485 -3.4075012c-1.1706238 -1.1605225 -2.8716888 -2.0617828 -5.103195 -2.7037659c-2.2315216 -0.6419983 -4.8654327 -0.96299744 -7.9017487 -0.96299744c-2.6339111 0 -5.078827 0.3539276 -7.334717 1.0617523c-2.2437134 0.6996155 -4.2801056 1.7654877 -6.1092224 3.1976166l0 -14.185547z" fill-rule="evenodd"/><path stroke="#b7b7b7" stroke-width="2.0" stroke-linejoin="round" stroke-linecap="butt" d="m254.88602 139.2569c2.52417 0 4.2435303 0.18107605 5.158081 0.54322815c0.9145508 0.35391235 1.4998779 0.91360474 1.7559509 1.6790466c0.256073 0.76545715 0.38409424 2.5062408 0.38409424 5.2223663l0 23.29689c0 4.000107 -0.38409424 6.4528503 -1.1523438 7.3582153c-0.768219 0.8971405 -2.816803 1.3457184 -6.1457825 1.3457184l0 -39.445465zm-23.101624 -10.2595215l0 59.964508l29.137665 0c5.523926 0 9.657684 -0.2016449 12.401367 -0.60494995c2.7436523 -0.4115448 5.0483093 -1.1276093 6.9140015 -2.1482086c1.8656921 -1.0288391 3.1704712 -2.4486237 3.9143066 -4.259369c0.75601196 -1.8189697 1.1340332 -5.4198914 1.1340332 -10.80275l0 -21.000534c0 -5.6791687 -0.256073 -9.48584 -0.768219 -11.420044c-0.512146 -1.9424438 -1.7925415 -3.7038116 -3.8411255 -5.284088c-2.0486145 -1.5802917 -5.0422363 -2.7161255 -8.9809265 -3.4075012c-3.9264832 -0.69137573 -11.468475 -1.0370636 -22.626038 -1.0370636z" fill-rule="evenodd"/><path stroke="#b7b7b7" stroke-width="2.0" stroke-linejoin="round" stroke-linecap="butt" d="m318.15482 147.62749c1.2438049 0 2.0668945 0.3703766 2.4692993 1.111145c0.4024048 0.7407532 0.6036072 2.3827667 0.6036072 4.9260406l0 3.5926971l-6.4750366 0l0 -3.5926971c0 -2.765503 0.18289185 -4.461014 0.5487366 -5.086548c0.3658142 -0.63375854 1.3169556 -0.9506378 2.8533936 -0.9506378zm-1.0426025 -8.703934c-5.0849 0 -9.584503 0.66256714 -13.49881 1.9877014c-3.9142761 1.3169098 -6.7311096 3.2182007 -8.45047 5.7038574c-1.7193604 2.4774323 -2.5790405 5.8643494 -2.5790405 10.160751l0 14.33371c0 3.654419 0.38412476 6.4404907 1.1523438 8.358246c0.768219 1.9095001 2.1461487 3.6626434 4.133789 5.259384c1.9998169 1.5885162 4.792267 2.8395844 8.377319 3.753189c3.585022 0.91360474 7.718811 1.3704071 12.401337 1.3704071c4.828827 0 8.840668 -0.46092224 12.035522 -1.3827515c3.2070312 -0.93006897 5.8531494 -2.321045 7.938324 -4.1729584c2.0851746 -1.8518982 3.4082336 -3.592682 3.9691467 -5.222351c0.5731201 -1.6296692 0.8596802 -3.9630585 0.8596802 -7.000183l0 -3.629715l-21.016418 0l0 6.4816437c0 2.4445038 -0.28656006 4.094757 -0.8596802 4.9507446c-0.5609436 0.84776306 -1.6828003 1.271637 -3.36557 1.271637c-1.3535461 0 -2.268097 -0.32099915 -2.7436523 -0.9629822c-0.47558594 -0.6419983 -0.7133484 -2.0741272 -0.7133484 -4.296417l0 -10.629898l28.69867 0l0 -6.518692c0 -4.7655487 -0.8169861 -8.461121 -2.4509888 -11.0867c-1.6218262 -2.6338043 -4.4569397 -4.74498 -8.505341 -6.333496c-4.036255 -1.596756 -9.163849 -2.3951263 -15.3828125 -2.3951263z" fill-rule="evenodd"/><path stroke="#b7b7b7" stroke-width="2.0" stroke-linejoin="round" stroke-linecap="butt" d="m346.08527 139.81247l11.139282 49.149414l28.918152 0l10.371063 -49.149414l-19.809235 0c-0.8048096 5.3581696 -1.5364685 10.889175 -2.1949463 16.593018c-1.1340332 10.222488 -1.9388428 16.64241 -2.4143982 19.259766l-6.2006836 -35.852783z" fill-rule="evenodd"/><path stroke="#b7b7b7" stroke-width="2.0" stroke-linejoin="round" stroke-linecap="butt" d="m424.71857 147.62749c1.2438049 0 2.0668945 0.3703766 2.4692993 1.111145c0.4024048 0.7407532 0.6036072 2.3827667 0.6036072 4.9260406l0 3.5926971l-6.4750366 0l0 -3.5926971c0 -2.765503 0.18292236 -4.461014 0.5487366 -5.086548c0.3658142 -0.63375854 1.3169556 -0.9506378 2.8533936 -0.9506378zm-1.042572 -8.703934c-5.0849304 0 -9.584534 0.66256714 -13.49881 1.9877014c-3.9143066 1.3169098 -6.7311096 3.2182007 -8.45047 5.7038574c-1.7193604 2.4774323 -2.5790405 5.8643494 -2.5790405 10.160751l0 14.33371c0 3.654419 0.38409424 6.4404907 1.1523132 8.358246c0.7682495 1.9095001 2.1461487 3.6626434 4.133789 5.259384c1.9998169 1.5885162 4.792267 2.8395844 8.377319 3.753189c3.5850525 0.91360474 7.718811 1.3704071 12.401337 1.3704071c4.8288574 0 8.840698 -0.46092224 12.035522 -1.3827515c3.2070312 -0.93006897 5.8531494 -2.321045 7.938324 -4.1729584c2.0851746 -1.8518982 3.4082336 -3.592682 3.9691772 -5.222351c0.5731201 -1.6296692 0.8596802 -3.9630585 0.8596802 -7.000183l0 -3.629715l-21.016449 0l0 6.4816437c0 2.4445038 -0.28656006 4.094757 -0.8596802 4.9507446c-0.5609131 0.84776306 -1.6827698 1.271637 -3.36557 1.271637c-1.3535156 0 -2.2680664 -0.32099915 -2.7436523 -0.9629822c-0.47555542 -0.6419983 -0.7133484 -2.0741272 -0.7133484 -4.296417l0 -10.629898l28.6987 0l0 -6.518692c0 -4.7655487 -0.8170166 -8.461121 -2.4510193 -11.0867c-1.6217957 -2.6338043 -4.456909 -4.74498 -8.505341 -6.333496c-4.0362244 -1.596756 -9.163818 -2.3951263 -15.382782 -2.3951263z" fill-rule="evenodd"/><path stroke="#b7b7b7" stroke-width="2.0" stroke-linejoin="round" stroke-linecap="butt" d="m457.2584 128.99738l0 59.964508l22.82724 0l0 -59.964508z" fill-rule="evenodd"/><path stroke="#b7b7b7" stroke-width="2.0" stroke-linejoin="round" stroke-linecap="butt" d="m512.8449 147.62749c1.3169556 0 2.1766357 0.32922363 2.5790405 0.9876709c0.4024048 0.6502228 0.6036377 2.2346344 0.6036377 4.7532196l0 22.667252c0 2.1235046 -0.2133789 3.506256 -0.64019775 4.1482544c-0.41461182 0.64198303 -1.2803955 0.9629822 -2.597351 0.9629822c-1.2803345 0 -2.1400146 -0.34980774 -2.57901 -1.049408c-0.43899536 -0.70783997 -0.6584778 -2.2222748 -0.6584778 -4.5433197l0 -22.18576c0 -2.5185852 0.21948242 -4.102997 0.6584778 -4.7532196c0.43899536 -0.65844727 1.3169556 -0.9876709 2.6338806 -0.9876709zm-0.7681885 -8.703934c-5.9263 0 -10.791748 0.7778015 -14.596283 2.3333893c-3.804535 1.555603 -6.438446 3.6173859 -7.9017334 6.1853485c-1.4632874 2.567978 -2.1949463 6.135971 -2.1949463 10.7039795l0 12.592926c0 4.172943 0.4024048 7.3047028 1.2072144 9.395294c0.8048096 2.082367 2.1461792 3.8601837 4.024048 5.333481c1.8900757 1.4650574 4.536194 2.5638428 7.938324 3.2963715c3.4021301 0.7243042 7.554199 1.0864563 12.456238 1.0864563c4.3898315 0 8.273621 -0.42388916 11.651367 -1.271637c3.3899536 -0.8560028 6.1641235 -2.1770172 8.322449 -3.9630737c2.1583252 -1.794281 3.5667725 -3.7202606 4.2252197 -5.7779236c0.6585083 -2.0659027 0.98773193 -5.308777 0.98773193 -9.728638l0 -12.0373535c0 -3.4815674 -0.3597412 -6.074234 -1.0791626 -7.7779846c-0.7072754 -1.7037354 -2.0303345 -3.3581085 -3.9691772 -4.963089c-1.9388428 -1.6049805 -4.694702 -2.905426 -8.267578 -3.9013367c-3.560608 -1.0041351 -7.8285522 -1.5062103 -12.803711 -1.5062103z" fill-rule="evenodd"/><path stroke="#b7b7b7" stroke-width="2.0" stroke-linejoin="round" stroke-linecap="butt" d="m571.1203 147.62749c1.4998169 0 2.4144287 0.32099915 2.7436523 0.9629822c0.32922363 0.6419983 0.49383545 2.4815521 0.49383545 5.5186615l0 21.074615c0 2.6173553 -0.17681885 4.2676086 -0.53045654 4.9507446c-0.34143066 0.6749115 -1.2254639 1.0123749 -2.6521606 1.0123749c-1.4633179 0 -2.4144287 -0.3703766 -2.8534546 -1.111145c-0.43896484 -0.7407532 -0.65844727 -2.5926514 -0.65844727 -5.5556946l0 -20.370895c0 -2.839569 0.20727539 -4.6297455 0.6218872 -5.3704987c0.42681885 -0.74076843 1.3718262 -1.111145 2.835144 -1.111145zm10.864868 -8.703934c-2.8168335 0 -5.4141235 0.43211365 -7.791992 1.2963257c-2.3778076 0.8642273 -4.5544434 2.1728973 -6.529907 3.9260406l0.38409424 -4.3334503l-22.552856 0l0 56.149597l22.168762 0l0 -11.259552c1.9388428 1.7037506 4.0789185 2.987732 6.420166 3.8519592c2.3412476 0.86421204 4.883728 1.2963257 7.6273804 1.2963257c3.4387207 0 6.371399 -0.5596924 8.797974 -1.6790619c2.4388428 -1.127594 4.048462 -2.6338196 4.8288574 -4.518631c0.79260254 -1.8930511 1.1889038 -5.0742035 1.1889038 -9.543457l0 -20.704239c0 -3.9013367 -0.3109131 -6.6668396 -0.9328003 -8.296509c-0.62194824 -1.6296692 -2.1888428 -3.065918 -4.7008057 -4.3087463c-2.499817 -1.2510681 -5.469055 -1.8766022 -8.907776 -1.8766022z" fill-rule="evenodd"/><path stroke="#b7b7b7" stroke-width="2.0" stroke-linejoin="round" stroke-linecap="butt" d="m628.7371 147.62749c1.2438354 0 2.0668945 0.3703766 2.4692993 1.111145c0.4024048 0.7407532 0.6036377 2.3827667 0.6036377 4.9260406l0 3.5926971l-6.4750366 0l0 -3.5926971c0 -2.765503 0.18292236 -4.461014 0.54870605 -5.086548c0.36584473 -0.63375854 1.3169556 -0.9506378 2.8533936 -0.9506378zm-1.0425415 -8.703934c-5.084961 0 -9.584534 0.66256714 -13.49884 1.9877014c-3.9143066 1.3169098 -6.731079 3.2182007 -8.450439 5.7038574c-1.7193604 2.4774323 -2.5790405 5.8643494 -2.5790405 10.160751l0 14.33371c0 3.654419 0.38409424 6.4404907 1.1522827 8.358246c0.7682495 1.9095001 2.1461792 3.6626434 4.133789 5.259384c1.9998169 1.5885162 4.7922974 2.8395844 8.377319 3.753189c3.585083 0.91360474 7.718811 1.3704071 12.401367 1.3704071c4.8287964 0 8.840637 -0.46092224 12.035522 -1.3827515c3.2070312 -0.93006897 5.8531494 -2.321045 7.9382935 -4.1729584c2.085205 -1.8518982 3.4082642 -3.592682 3.9691772 -5.222351c0.5731201 -1.6296692 0.8596802 -3.9630585 0.8596802 -7.000183l0 -3.629715l-21.016418 0l0 6.4816437c0 2.4445038 -0.28656006 4.094757 -0.8596802 4.9507446c-0.5609741 0.84776306 -1.6828003 1.271637 -3.3656006 1.271637c-1.3535156 0 -2.2680664 -0.32099915 -2.7436523 -0.9629822c-0.4755249 -0.6419983 -0.7133179 -2.0741272 -0.7133179 -4.296417l0 -10.629898l28.69867 0l0 -6.518692c0 -4.7655487 -0.8170166 -8.461121 -2.4509888 -11.0867c-1.6218262 -2.6338043 -4.456909 -4.74498 -8.505371 -6.333496c-4.036255 -1.596756 -9.163818 -2.3951263 -15.382751 -2.3951263z" fill-rule="evenodd"/><path stroke="#b7b7b7" stroke-width="2.0" stroke-linejoin="round" stroke-linecap="butt" d="m696.5604 138.92355c-6.109192 0.2716217 -10.7734375 2.7161255 -13.992676 7.3335266l0.8779907 -6.4446106l-22.168762 0l0 49.149414l22.168762 0l0 -19.407913c0 -4.7655487 0.21948242 -7.806778 0.65844727 -9.123688c0.43902588 -1.3251343 1.6096191 -2.358078 3.5119019 -3.0988464c1.9022827 -0.7407532 4.883728 -1.1111298 8.944336 -1.1111298l0 -17.296753z" fill-rule="evenodd"/><path fill="#000000" fill-opacity="0.0" d="m0 120.69292l705.7008 4.0" fill-rule="evenodd"/><path stroke="#b7b7b7" stroke-width="8.0" stroke-linejoin="round" stroke-linecap="butt" d="m0 120.69292l705.7008 4.0" fill-rule="evenodd"/><path fill="#0093b7" d="m102.44096 10.712164c-2.431404 0 -4.491516 1.1352148 -6.1803284 3.4056416c-1.6888046 2.2547703 -2.5332108 4.9714527 -2.5332108 8.150053c0 3.1785965 0.8444061 5.8717957 2.5332108 8.07959c1.6888123 2.207796 3.7489243 3.3116932 6.1803284 3.3116932c2.4313965 0 4.5094757 -1.1038971 6.2342224 -3.3116932c1.7367249 -2.2077942 2.6050797 -4.9009933 2.6050797 -8.07959c0 -3.1786003 -0.8683548 -5.8952827 -2.6050797 -8.150053c-1.7247467 -2.2704268 -3.802826 -3.4056416 -6.2342224 -3.4056416zm196.48048 37.086266c1.8445129 0 2.7667542 1.9729233 2.7667542 5.91877c0 3.9458466 -0.75457764 7.7037964 -2.2637024 11.273846c-1.5091553 3.55439 -3.497406 6.4902954 -5.964752 8.8076935c-2.4673462 2.3017426 -5.060425 3.5465698 -7.779297 3.7344666c1.1019287 -7.7037964 2.9224854 -14.585545 5.46167 -20.645237c2.539215 -6.0596924 5.132324 -9.089539 7.7793274 -9.089539zm-56.947784 1.8789749c1.5450745 0 2.6829376 0.6028366 3.4135437 1.8085098c0.7425995 1.205677 1.1139069 2.4348373 1.1139069 3.6874886l-5.299988 32.600212c-0.67074585 3.9458466 -1.9104004 7.0539856 -3.718979 9.3244095c-1.7966156 2.2547684 -3.6111755 3.3821564 -5.4437256 3.3821564c-1.5450745 0 -2.856598 -0.67329407 -3.934555 -2.0198975c-1.0659943 -1.3466034 -1.5989838 -4.423424 -1.5989838 -9.230461c0 -4.822708 0.66474915 -10.38134 1.9942322 -16.675903c1.329483 -6.2945633 3.1680145 -11.680958 5.515579 -16.15918c2.3595428 -4.4782257 5.0125275 -6.7173347 7.958969 -6.7173347zm-202.11435 -44.29683c-5.4497147 0 -10.917398 1.902462 -16.403011 5.707386c-5.473648 3.7892666 -9.959163 8.690258 -13.456579 14.702976c-3.4973812 6.012718 -5.246089 12.001949 -5.246089 17.967697c0 8.752892 3.9345665 13.1293335 11.8037 13.1293335c0 -0.2818451 -0.2575245 -1.0960693 -0.7725401 -2.442669c-0.5150156 -1.3465958 -0.77254105 -3.8518944 -0.77254105 -7.515896c0 -8.173542 1.5271158 -15.023972 4.5813456 -20.551287c3.0542297 -5.527317 7.37805 -9.496651 12.971495 -11.908001l0 0l-28.027052 99.1394l8.821335 0l18.433176 -65.082985l-2.2098255 65.082985l15.127424 0l20.750797 -64.80113l-7.0606613 64.80113l15.899963 0l11.588104 -106.20904l-15.899963 0l-24.290108 76.0515l2.551178 -76.0515c-2.874569 -1.3465996 -5.6712723 -2.019898 -8.390148 -2.019898zm144.16089 7.2105656l-16.349106 2.8889236l-11.779953 72.29355l-0.029052734 0c-3.3776245 4.9166565 -6.4857483 8.58065 -9.324387 10.992004c-2.826645 2.395691 -6.2282257 3.5935364 -10.204712 3.5935364c-2.802719 0 -4.8328705 -0.8377075 -6.0905 -2.5131302c-1.245636 -1.6910782 -1.8684692 -4.8931656 -1.8684692 -9.606255c0 -5.3863983 0.70066833 -11.446091 2.1020203 -18.179085c1.4013519 -6.7486496 3.203949 -12.479519 5.407791 -17.192616c2.215805 -4.7130966 4.4256287 -7.069641 6.629471 -7.069641c1.0300598 0 1.802597 0.53237534 2.317627 1.597126c0.5150299 1.0647507 0.77253723 2.5052986 0.77253723 4.321644c0 2.5052986 -0.443161 5.347248 -1.329483 8.525848c1.329483 1.1430435 2.6170654 1.7145615 3.8627014 1.7145615c1.7007904 0 3.1021423 -0.9081726 4.204056 -2.724514c1.1019135 -1.8319969 1.6528778 -4.4312477 1.6528778 -7.7977448c0 -3.8518982 -0.94021606 -7.022667 -2.8206787 -9.512306c-1.8684692 -2.5053024 -5.0125275 -3.7579498 -9.432175 -3.7579498c-6.8510437 0 -12.504379 2.9124107 -16.95996 8.737232c-4.443596 5.809162 -7.67749 12.706566 -9.701668 20.692211c-2.0241852 7.9856415 -3.0362701 15.297989 -3.0362701 21.937027c0 0.3187256 0.002456665 0.63404083 0.0073928833 0.94594574l0 0c-0.69522095 1.6995926 -1.5447693 3.1927948 -2.5486374 4.4795914c-1.8325424 2.3487167 -3.8207932 3.523079 -5.964737 3.523079c-1.6169434 0 -2.7727509 -0.40711212 -3.4674454 -1.2213364c-0.6946945 -0.82987976 -1.0420303 -2.199974 -1.0420303 -4.1102524c0 -1.644104 0.14373016 -3.1864243 0.43118286 -4.626976l7.9589615 -49.064728l-15.899956 0l-7.509819 46.316727c-0.5868912 3.8518982 -0.88033295 6.983528 -0.88033295 9.394875c0 5.762192 1.0839462 10.091667 3.251854 12.988411c2.1679153 2.8810883 5.018532 4.32164 8.551849 4.32164c4.19207 0 8.420082 -1.8476562 12.684036 -5.5429764c2.0006714 -1.7363281 3.8308945 -4.204521 5.4906845 -7.4045715l0 0c0.75385284 3.0235748 1.9086609 5.491768 3.464447 7.4045715c3.0182953 3.6953201 7.252304 5.5429764 12.7020035 5.5429764c9.553696 0 17.88623 -5.5850983 24.997574 -16.75528l0 0l-2.5885925 15.886253l15.881989 0l7.5098114 -46.316727c0.886322 -3.9458427 2.066101 -7.1401024 3.539322 -9.5827675c1.4732056 -2.4583282 3.1620178 -3.6874886 5.0664215 -3.6874886c2.646988 0 3.9705048 2.4504929 3.9705048 7.35149c0 2.0198975 -0.25750732 4.6661186 -0.77253723 7.9386635c-0.51504517 3.2725525 -1.0660095 6.592079 -1.6528778 9.958572c-0.1437378 0.67329407 -0.4192047 2.2156143 -0.82644653 4.6269684c-0.40724182 2.3956985 -0.7965088 4.8696823 -1.1677856 7.4219513c-0.35932922 2.552269 -0.5389862 4.8383636 -0.5389862 6.858261c0 4.6191406 1.0480042 8.494522 3.1440582 11.626152c2.0960388 3.1159668 5.3898163 4.67395 9.881332 4.67395c3.8207855 0 7.515793 -1.8006821 11.0850525 -5.402054c1.5969543 -1.6183319 3.1100006 -3.9340897 4.5391235 -6.9472733l0 0c0.69551086 2.7164383 1.7020111 4.9617386 3.0195465 6.7358932c2.8027039 3.7422943 6.3000946 5.613434 10.492172 5.613434c3.6051788 0 6.713318 -1.2213364 9.324387 -3.6640015c2.6230469 -2.4583206 5.0005493 -5.660408 7.1325226 -9.606255c0.35932922 4.32164 1.4792023 7.617676 3.3596497 9.8881c1.8804474 2.254776 4.365753 3.3821564 7.4559174 3.3821564c4.0483704 0 8.072754 -1.8476562 12.073181 -5.5429764c1.8486023 -1.7097092 3.5611877 -4.1290054 5.1377563 -7.2578964l0 0c0.75442505 2.95681 1.8968811 5.3761063 3.4274292 7.2578964c3.0183105 3.6953201 7.2523193 5.5429764 12.701996 5.5429764c9.879425 0 18.452972 -5.972397 25.720642 -17.917198l0 0c-0.0039367676 0.20722198 -0.0058898926 0.4095993 -0.0058898926 0.6071472c0 5.762192 1.0839539 10.091667 3.2518616 12.988411c2.1678772 2.8810883 5.0184937 4.32164 8.551819 4.32164c4.1920776 0 8.420105 -1.8476562 12.6840515 -5.5429764c4.2759094 -3.7109756 7.7733154 -10.764961 10.4921875 -21.16195l-4.635254 0c-0.80249023 3.7579498 -2.1259766 6.8191147 -3.9704895 9.183487c-1.83255 2.3487167 -3.8208008 3.523079 -5.964752 3.523079c-1.6169434 0 -2.772766 -0.40711212 -3.4674377 -1.2213364c-0.69470215 -0.82987976 -1.0420227 -2.199974 -1.0420227 -4.1102524c0 -1.644104 0.14370728 -3.1864243 0.43118286 -4.626976l12.701996 -77.93047l-16.349121 2.8889236l-11.80368 72.29355l-0.0053100586 0c-3.3776245 4.9166565 -6.4857483 8.58065 -9.324402 10.992004c-2.8266296 2.395691 -6.2282104 3.5935364 -10.204712 3.5935364c-2.8027039 0 -4.832855 -0.8377075 -6.0904846 -2.5131302c-1.245636 -1.6910782 -1.8684692 -4.8931656 -1.8684692 -9.606255c0 -0.97080994 0.07785034 -2.896759 0.23355103 -5.7778473c4.4076843 -0.39144897 8.563812 -1.9572601 12.468445 -4.697441c3.9046326 -2.7401657 7.030731 -6.3650284 9.378296 -10.874565c2.3595276 -4.5252 3.5393066 -9.480995 3.5393066 -14.867386c0 -9.238289 -4.04834 -13.857437 -12.14505 -13.857437c-6.922943 0 -12.630157 2.9124107 -17.121674 8.737232c-4.4795227 5.809162 -7.7134094 12.706566 -9.70166 20.692211c-1.9882507 7.9856415 -2.9823608 15.297989 -2.9823608 21.937027c0 0.4559555 0.0050354004 0.9049301 0.015106201 1.3469315l0 0c-0.631897 1.7932358 -1.3540344 3.3641663 -2.1664124 4.712761c-1.5091553 2.5052948 -3.2937622 3.7579498 -5.353882 3.7579498c-3.0183105 0 -4.5274353 -2.0668716 -4.5274353 -6.200615c0 -1.644104 0.14971924 -3.1864243 0.4491272 -4.626976l7.9410095 -49.064728l-15.899963 0l-1.2037201 7.656822l0 -1.0099487c0 -2.2234535 -0.73661804 -4.00848 -2.2098236 -5.3550797c-1.4732208 -1.3465958 -3.718979 -2.0198975 -6.737274 -2.0198975c-5.964737 0 -11.097031 2.724514 -15.396912 8.173542c-4.299881 5.433365 -7.5397644 12.072411 -9.719635 19.917133c-2.1679077 7.8290634 -3.2518616 15.305817 -3.2518616 22.43026c0 0.25965118 0.0014648438 0.5170822 0.004425049 0.77227783l0 0c-0.8501892 2.2501907 -1.7003632 4.036148 -2.5505524 5.357872c-1.3175201 2.0668716 -3.078186 3.1003113 -5.282028 3.1003113c-1.6289215 0 -2.7727509 -0.5245514 -3.4315186 -1.5736389c-0.65875244 -1.0647583 -0.98812866 -2.5601044 -0.98812866 -4.4860535c0 -1.644104 0.23954773 -3.8832169 0.7186432 -6.7173386c0.47909546 -2.834114 1.012085 -5.746521 1.5989838 -8.737228c0.9581909 -4.9009857 1.6947937 -9.05822 2.2098236 -12.471695c0.51501465 -3.4134674 0.77253723 -6.5137787 0.77253723 -9.300926c0 -5.4959984 -1.1079102 -9.590595 -3.3237152 -12.283794c-2.2038422 -2.6931992 -5.1802063 -4.039795 -8.929138 -4.039795c-4.934677 0 -9.240555 2.6931953 -12.917587 8.07959l5.9647217 -36.358162z" fill-rule="evenodd"/><path fill="#0093b7" d="m511.4196 49.677402c1.5450745 0 2.682953 0.6028366 3.4135437 1.8085098c0.74261475 1.205677 1.1138916 2.3878632 1.1138916 3.546566l-5.641327 34.197342c-0.65875244 3.4604492 -1.8744507 6.200615 -3.6470947 8.220512c-1.7606812 2.0198975 -3.4854126 3.0298462 -5.174225 3.0298462c-1.5450745 0 -2.856598 -0.67329407 -3.9345703 -2.0198975c-1.065979 -1.3466034 -1.598999 -4.423424 -1.598999 -9.230461c0 -4.822708 0.6647644 -10.38134 1.9942627 -16.675903c1.3294678 -6.2945633 3.1679993 -11.680958 5.515564 -16.15918c2.3595276 -4.4782257 5.0125427 -6.7173347 7.958954 -6.7173347zm152.88107 0c2.3475342 0 3.8566895 1.6832466 4.527466 5.0497437l-5.4257812 33.046467l0 0.72810364c-0.65875244 3.7579498 -1.892395 6.6938477 -3.7009888 8.8076935c-1.7966309 2.1138458 -3.5752563 3.1707687 -5.3359375 3.1707687c-1.545044 0 -2.8565674 -0.67329407 -3.9345703 -2.0198975c-1.065979 -1.3466034 -1.598938 -4.423424 -1.598938 -9.230461c0 -4.822708 0.6647339 -10.38134 1.9942017 -16.675903c1.3294678 -6.2945633 3.1680298 -11.680958 5.515564 -16.15918c2.359558 -4.4782257 5.0125732 -6.7173347 7.9589844 -6.7173347zm-97.68921 -0.72810364c1.4612427 0 2.4852905 0.6028404 3.0722046 1.8085136c0.59887695 1.2056732 0.9701538 3.397808 1.1138916 6.5764084c-2.2756958 1.2526512 -3.4135132 3.8518982 -3.4135132 7.7977448c0 3.4604416 0.98809814 5.480339 2.9643555 6.0596924c-0.586853 5.574295 -1.545044 10.64753 -2.8745728 15.219696c-1.3175049 4.5721664 -2.8625488 8.181366 -4.635193 10.827591c-1.7606812 2.6462173 -3.5213623 3.9693375 -5.2820435 3.9693375c-2.131958 0 -3.6052246 -0.79073334 -4.4196777 -2.3722076c-0.8144531 -1.5971298 -1.2216797 -4.705269 -1.2216797 -9.3244095c0 -4.9009933 0.7006836 -10.577057 2.1020508 -17.028206c1.4013672 -6.451149 3.2398682 -11.986301 5.515564 -16.605442c2.2876587 -4.6191483 4.647217 -6.9287186 7.0786133 -6.9287186zm48.458313 0c1.4612427 0 2.4853516 0.6028404 3.0722046 1.8085136c0.59887695 1.2056732 0.97021484 3.397808 1.1138916 6.5764084c-2.2756958 1.2526512 -3.4135132 3.8518982 -3.4135132 7.7977448c0 3.4604416 0.98809814 5.480339 2.9644165 6.0596924c-0.58691406 5.574295 -1.545105 10.64753 -2.8745728 15.219696c-1.3175049 4.5721664 -2.8626099 8.181366 -4.635254 10.827591c-1.7606812 2.6462173 -3.5213623 3.9693375 -5.2820435 3.9693375c-2.131958 0 -3.6051636 -0.79073334 -4.4196167 -2.3722076c-0.8144531 -1.5971298 -1.2217407 -4.705269 -1.2217407 -9.3244095c0 -4.9009933 0.7006836 -10.577057 2.1020508 -17.028206c1.4013672 -6.451149 3.2398682 -11.986301 5.515564 -16.605442c2.2876587 -4.6191483 4.647217 -6.9287186 7.0786133 -6.9287186zm-159.6146 6.505951c0.21560669 3.757946 0.6887207 11.11726 1.419342 22.077953c0.44314575 5.198494 0.6647339 9.2382965 0.6647339 12.119385c0 4.713089 -0.9222717 8.126564 -2.7667847 10.24041c-1.8325195 2.1138458 -4.1082153 3.1707687 -6.8270874 3.1707687c-2.359558 0 -4.0723267 -0.8142166 -5.1383057 -2.442665c-1.065979 -1.6284485 -1.5989685 -4.1807175 -1.5989685 -7.656822l0 0c0.44314575 1.252655 1.4372864 1.8789749 2.9823608 1.8789749c1.4013672 0 2.55719 -0.72026825 3.4674377 -2.16082c0.9222717 -1.4405518 1.3833923 -3.0768204 1.3833923 -4.908821c0 -2.2077942 -0.84439087 -3.891037 -2.5332031 -5.0497437c4.1920776 -10.584885 7.1744385 -19.674427 8.9470825 -27.26862zm-43.725037 -50.074677c-7.5696716 0 -14.798035 1.8789749 -21.685028 5.636924c-6.875 3.7422924 -12.396576 8.643283 -16.564697 14.702977c-4.1561584 6.0596924 -6.2342224 12.409061 -6.2342224 19.048107c0 4.243351 0.94021606 7.327999 2.8206787 9.253948c1.8804321 1.9102898 4.6591797 2.8654366 8.336243 2.8654366c0 -0.18789673 -0.18563843 -0.87685394 -0.5569458 -2.0668716c-0.37130737 -1.2056732 -0.5569458 -3.1081352 -0.5569458 -5.707386c0 -7.406288 1.4552307 -13.920067 4.365753 -19.541336c2.910492 -5.6369247 6.791168 -9.966396 11.641998 -12.988413c4.8628235 -3.0376768 10.126862 -4.556514 15.792175 -4.556514c3.7489014 0 6.653412 0.91600037 8.7135315 2.748001c2.0601196 1.8163424 3.4734192 4.5330267 4.23999 8.150052c0.77853394 3.601366 1.1677856 8.384924 1.1677856 14.35067c0 9.520134 -1.1618042 19.431728 -3.4854126 29.734772c-2.311615 10.287392 -5.252075 18.821068 -8.82132 25.601028c-3.569275 6.7799683 -7.156494 10.169952 -10.761688 10.169952c-2.203827 0 -3.8207703 -1.4875259 -4.85083 -4.4625626c-1.0300598 -2.9907074 -1.5450745 -7.085312 -1.5450745 -12.283798c0 -7.406296 0.91625977 -15.916481 2.7488098 -25.530567c1.8445129 -9.614086 4.2579346 -18.320004 7.240326 -26.117748c2.9823608 -7.7977448 6.0904846 -12.941439 9.324371 -15.43108c-1.6169434 -0.7829075 -3.5273438 -1.1743584 -5.7311707 -1.1743584c-6.1922913 0 -11.552185 3.804922 -16.07962 11.41477c-4.5154724 7.594187 -7.9529724 16.730703 -10.3125305 27.409544c-2.3475647 10.678837 -3.5213318 20.300755 -3.5213318 28.86575c0 10.099487 1.7427063 17.458809 5.228119 22.07795c3.497406 4.6191406 8.336243 6.9287186 14.516571 6.9287186c8.983032 0 16.546753 -3.8675537 22.691132 -11.602669c6.144409 -7.7507706 10.683807 -17.208275 13.618286 -28.372513c2.9464111 -11.164242 4.419647 -21.890057 4.419647 -32.177444c0 -11.540033 -2.0601196 -20.5826 -6.1803284 -27.127697c-4.1202087 -6.5450945 -10.779633 -9.817643 -19.978271 -9.817643zm93.38339 116.02669l-0.64678955 4.1807175c-0.67071533 4.133751 -1.5929871 7.304512 -2.7667847 9.512306c-1.1737671 2.2234497 -2.3894653 3.3351898 -3.6470947 3.3351898c-1.1737976 0 -2.0960388 -0.48539734 -2.7667847 -1.4562073c-0.65875244 -0.95513916 -0.98812866 -2.0590363 -0.98812866 -3.3116913c0 -4.713089 3.605194 -8.799866 10.815582 -12.260315zm186.44165 -108.81612l-16.331177 2.8889236l-5.407776 33.187393l0 -0.563694c0 -2.2234535 -0.73657227 -4.00848 -2.2098389 -5.3550797c-1.4732056 -1.3465958 -3.718933 -2.0198975 -6.7372437 -2.0198975c-5.9647217 0 -11.097046 2.724514 -15.396912 8.173542c-2.7174683 3.4338074 -5.0115356 7.349167 -6.882263 11.746075l0 0c-0.22686768 0.12632751 -0.45532227 0.25076675 -0.68530273 0.3733101c-3.1620483 1.6754189 -5.95874 2.5131302 -8.390137 2.5131302c-0.58691406 0 -0.9881592 -0.046974182 -1.2037354 -0.14092255l0 -0.14092255c0 -15.391933 -4.7130737 -23.087902 -14.139282 -23.087902c-6.9109497 0 -12.648132 2.9124107 -17.211487 8.737232c-2.7753296 3.5329628 -5.0877075 7.468437 -6.937134 11.806416l0 0c-0.19110107 0.10565567 -0.38323975 0.20998001 -0.5765381 0.3129692c-3.1620483 1.6754189 -5.95874 2.5131302 -8.390137 2.5131302c-0.58691406 0 -0.9881592 -0.046974182 -1.2037354 -0.14092255l0 -0.14092255c0 -15.391933 -4.713135 -23.087902 -14.139282 -23.087902c-6.9109497 0 -12.648132 2.9124107 -17.211487 8.737232c-4.5634155 5.809162 -7.875122 12.706566 -9.935242 20.692211c-2.0601196 7.9856415 -3.090149 15.251015 -3.090149 21.796104c0 0.5956192 0.008972168 1.1791992 0.026977539 1.7507324l0 0c-1.1445312 3.4697723 -2.441162 6.252693 -3.8898315 8.348755c-2.132019 3.0846558 -4.9646606 5.3942337 -8.497986 6.9287186l10.923401 -66.96196l-15.899963 0l-1.2037354 7.4924126l0 -0.8455391c0 -2.2234535 -0.7366333 -4.00848 -2.2098389 -5.3550797c-1.4732056 -1.3465958 -3.7189636 -2.0198975 -6.737274 -2.0198975c-5.9647217 0 -11.097015 2.724514 -15.396912 8.173542c-4.2998657 5.433365 -7.5397644 12.072411 -9.719635 19.917133c-1.9758911 7.1356506 -3.0513306 13.97863 -3.2263489 20.528954l0 0c-1.7027893 1.7723083 -3.879242 3.6508942 -6.529358 5.635765c0.2874756 -1.4405518 0.43118286 -3.264717 0.43118286 -5.4725113c0 -2.5992432 -0.18563843 -6.787796 -0.5569458 -12.565643c-0.8743286 -14.327183 -1.4971619 -27.644417 -1.8684692 -39.9517l-16.331146 2.8654327c-1.9163818 7.9856453 -3.9405518 15.423256 -6.0725403 22.312824c-2.131958 6.8739204 -4.6352234 13.677372 -7.509796 20.410366c-1.6169434 1.0647507 -2.9943542 2.7793198 -4.132202 5.143692c-1.1498108 2.3487167 -1.7247314 5.104553 -1.7247314 8.267487c0 3.0846558 0.592865 6.0518723 1.7786255 8.901642c1.1737976 2.834114 2.9763794 5.143692 5.4078064 6.9287186c2.4313965 1.769371 5.407776 2.6540527 8.929108 2.6540527c3.1740112 0 6.324066 -0.696785 9.450165 -2.090355c3.1260986 -1.3935776 5.755127 -3.5857239 7.887085 -6.576416c3.9998474 -2.9921112 7.655945 -6.39859 10.968292 -10.219444l0 0c0.4310913 5.8080215 1.7755737 10.232277 4.0335083 13.272781c2.8027039 3.7422943 6.30011 5.613434 10.4921875 5.613434c5.0783997 0 9.498077 -2.6462173 13.258942 -7.9386673l0 0l-1.3294678 7.656822c-5.2221375 2.2077942 -9.528015 4.971451 -12.917603 8.2909775c-3.3895874 3.3195267 -5.0844116 7.719467 -5.0844116 13.199799c0 4.5251923 1.179779 7.9856415 3.5393372 10.381332c2.3595276 2.4113464 5.299988 3.6170197 8.82132 3.6170197c4.563385 0 8.647675 -1.7615356 12.252869 -5.284607c3.6171265 -3.507431 6.156372 -9.919434 7.6176147 -19.236008l1.6708374 -10.404823c4.263916 -1.4405518 8.084717 -4.1572266 11.462341 -8.150047c1.1237183 -1.3236694 2.1703491 -2.8985825 3.1400757 -4.7247314l0 0c0.78985596 2.7786407 1.953064 5.058174 3.489563 6.8385773c3.1619873 3.648346 7.4678955 5.4725113 12.9175415 5.4725113c4.491516 0 8.647705 -1.7771912 12.468445 -5.3315887c3.8327637 -3.570053 6.9588623 -8.627632 9.378296 -15.172722c2.4313965 -6.5450897 3.9405518 -14.194084 4.527466 -22.946976c2.7854614 -0.5925522 5.423523 -1.4704971 7.9141235 -2.6338272l0 0c-0.1383667 0.49007416 -0.2718506 0.9843979 -0.40045166 1.4829559c-2.0601196 7.9856415 -3.090149 15.251015 -3.090149 21.796104c0 7.891693 1.5809937 13.66954 4.743042 17.333542c3.1619873 3.648346 7.4678955 5.4725113 12.917603 5.4725113c4.491516 0 8.647644 -1.7771912 12.468445 -5.3315887c3.8327026 -3.570053 6.9588013 -8.627632 9.378235 -15.172722c2.4313965 -6.5450897 3.9405518 -14.194084 4.527466 -22.946976c2.8154907 -0.59893036 5.4803467 -1.4894409 7.994568 -2.671524l0 0c-0.0715332 0.24730682 -0.14202881 0.49583435 -0.21142578 0.74557495c-2.1679077 7.8290634 -3.251831 15.305817 -3.251831 22.43026c0 7.9856415 1.3953857 13.857437 4.186096 17.615387c2.8026733 3.7422943 6.30011 5.613434 10.4921875 5.613434c3.6051636 0 6.7492065 -1.252655 9.43219 -3.7579498c2.6948853 -2.5052948 5.0005493 -5.6760635 6.916931 -9.512306c0.43115234 4.039795 1.5869751 7.1166153 3.4674072 9.230461c1.8804321 2.1138458 4.329834 3.1707687 7.3481445 3.1707687c10.300537 0 17.696533 -8.611961 22.18805 -25.8359l-4.635193 0c-0.88635254 3.8518982 -2.0841064 6.936554 -3.5932617 9.253952c-1.5090942 2.3017426 -3.2937622 3.4526138 -5.353882 3.4526138c-1.6169434 0 -2.7786865 -0.40711212 -3.4854126 -1.2213364c-0.6946411 -0.82987976 -1.0419922 -2.199974 -1.0419922 -4.1102524c0 -1.644104 0.14971924 -3.1864243 0.4491577 -4.626976l12.684021 -77.93047z" fill-rule="evenodd"/><path stroke="#b7b7b7" stroke-width="3.0" stroke-linejoin="round" stroke-linecap="butt" d="m102.44096 10.712164c-2.431404 0 -4.491516 1.1352148 -6.1803284 3.4056416c-1.6888046 2.2547703 -2.5332108 4.9714527 -2.5332108 8.150053c0 3.1785965 0.8444061 5.8717957 2.5332108 8.07959c1.6888123 2.207796 3.7489243 3.3116932 6.1803284 3.3116932c2.4313965 0 4.5094757 -1.1038971 6.2342224 -3.3116932c1.7367249 -2.2077942 2.6050797 -4.9009933 2.6050797 -8.07959c0 -3.1786003 -0.8683548 -5.8952827 -2.6050797 -8.150053c-1.7247467 -2.2704268 -3.802826 -3.4056416 -6.2342224 -3.4056416zm196.48048 37.086266c1.8445129 0 2.7667542 1.9729233 2.7667542 5.91877c0 3.9458466 -0.75457764 7.7037964 -2.2637024 11.273846c-1.5091553 3.55439 -3.497406 6.4902954 -5.964752 8.8076935c-2.4673462 2.3017426 -5.060425 3.5465698 -7.779297 3.7344666c1.1019287 -7.7037964 2.9224854 -14.585545 5.46167 -20.645237c2.539215 -6.0596924 5.132324 -9.089539 7.7793274 -9.089539zm-56.947784 1.8789749c1.5450745 0 2.6829376 0.6028366 3.4135437 1.8085098c0.7425995 1.205677 1.1139069 2.4348373 1.1139069 3.6874886l-5.299988 32.600212c-0.67074585 3.9458466 -1.9104004 7.0539856 -3.718979 9.3244095c-1.7966156 2.2547684 -3.6111755 3.3821564 -5.4437256 3.3821564c-1.5450745 0 -2.856598 -0.67329407 -3.934555 -2.0198975c-1.0659943 -1.3466034 -1.5989838 -4.423424 -1.5989838 -9.230461c0 -4.822708 0.66474915 -10.38134 1.9942322 -16.675903c1.329483 -6.2945633 3.1680145 -11.680958 5.515579 -16.15918c2.3595428 -4.4782257 5.0125275 -6.7173347 7.958969 -6.7173347zm-202.11435 -44.29683c-5.4497147 0 -10.917398 1.902462 -16.403011 5.707386c-5.473648 3.7892666 -9.959163 8.690258 -13.456579 14.702976c-3.4973812 6.012718 -5.246089 12.001949 -5.246089 17.967697c0 8.752892 3.9345665 13.1293335 11.8037 13.1293335c0 -0.2818451 -0.2575245 -1.0960693 -0.7725401 -2.442669c-0.5150156 -1.3465958 -0.77254105 -3.8518944 -0.77254105 -7.515896c0 -8.173542 1.5271158 -15.023972 4.5813456 -20.551287c3.0542297 -5.527317 7.37805 -9.496651 12.971495 -11.908001l0 0l-28.027052 99.1394l8.821335 0l18.433176 -65.082985l-2.2098255 65.082985l15.127424 0l20.750797 -64.80113l-7.0606613 64.80113l15.899963 0l11.588104 -106.20904l-15.899963 0l-24.290108 76.0515l2.551178 -76.0515c-2.874569 -1.3465996 -5.6712723 -2.019898 -8.390148 -2.019898zm144.16089 7.2105656l-16.349106 2.8889236l-11.779953 72.29355l-0.029052734 0c-3.3776245 4.9166565 -6.4857483 8.58065 -9.324387 10.992004c-2.826645 2.395691 -6.2282257 3.5935364 -10.204712 3.5935364c-2.802719 0 -4.8328705 -0.8377075 -6.0905 -2.5131302c-1.245636 -1.6910782 -1.8684692 -4.8931656 -1.8684692 -9.606255c0 -5.3863983 0.70066833 -11.446091 2.1020203 -18.179085c1.4013519 -6.7486496 3.203949 -12.479519 5.407791 -17.192616c2.215805 -4.7130966 4.4256287 -7.069641 6.629471 -7.069641c1.0300598 0 1.802597 0.53237534 2.317627 1.597126c0.5150299 1.0647507 0.77253723 2.5052986 0.77253723 4.321644c0 2.5052986 -0.443161 5.347248 -1.329483 8.525848c1.329483 1.1430435 2.6170654 1.7145615 3.8627014 1.7145615c1.7007904 0 3.1021423 -0.9081726 4.204056 -2.724514c1.1019135 -1.8319969 1.6528778 -4.4312477 1.6528778 -7.7977448c0 -3.8518982 -0.94021606 -7.022667 -2.8206787 -9.512306c-1.8684692 -2.5053024 -5.0125275 -3.7579498 -9.432175 -3.7579498c-6.8510437 0 -12.504379 2.9124107 -16.95996 8.737232c-4.443596 5.809162 -7.67749 12.706566 -9.701668 20.692211c-2.0241852 7.9856415 -3.0362701 15.297989 -3.0362701 21.937027c0 0.3187256 0.002456665 0.63404083 0.0073928833 0.94594574l0 0c-0.69522095 1.6995926 -1.5447693 3.1927948 -2.5486374 4.4795914c-1.8325424 2.3487167 -3.8207932 3.523079 -5.964737 3.523079c-1.6169434 0 -2.7727509 -0.40711212 -3.4674454 -1.2213364c-0.6946945 -0.82987976 -1.0420303 -2.199974 -1.0420303 -4.1102524c0 -1.644104 0.14373016 -3.1864243 0.43118286 -4.626976l7.9589615 -49.064728l-15.899956 0l-7.509819 46.316727c-0.5868912 3.8518982 -0.88033295 6.983528 -0.88033295 9.394875c0 5.762192 1.0839462 10.091667 3.251854 12.988411c2.1679153 2.8810883 5.018532 4.32164 8.551849 4.32164c4.19207 0 8.420082 -1.8476562 12.684036 -5.5429764c2.0006714 -1.7363281 3.8308945 -4.204521 5.4906845 -7.4045715l0 0c0.75385284 3.0235748 1.9086609 5.491768 3.464447 7.4045715c3.0182953 3.6953201 7.252304 5.5429764 12.7020035 5.5429764c9.553696 0 17.88623 -5.5850983 24.997574 -16.75528l0 0l-2.5885925 15.886253l15.881989 0l7.5098114 -46.316727c0.886322 -3.9458427 2.066101 -7.1401024 3.539322 -9.5827675c1.4732056 -2.4583282 3.1620178 -3.6874886 5.0664215 -3.6874886c2.646988 0 3.9705048 2.4504929 3.9705048 7.35149c0 2.0198975 -0.25750732 4.6661186 -0.77253723 7.9386635c-0.51504517 3.2725525 -1.0660095 6.592079 -1.6528778 9.958572c-0.1437378 0.67329407 -0.4192047 2.2156143 -0.82644653 4.6269684c-0.40724182 2.3956985 -0.7965088 4.8696823 -1.1677856 7.4219513c-0.35932922 2.552269 -0.5389862 4.8383636 -0.5389862 6.858261c0 4.6191406 1.0480042 8.494522 3.1440582 11.626152c2.0960388 3.1159668 5.3898163 4.67395 9.881332 4.67395c3.8207855 0 7.515793 -1.8006821 11.0850525 -5.402054c1.5969543 -1.6183319 3.1100006 -3.9340897 4.5391235 -6.9472733l0 0c0.69551086 2.7164383 1.7020111 4.9617386 3.0195465 6.7358932c2.8027039 3.7422943 6.3000946 5.613434 10.492172 5.613434c3.6051788 0 6.713318 -1.2213364 9.324387 -3.6640015c2.6230469 -2.4583206 5.0005493 -5.660408 7.1325226 -9.606255c0.35932922 4.32164 1.4792023 7.617676 3.3596497 9.8881c1.8804474 2.254776 4.365753 3.3821564 7.4559174 3.3821564c4.0483704 0 8.072754 -1.8476562 12.073181 -5.5429764c1.8486023 -1.7097092 3.5611877 -4.1290054 5.1377563 -7.2578964l0 0c0.75442505 2.95681 1.8968811 5.3761063 3.4274292 7.2578964c3.0183105 3.6953201 7.2523193 5.5429764 12.701996 5.5429764c9.879425 0 18.452972 -5.972397 25.720642 -17.917198l0 0c-0.0039367676 0.20722198 -0.0058898926 0.4095993 -0.0058898926 0.6071472c0 5.762192 1.0839539 10.091667 3.2518616 12.988411c2.1678772 2.8810883 5.0184937 4.32164 8.551819 4.32164c4.1920776 0 8.420105 -1.8476562 12.6840515 -5.5429764c4.2759094 -3.7109756 7.7733154 -10.764961 10.4921875 -21.16195l-4.635254 0c-0.80249023 3.7579498 -2.1259766 6.8191147 -3.9704895 9.183487c-1.83255 2.3487167 -3.8208008 3.523079 -5.964752 3.523079c-1.6169434 0 -2.772766 -0.40711212 -3.4674377 -1.2213364c-0.69470215 -0.82987976 -1.0420227 -2.199974 -1.0420227 -4.1102524c0 -1.644104 0.14370728 -3.1864243 0.43118286 -4.626976l12.701996 -77.93047l-16.349121 2.8889236l-11.80368 72.29355l-0.0053100586 0c-3.3776245 4.9166565 -6.4857483 8.58065 -9.324402 10.992004c-2.8266296 2.395691 -6.2282104 3.5935364 -10.204712 3.5935364c-2.8027039 0 -4.832855 -0.8377075 -6.0904846 -2.5131302c-1.245636 -1.6910782 -1.8684692 -4.8931656 -1.8684692 -9.606255c0 -0.97080994 0.07785034 -2.896759 0.23355103 -5.7778473c4.4076843 -0.39144897 8.563812 -1.9572601 12.468445 -4.697441c3.9046326 -2.7401657 7.030731 -6.3650284 9.378296 -10.874565c2.3595276 -4.5252 3.5393066 -9.480995 3.5393066 -14.867386c0 -9.238289 -4.04834 -13.857437 -12.14505 -13.857437c-6.922943 0 -12.630157 2.9124107 -17.121674 8.737232c-4.4795227 5.809162 -7.7134094 12.706566 -9.70166 20.692211c-1.9882507 7.9856415 -2.9823608 15.297989 -2.9823608 21.937027c0 0.4559555 0.0050354004 0.9049301 0.015106201 1.3469315l0 0c-0.631897 1.7932358 -1.3540344 3.3641663 -2.1664124 4.712761c-1.5091553 2.5052948 -3.2937622 3.7579498 -5.353882 3.7579498c-3.0183105 0 -4.5274353 -2.0668716 -4.5274353 -6.200615c0 -1.644104 0.14971924 -3.1864243 0.4491272 -4.626976l7.9410095 -49.064728l-15.899963 0l-1.2037201 7.656822l0 -1.0099487c0 -2.2234535 -0.73661804 -4.00848 -2.2098236 -5.3550797c-1.4732208 -1.3465958 -3.718979 -2.0198975 -6.737274 -2.0198975c-5.964737 0 -11.097031 2.724514 -15.396912 8.173542c-4.299881 5.433365 -7.5397644 12.072411 -9.719635 19.917133c-2.1679077 7.8290634 -3.2518616 15.305817 -3.2518616 22.43026c0 0.25965118 0.0014648438 0.5170822 0.004425049 0.77227783l0 0c-0.8501892 2.2501907 -1.7003632 4.036148 -2.5505524 5.357872c-1.3175201 2.0668716 -3.078186 3.1003113 -5.282028 3.1003113c-1.6289215 0 -2.7727509 -0.5245514 -3.4315186 -1.5736389c-0.65875244 -1.0647583 -0.98812866 -2.5601044 -0.98812866 -4.4860535c0 -1.644104 0.23954773 -3.8832169 0.7186432 -6.7173386c0.47909546 -2.834114 1.012085 -5.746521 1.5989838 -8.737228c0.9581909 -4.9009857 1.6947937 -9.05822 2.2098236 -12.471695c0.51501465 -3.4134674 0.77253723 -6.5137787 0.77253723 -9.300926c0 -5.4959984 -1.1079102 -9.590595 -3.3237152 -12.283794c-2.2038422 -2.6931992 -5.1802063 -4.039795 -8.929138 -4.039795c-4.934677 0 -9.240555 2.6931953 -12.917587 8.07959l5.9647217 -36.358162z" fill-rule="evenodd"/><path stroke="#b7b7b7" stroke-width="3.0" stroke-linejoin="round" stroke-linecap="butt" d="m511.4196 49.677402c1.5450745 0 2.682953 0.6028366 3.4135437 1.8085098c0.74261475 1.205677 1.1138916 2.3878632 1.1138916 3.546566l-5.641327 34.197342c-0.65875244 3.4604492 -1.8744507 6.200615 -3.6470947 8.220512c-1.7606812 2.0198975 -3.4854126 3.0298462 -5.174225 3.0298462c-1.5450745 0 -2.856598 -0.67329407 -3.9345703 -2.0198975c-1.065979 -1.3466034 -1.598999 -4.423424 -1.598999 -9.230461c0 -4.822708 0.6647644 -10.38134 1.9942627 -16.675903c1.3294678 -6.2945633 3.1679993 -11.680958 5.515564 -16.15918c2.3595276 -4.4782257 5.0125427 -6.7173347 7.958954 -6.7173347zm152.88107 0c2.3475342 0 3.8566895 1.6832466 4.527466 5.0497437l-5.4257812 33.046467l0 0.72810364c-0.65875244 3.7579498 -1.892395 6.6938477 -3.7009888 8.8076935c-1.7966309 2.1138458 -3.5752563 3.1707687 -5.3359375 3.1707687c-1.545044 0 -2.8565674 -0.67329407 -3.9345703 -2.0198975c-1.065979 -1.3466034 -1.598938 -4.423424 -1.598938 -9.230461c0 -4.822708 0.6647339 -10.38134 1.9942017 -16.675903c1.3294678 -6.2945633 3.1680298 -11.680958 5.515564 -16.15918c2.359558 -4.4782257 5.0125732 -6.7173347 7.9589844 -6.7173347zm-97.68921 -0.72810364c1.4612427 0 2.4852905 0.6028404 3.0722046 1.8085136c0.59887695 1.2056732 0.9701538 3.397808 1.1138916 6.5764084c-2.2756958 1.2526512 -3.4135132 3.8518982 -3.4135132 7.7977448c0 3.4604416 0.98809814 5.480339 2.9643555 6.0596924c-0.586853 5.574295 -1.545044 10.64753 -2.8745728 15.219696c-1.3175049 4.5721664 -2.8625488 8.181366 -4.635193 10.827591c-1.7606812 2.6462173 -3.5213623 3.9693375 -5.2820435 3.9693375c-2.131958 0 -3.6052246 -0.79073334 -4.4196777 -2.3722076c-0.8144531 -1.5971298 -1.2216797 -4.705269 -1.2216797 -9.3244095c0 -4.9009933 0.7006836 -10.577057 2.1020508 -17.028206c1.4013672 -6.451149 3.2398682 -11.986301 5.515564 -16.605442c2.2876587 -4.6191483 4.647217 -6.9287186 7.0786133 -6.9287186zm48.458313 0c1.4612427 0 2.4853516 0.6028404 3.0722046 1.8085136c0.59887695 1.2056732 0.97021484 3.397808 1.1138916 6.5764084c-2.2756958 1.2526512 -3.4135132 3.8518982 -3.4135132 7.7977448c0 3.4604416 0.98809814 5.480339 2.9644165 6.0596924c-0.58691406 5.574295 -1.545105 10.64753 -2.8745728 15.219696c-1.3175049 4.5721664 -2.8626099 8.181366 -4.635254 10.827591c-1.7606812 2.6462173 -3.5213623 3.9693375 -5.2820435 3.9693375c-2.131958 0 -3.6051636 -0.79073334 -4.4196167 -2.3722076c-0.8144531 -1.5971298 -1.2217407 -4.705269 -1.2217407 -9.3244095c0 -4.9009933 0.7006836 -10.577057 2.1020508 -17.028206c1.4013672 -6.451149 3.2398682 -11.986301 5.515564 -16.605442c2.2876587 -4.6191483 4.647217 -6.9287186 7.0786133 -6.9287186zm-159.6146 6.505951c0.21560669 3.757946 0.6887207 11.11726 1.419342 22.077953c0.44314575 5.198494 0.6647339 9.2382965 0.6647339 12.119385c0 4.713089 -0.9222717 8.126564 -2.7667847 10.24041c-1.8325195 2.1138458 -4.1082153 3.1707687 -6.8270874 3.1707687c-2.359558 0 -4.0723267 -0.8142166 -5.1383057 -2.442665c-1.065979 -1.6284485 -1.5989685 -4.1807175 -1.5989685 -7.656822l0 0c0.44314575 1.252655 1.4372864 1.8789749 2.9823608 1.8789749c1.4013672 0 2.55719 -0.72026825 3.4674377 -2.16082c0.9222717 -1.4405518 1.3833923 -3.0768204 1.3833923 -4.908821c0 -2.2077942 -0.84439087 -3.891037 -2.5332031 -5.0497437c4.1920776 -10.584885 7.1744385 -19.674427 8.9470825 -27.26862zm-43.725037 -50.074677c-7.5696716 0 -14.798035 1.8789749 -21.685028 5.636924c-6.875 3.7422924 -12.396576 8.643283 -16.564697 14.702977c-4.1561584 6.0596924 -6.2342224 12.409061 -6.2342224 19.048107c0 4.243351 0.94021606 7.327999 2.8206787 9.253948c1.8804321 1.9102898 4.6591797 2.8654366 8.336243 2.8654366c0 -0.18789673 -0.18563843 -0.87685394 -0.5569458 -2.0668716c-0.37130737 -1.2056732 -0.5569458 -3.1081352 -0.5569458 -5.707386c0 -7.406288 1.4552307 -13.920067 4.365753 -19.541336c2.910492 -5.6369247 6.791168 -9.966396 11.641998 -12.988413c4.8628235 -3.0376768 10.126862 -4.556514 15.792175 -4.556514c3.7489014 0 6.653412 0.91600037 8.7135315 2.748001c2.0601196 1.8163424 3.4734192 4.5330267 4.23999 8.150052c0.77853394 3.601366 1.1677856 8.384924 1.1677856 14.35067c0 9.520134 -1.1618042 19.431728 -3.4854126 29.734772c-2.311615 10.287392 -5.252075 18.821068 -8.82132 25.601028c-3.569275 6.7799683 -7.156494 10.169952 -10.761688 10.169952c-2.203827 0 -3.8207703 -1.4875259 -4.85083 -4.4625626c-1.0300598 -2.9907074 -1.5450745 -7.085312 -1.5450745 -12.283798c0 -7.406296 0.91625977 -15.916481 2.7488098 -25.530567c1.8445129 -9.614086 4.2579346 -18.320004 7.240326 -26.117748c2.9823608 -7.7977448 6.0904846 -12.941439 9.324371 -15.43108c-1.6169434 -0.7829075 -3.5273438 -1.1743584 -5.7311707 -1.1743584c-6.1922913 0 -11.552185 3.804922 -16.07962 11.41477c-4.5154724 7.594187 -7.9529724 16.730703 -10.3125305 27.409544c-2.3475647 10.678837 -3.5213318 20.300755 -3.5213318 28.86575c0 10.099487 1.7427063 17.458809 5.228119 22.07795c3.497406 4.6191406 8.336243 6.9287186 14.516571 6.9287186c8.983032 0 16.546753 -3.8675537 22.691132 -11.602669c6.144409 -7.7507706 10.683807 -17.208275 13.618286 -28.372513c2.9464111 -11.164242 4.419647 -21.890057 4.419647 -32.177444c0 -11.540033 -2.0601196 -20.5826 -6.1803284 -27.127697c-4.1202087 -6.5450945 -10.779633 -9.817643 -19.978271 -9.817643zm93.38339 116.02669l-0.64678955 4.1807175c-0.67071533 4.133751 -1.5929871 7.304512 -2.7667847 9.512306c-1.1737671 2.2234497 -2.3894653 3.3351898 -3.6470947 3.3351898c-1.1737976 0 -2.0960388 -0.48539734 -2.7667847 -1.4562073c-0.65875244 -0.95513916 -0.98812866 -2.0590363 -0.98812866 -3.3116913c0 -4.713089 3.605194 -8.799866 10.815582 -12.260315zm186.44165 -108.81612l-16.331177 2.8889236l-5.407776 33.187393l0 -0.563694c0 -2.2234535 -0.73657227 -4.00848 -2.2098389 -5.3550797c-1.4732056 -1.3465958 -3.718933 -2.0198975 -6.7372437 -2.0198975c-5.9647217 0 -11.097046 2.724514 -15.396912 8.173542c-2.7174683 3.4338074 -5.0115356 7.349167 -6.882263 11.746075l0 0c-0.22686768 0.12632751 -0.45532227 0.25076675 -0.68530273 0.3733101c-3.1620483 1.6754189 -5.95874 2.5131302 -8.390137 2.5131302c-0.58691406 0 -0.9881592 -0.046974182 -1.2037354 -0.14092255l0 -0.14092255c0 -15.391933 -4.7130737 -23.087902 -14.139282 -23.087902c-6.9109497 0 -12.648132 2.9124107 -17.211487 8.737232c-2.7753296 3.5329628 -5.0877075 7.468437 -6.937134 11.806416l0 0c-0.19110107 0.10565567 -0.38323975 0.20998001 -0.5765381 0.3129692c-3.1620483 1.6754189 -5.95874 2.5131302 -8.390137 2.5131302c-0.58691406 0 -0.9881592 -0.046974182 -1.2037354 -0.14092255l0 -0.14092255c0 -15.391933 -4.713135 -23.087902 -14.139282 -23.087902c-6.9109497 0 -12.648132 2.9124107 -17.211487 8.737232c-4.5634155 5.809162 -7.875122 12.706566 -9.935242 20.692211c-2.0601196 7.9856415 -3.090149 15.251015 -3.090149 21.796104c0 0.5956192 0.008972168 1.1791992 0.026977539 1.7507324l0 0c-1.1445312 3.4697723 -2.441162 6.252693 -3.8898315 8.348755c-2.132019 3.0846558 -4.9646606 5.3942337 -8.497986 6.9287186l10.923401 -66.96196l-15.899963 0l-1.2037354 7.4924126l0 -0.8455391c0 -2.2234535 -0.7366333 -4.00848 -2.2098389 -5.3550797c-1.4732056 -1.3465958 -3.7189636 -2.0198975 -6.737274 -2.0198975c-5.9647217 0 -11.097015 2.724514 -15.396912 8.173542c-4.2998657 5.433365 -7.5397644 12.072411 -9.719635 19.917133c-1.9758911 7.1356506 -3.0513306 13.97863 -3.2263489 20.528954l0 0c-1.7027893 1.7723083 -3.879242 3.6508942 -6.529358 5.635765c0.2874756 -1.4405518 0.43118286 -3.264717 0.43118286 -5.4725113c0 -2.5992432 -0.18563843 -6.787796 -0.5569458 -12.565643c-0.8743286 -14.327183 -1.4971619 -27.644417 -1.8684692 -39.9517l-16.331146 2.8654327c-1.9163818 7.9856453 -3.9405518 15.423256 -6.0725403 22.312824c-2.131958 6.8739204 -4.6352234 13.677372 -7.509796 20.410366c-1.6169434 1.0647507 -2.9943542 2.7793198 -4.132202 5.143692c-1.1498108 2.3487167 -1.7247314 5.104553 -1.7247314 8.267487c0 3.0846558 0.592865 6.0518723 1.7786255 8.901642c1.1737976 2.834114 2.9763794 5.143692 5.4078064 6.9287186c2.4313965 1.769371 5.407776 2.6540527 8.929108 2.6540527c3.1740112 0 6.324066 -0.696785 9.450165 -2.090355c3.1260986 -1.3935776 5.755127 -3.5857239 7.887085 -6.576416c3.9998474 -2.9921112 7.655945 -6.39859 10.968292 -10.219444l0 0c0.4310913 5.8080215 1.7755737 10.232277 4.0335083 13.272781c2.8027039 3.7422943 6.30011 5.613434 10.4921875 5.613434c5.0783997 0 9.498077 -2.6462173 13.258942 -7.9386673l0 0l-1.3294678 7.656822c-5.2221375 2.2077942 -9.528015 4.971451 -12.917603 8.2909775c-3.3895874 3.3195267 -5.0844116 7.719467 -5.0844116 13.199799c0 4.5251923 1.179779 7.9856415 3.5393372 10.381332c2.3595276 2.4113464 5.299988 3.6170197 8.82132 3.6170197c4.563385 0 8.647675 -1.7615356 12.252869 -5.284607c3.6171265 -3.507431 6.156372 -9.919434 7.6176147 -19.236008l1.6708374 -10.404823c4.263916 -1.4405518 8.084717 -4.1572266 11.462341 -8.150047c1.1237183 -1.3236694 2.1703491 -2.8985825 3.1400757 -4.7247314l0 0c0.78985596 2.7786407 1.953064 5.058174 3.489563 6.8385773c3.1619873 3.648346 7.4678955 5.4725113 12.9175415 5.4725113c4.491516 0 8.647705 -1.7771912 12.468445 -5.3315887c3.8327637 -3.570053 6.9588623 -8.627632 9.378296 -15.172722c2.4313965 -6.5450897 3.9405518 -14.194084 4.527466 -22.946976c2.7854614 -0.5925522 5.423523 -1.4704971 7.9141235 -2.6338272l0 0c-0.1383667 0.49007416 -0.2718506 0.9843979 -0.40045166 1.4829559c-2.0601196 7.9856415 -3.090149 15.251015 -3.090149 21.796104c0 7.891693 1.5809937 13.66954 4.743042 17.333542c3.1619873 3.648346 7.4678955 5.4725113 12.917603 5.4725113c4.491516 0 8.647644 -1.7771912 12.468445 -5.3315887c3.8327026 -3.570053 6.9588013 -8.627632 9.378235 -15.172722c2.4313965 -6.5450897 3.9405518 -14.194084 4.527466 -22.946976c2.8154907 -0.59893036 5.4803467 -1.4894409 7.994568 -2.671524l0 0c-0.0715332 0.24730682 -0.14202881 0.49583435 -0.21142578 0.74557495c-2.1679077 7.8290634 -3.251831 15.305817 -3.251831 22.43026c0 7.9856415 1.3953857 13.857437 4.186096 17.615387c2.8026733 3.7422943 6.30011 5.613434 10.4921875 5.613434c3.6051636 0 6.7492065 -1.252655 9.43219 -3.7579498c2.6948853 -2.5052948 5.0005493 -5.6760635 6.916931 -9.512306c0.43115234 4.039795 1.5869751 7.1166153 3.4674072 9.230461c1.8804321 2.1138458 4.329834 3.1707687 7.3481445 3.1707687c10.300537 0 17.696533 -8.611961 22.18805 -25.8359l-4.635193 0c-0.88635254 3.8518982 -2.0841064 6.936554 -3.5932617 9.253952c-1.5090942 2.3017426 -3.2937622 3.4526138 -5.353882 3.4526138c-1.6169434 0 -2.7786865 -0.40711212 -3.4854126 -1.2213364c-0.6946411 -0.82987976 -1.0419922 -2.199974 -1.0419922 -4.1102524c0 -1.644104 0.14971924 -3.1864243 0.4491577 -4.626976l12.684021 -77.93047z" fill-rule="evenodd"/></g></svg>