<svg version="1.1" viewBox="0.0 0.0 921.6115485564304 204.249343832021" fill="none" stroke="none" stroke-linecap="square" stroke-miterlimit="10" xmlns:xlink="http://www.w3.org/1999/xlink" xmlns="http://www.w3.org/2000/svg"><clipPath id="p.0"><path d="m0 0l921.6116 0l0 204.24934l-921.6116 0l0 -204.24934z" clip-rule="nonzero"/></clipPath><g clip-path="url(#p.0)"><path fill="#000000" fill-opacity="0.0" d="m0 0l921.6116 0l0 204.24934l-921.6116 0z" fill-rule="evenodd"/><defs><radialGradient id="p.1" gradientUnits="userSpaceOnUse" gradientTransform="matrix(20.382075724193832 0.0 0.0 20.382075724193832 0.0 0.0)" spreadMethod="pad" cx="22.678042504597666" cy="3.5038320120557813" fx="22.678042504597666" fy="3.5038320120557813" r="20.382076263427734"><stop offset="0.0" stop-color="#999999"/><stop offset="1.0" stop-color="#b3b3b3"/></radialGradient></defs><path fill="url(#p.1)" d="m53.640846 22.528399l0 10.042894l7.193062 0.48098373l-3.1841278 54.966576c-0.16622925 1.9752274 -1.1508904 3.0398026 -2.9539528 3.193718l-4.239113 0.34630585l0 9.581154l27.813183 0l0 -10.042892l-7.6534195 -0.36554718l2.3401413 -43.846283l0.24936676 0l17.915527 46.693695l11.182816 0l18.145706 -47.17468l0.24935913 0l2.2250595 41.72997c0.08950043 1.8982697 -0.927124 2.9243622 -3.0498657 3.0782776l-4.239113 0.34630585l0 9.581154l28.388634 0l0 -10.042892l-7.3081512 -0.36554718l-2.9347687 -54.13929c-0.07673645 -2.5139313 1.0613861 -3.892746 3.4143066 -4.1364403l3.8938446 -0.34630966l0 -9.581152l-23.343895 0l-20.159767 53.427437l-0.23017883 0l-20.02549 -53.427437z" fill-rule="evenodd"/><defs><radialGradient id="p.2" gradientUnits="userSpaceOnUse" gradientTransform="matrix(20.382075724193832 0.0 0.0 20.382075724193832 0.0 0.0)" spreadMethod="pad" cx="22.678042504597666" cy="3.5038320120557813" fx="22.678042504597666" fy="3.5038320120557813" r="20.382076263427734"><stop offset="0.0" stop-color="#999999"/><stop offset="1.0" stop-color="#b3b3b3"/></radialGradient></defs><path fill="url(#p.2)" d="m163.2266 16.391073c-2.6598358 0 -4.81456 0.8465271 -6.464157 2.5395832c-1.6496124 1.6930542 -2.4744263 3.8029594 -2.4744263 6.3297176c0 2.5139313 0.82481384 4.578945 2.4744263 6.1950417c1.6495972 1.6160984 3.8043213 2.4241467 6.464157 2.4241467c2.6726227 0 4.8529205 -0.80804825 6.5408936 -2.4241467c1.7007751 -1.6160965 2.5511475 -3.6811104 2.5511475 -6.1950417c0 -2.5267582 -0.8503723 -4.6366634 -2.5511475 -6.3297176c-1.687973 -1.6930561 -3.8682709 -2.5395832 -6.5408936 -2.5395832zm-12.717331 25.299631l0 9.812027l4.1240234 0.2308693c1.0997314 0 1.8669891 0.2372818 2.301773 0.711853c0.43478394 0.47457123 0.6521759 1.3788147 0.6521759 2.712738l0 32.86066c0 2.2830582 -1.138092 3.5464325 -3.4143066 3.7901382l-3.8938446 0.34630585l0 8.984734l28.043365 0l0 -9.4657135l-6.7135315 -0.34630585l0 -49.637306z" fill-rule="evenodd"/><defs><radialGradient id="p.3" gradientUnits="userSpaceOnUse" gradientTransform="matrix(20.382075724193832 0.0 0.0 20.382075724193832 0.0 0.0)" spreadMethod="pad" cx="22.678042504597666" cy="3.5038320120557813" fx="22.678042504597666" fy="3.5038320120557813" r="20.382076263427734"><stop offset="0.0" stop-color="#999999"/><stop offset="1.0" stop-color="#b3b3b3"/></radialGradient></defs><path fill="url(#p.3)" d="m212.20894 39.901455c-6.956497 0 -13.203278 2.6229515 -18.740341 7.8688583c-5.5370636 5.245907 -8.305588 13.069878 -8.305588 23.471905c0 10.402023 2.410492 18.264465 7.23143 23.587334c4.83374 5.3100357 11.451355 7.9650574 19.85286 7.9650574c8.414291 0 15.415543 -2.2830582 21.003754 -6.8491745l-5.0830994 -9.100174c-4.629135 3.3861084 -9.32222 5.0791626 -14.079224 5.0791626c-4.757019 0 -8.395111 -1.8533859 -10.914276 -5.5601425c-2.5063934 -3.7067642 -3.7595825 -8.9077835 -3.7595825 -15.60305c0 -13.480309 4.757019 -20.220463 14.271042 -20.220463c1.6496124 0 3.2352905 0.25651932 4.757019 0.7695694c1.5345154 0.5130501 2.301773 1.8341484 2.301773 3.9632874l0 5.675583l10.837555 -0.82728577l0 -15.372173c-5.9590607 -3.2321968 -12.41684 -4.8482933 -19.373322 -4.8482933z" fill-rule="evenodd"/><defs><radialGradient id="p.4" gradientUnits="userSpaceOnUse" gradientTransform="matrix(20.382075724193832 0.0 0.0 20.382075724193832 0.0 0.0)" spreadMethod="pad" cx="22.678042504597666" cy="3.5038320120557813" fx="22.678042504597666" fy="3.5038320120557813" r="20.382076263427734"><stop offset="0.0" stop-color="#999999"/><stop offset="1.0" stop-color="#b3b3b3"/></radialGradient></defs><path fill="url(#p.4)" d="m240.78598 16.852816l0 9.812025l4.1240234 0.25010872c1.0997314 0.0769577 1.8669891 0.35271835 2.301773 0.8272896c0.43478394 0.4617424 0.6521759 1.3275089 0.6521759 2.5972996l0 57.56388c0 1.410881 -0.27493286 2.372841 -0.8247986 2.8858871c-0.549881 0.51304626 -1.4194336 0.8529358 -2.6086884 1.0196838l-3.8746643 0.34630585l0 8.984734l28.04335 0l0 -9.4657135l-6.7135315 -0.34630585l0 -28.608788c0 -3.3091545 1.118927 -6.1245003 3.356781 -8.446037c2.237854 -2.3215408 5.2237854 -3.4823074 8.957764 -3.4823074c3.7340088 0 6.2467957 1.1030502 7.53833 3.3091507c1.2915344 2.2061043 1.9373474 5.3549347 1.9373474 9.44648l0 24.35691c0 1.410881 -0.27493286 2.372841 -0.8248291 2.8858871c-0.5498657 0.51304626 -1.4130249 0.8529358 -2.589508 1.0196838l-3.8938293 0.34630585l0 8.984734l28.06253 0l0 -9.4657135l-6.7326965 -0.34630585l0 -30.859783c0 -6.8491783 -1.6304321 -11.986061 -4.8912964 -15.410652c-3.2608337 -3.437416 -7.8707886 -5.1561203 -13.8298645 -5.1561203c-7.391266 0 -13.126526 2.9179573 -17.20581 8.753864l0 -31.802504z" fill-rule="evenodd"/><defs><radialGradient id="p.5" gradientUnits="userSpaceOnUse" gradientTransform="matrix(20.382075724193832 0.0 0.0 20.382075724193832 0.0 0.0)" spreadMethod="pad" cx="22.678042504597666" cy="3.5038320120557813" fx="22.678042504597666" fy="3.5038320120557813" r="20.382076263427734"><stop offset="0.0" stop-color="#999999"/><stop offset="1.0" stop-color="#b3b3b3"/></radialGradient></defs><path fill="url(#p.5)" d="m341.55408 50.19446c3.8490906 0 6.8733826 0.51304626 9.072845 1.5391388l0 30.609669c0 2.6806793 -1.0997314 5.066345 -3.2991943 7.1570053c-2.1994934 2.0906677 -5.031952 3.1360016 -8.497437 3.1360016c-8.171295 0 -12.256958 -6.387436 -12.256958 -19.162308c0 -7.015915 1.1764526 -12.64661 3.5293884 -16.89207c2.3657227 -4.2582893 6.182831 -6.387436 11.451355 -6.387436zm1.7647095 -10.293007c-10.370819 0 -18.1521 2.9949112 -23.343903 8.984734c-5.179016 5.989826 -7.768524 14.346077 -7.768524 25.06876c0 8.901367 1.9245605 15.917282 5.773651 21.04776c3.8490906 5.1176453 9.782562 7.676468 17.800446 7.676468c6.8286133 0 12.205811 -2.8345947 16.131622 -8.503761l0.36447144 0.11544037l0 6.8491745l18.740326 0l0 -9.4657135l-3.7787476 -0.23087311c-1.099762 -0.0769577 -1.8670044 -0.35272217 -2.3017883 -0.82728577c-0.43478394 -0.47457123 -0.65216064 -1.340332 -0.65216064 -2.5973053l0 -43.980957c-7.301758 -2.7576256 -14.290222 -4.1364403 -20.965393 -4.1364403z" fill-rule="evenodd"/><defs><radialGradient id="p.6" gradientUnits="userSpaceOnUse" gradientTransform="matrix(20.382075724193832 0.0 0.0 20.382075724193832 0.0 0.0)" spreadMethod="pad" cx="22.678042504597666" cy="3.5038320120557813" fx="22.678042504597666" fy="3.5038320120557813" r="20.382076263427734"><stop offset="0.0" stop-color="#999999"/><stop offset="1.0" stop-color="#b3b3b3"/></radialGradient></defs><path fill="url(#p.6)" d="m406.95624 49.96359c4.7186584 0 7.0779724 2.3984985 7.0779724 7.195484c0 2.4497986 -1.2212219 4.5597076 -3.6636658 6.3297195c-2.429657 1.7700119 -5.0830994 2.9115372 -7.960327 3.424591c-2.864441 0.51303864 -6.0229797 0.80804443 -9.475647 0.88500214c0.23016357 -4.886772 1.5217285 -9.080933 3.8746643 -12.582478c2.3656921 -3.501545 5.748047 -5.2523193 10.147003 -5.2523193zm0.8247986 -10.062134c-9.194336 0 -16.34903 3.155239 -21.464111 9.465717c-5.1022644 6.2976494 -7.653412 14.095963 -7.653412 23.394943c0 9.298981 2.237854 16.609901 6.7135315 21.932762c4.4884644 5.3228607 11.521698 7.9842987 21.09967 7.9842987c4.7953796 0 9.060059 -0.7503357 12.794067 -2.2509995c3.7339783 -1.5006638 6.3874207 -2.9564285 7.960327 -4.3673096l-4.488495 -9.581154c-4.872101 3.463066 -9.744202 5.194603 -14.6163025 5.194603c-4.872101 0 -8.484619 -1.276207 -10.837555 -3.8286133c-2.3529358 -2.565239 -3.650879 -5.93853 -3.8938293 -10.119858c6.598419 0 12.531891 -0.7823944 17.800415 -2.3471909c3.1457825 -0.9491348 5.81839 -2.174034 8.017883 -3.6746979c2.1994934 -1.5006638 4.0408936 -3.5656815 5.5242615 -6.1950455c1.4961548 -2.642189 2.2442322 -5.701229 2.2442322 -9.177124c0 -5.194603 -1.7263184 -9.2284355 -5.1789856 -12.101498c-3.4526672 -2.885891 -8.126587 -4.3288345 -14.021698 -4.3288345z" fill-rule="evenodd"/><defs><radialGradient id="p.7" gradientUnits="userSpaceOnUse" gradientTransform="matrix(20.382075724193832 0.0 0.0 20.382075724193832 0.0 0.0)" spreadMethod="pad" cx="22.678042504597666" cy="3.5038320120557813" fx="22.678042504597666" fy="3.5038320120557813" r="20.382076263427734"><stop offset="0.0" stop-color="#999999"/><stop offset="1.0" stop-color="#b3b3b3"/></radialGradient></defs><path fill="url(#p.7)" d="m435.24307 16.852816l0 9.812025l4.1240234 0.25010872c1.9565125 0.1539154 2.934784 1.0966396 2.934784 2.8281727l0 58.27573c0 2.2830582 -1.138092 3.5464325 -3.4143066 3.7901382l-3.8938599 0.34630585l0 8.984734l28.062561 0l0 -9.4657135l-6.7135315 -0.34630585l0 -74.4752z" fill-rule="evenodd"/><defs><radialGradient id="p.8" gradientUnits="userSpaceOnUse" gradientTransform="matrix(20.382075724193832 0.0 0.0 20.382075724193832 0.0 0.0)" spreadMethod="pad" cx="22.678042504597666" cy="3.5038320120557813" fx="22.678042504597666" fy="3.5038320120557813" r="20.382076263427734"><stop offset="0.0" stop-color="#999999"/><stop offset="1.0" stop-color="#b3b3b3"/></radialGradient></defs><path fill="url(#p.8)" d="m528.80493 33.283146c4.3222046 0 7.838867 0.910656 10.549805 2.7319756c2.7109985 1.8084908 4.737854 4.2903557 6.0805664 7.445595c2.3529053 5.746128 3.529419 12.050198 3.529419 18.912197c0 7.6444054 -1.3363037 14.102383 -4.008972 19.373943c-2.902771 5.9898224 -7.966736 8.984734 -15.191711 8.984734c-13.516602 0 -20.274872 -9.767128 -20.274872 -29.3014c0 -5.0535164 0.5882263 -9.58757 1.764679 -13.602161c1.1764526 -4.014595 3.3120117 -7.4391823 6.406616 -10.273766c3.1074219 -2.847412 6.8222656 -4.271118 11.14447 -4.271118zm1.956543 -12.159214c-9.309448 0 -17.461609 3.03339 -24.456451 9.100172c-3.4526672 2.9884968 -6.240387 7.221136 -8.363129 12.697916c-2.1227722 5.476776 -3.184143 11.838562 -3.184143 19.08535c0 13.249435 3.024292 23.343636 9.072845 30.2826c6.048584 6.926132 14.392548 10.389206 25.03189 10.389206c10.6521 0 19.098389 -3.4887238 25.338745 -10.466164c6.253174 -6.9774323 9.379761 -17.257622 9.379761 -30.840542c0 -13.595745 -3.145752 -23.70277 -9.437317 -30.32108c-6.2787476 -6.618307 -14.072815 -9.92746 -23.382202 -9.92746z" fill-rule="evenodd"/><defs><radialGradient id="p.9" gradientUnits="userSpaceOnUse" gradientTransform="matrix(20.382075724193832 0.0 0.0 20.382075724193832 0.0 0.0)" spreadMethod="pad" cx="22.678042504597666" cy="3.5038320120557813" fx="22.678042504597666" fy="3.5038320120557813" r="20.382076263427734"><stop offset="0.0" stop-color="#999999"/><stop offset="1.0" stop-color="#b3b3b3"/></radialGradient></defs><path fill="url(#p.9)" d="m596.8727 39.901455c-6.5600586 0 -12.001221 1.6609879 -16.323486 4.9829674c-4.3222046 3.3091545 -6.4833374 8.016361 -6.4833374 14.12162c0 6.1052628 2.0012817 10.459747 6.003845 13.063461c2.0460205 1.2569656 3.913025 2.218933 5.601013 2.8858871c1.6879272 0.66696167 3.2608032 1.1992416 4.718628 1.5968628c1.4577637 0.3976059 2.9475708 0.7952118 4.4692993 1.192833c1.5344849 0.3847885 2.8516235 0.7759857 3.951355 1.1735916c1.0997925 0.39761353 2.218689 1.1479416 3.3568115 2.2509995c1.1380615 1.1030502 1.7071533 2.52034 1.7071533 4.251877c0 4.8098145 -3.2992554 7.2147217 -9.897705 7.2147217c-6.5983887 0 -9.897644 -1.7379456 -9.897644 -5.2138367l0 -5.675583l-10.607361 0.82728577l0 16.430328c4.8720703 2.4498062 12.103516 3.6747055 21.694275 3.6747055c6.5984497 0 12.039612 -1.6738205 16.323486 -5.021454c4.2838745 -3.3476257 6.4257812 -7.9778748 6.4257812 -13.890747c0 -4.5789413 -1.3746948 -8.324181 -4.1240234 -11.235733c-1.0230103 -1.1800079 -2.53833 -2.2830582 -4.5460205 -3.3091507c-2.0076294 -1.0260925 -3.6828613 -1.7507706 -5.0255737 -2.174034c-1.329895 -0.43608856 -3.3695068 -1.0260925 -6.1188965 -1.7700119c-2.7493286 -0.7567444 -5.102234 -1.6481628 -7.058777 -2.6742592c-1.2659912 -0.7054405 -2.1930542 -1.5519714 -2.781311 -2.539585c-0.58825684 -0.9876137 -0.8823242 -2.3664284 -0.8823242 -4.1364403c0 -1.7700119 0.805603 -3.2642632 2.41687 -4.48275c1.611206 -1.2313118 3.7531738 -1.8469696 6.4257812 -1.8469696c2.6726074 0 4.9488525 0.35913467 6.8286133 1.0774002c1.8158569 0.7054405 2.723755 2.0393639 2.723755 4.001766l0 4.96373l10.607422 -0.82728577l0 -14.17934c-6.4450073 -3.155239 -12.947571 -4.7328568 -19.50763 -4.7328568z" fill-rule="evenodd"/><defs><radialGradient id="p.10" gradientUnits="userSpaceOnUse" gradientTransform="matrix(20.382075724193832 0.0 0.0 20.382075724193832 0.0 0.0)" spreadMethod="pad" cx="22.678042504597666" cy="3.5038320120557813" fx="22.678042504597666" fy="3.5038320120557813" r="20.382076263427734"><stop offset="0.0" stop-color="#999999"/><stop offset="1.0" stop-color="#b3b3b3"/></radialGradient></defs><path fill="url(#p.10)" d="m654.9148 50.19446c3.529419 0 6.668762 0.4745674 9.418152 1.4237022l0 25.41507c0 3.5400238 -1.1572876 6.355377 -3.4718628 8.446037c-2.3145752 2.09066 -5.159851 3.1360016 -8.535767 3.1360016c-8.171326 0 -12.257019 -6.227104 -12.257019 -18.681328c0 -6.06678 1.2723999 -10.870182 3.8171387 -14.41021c2.5575562 -3.5528526 6.234009 -5.329273 11.029358 -5.329273zm1.2851562 -10.293007c-9.271057 0 -16.694275 2.6614304 -22.269714 7.984295c-5.5754395 5.3228645 -8.363159 13.1468315 -8.363159 23.4719c0 7.246788 1.6879883 13.55085 5.063965 18.912193c1.7263184 2.6806793 4.1431885 4.809822 7.2506104 6.387436c3.1073608 1.5648041 6.7006836 2.3471909 10.779968 2.3471909c6.6879883 0 11.911743 -2.2060928 15.671326 -6.6183014l0 6.5028687c0 5.515251 -1.0230103 9.786369 -3.0690308 12.813347c-2.0332642 3.0398102 -5.562683 4.5597076 -10.588196 4.5597076c-3.4655151 0 -6.1828613 -0.3719635 -8.152161 -1.1158752c-1.956543 -0.7439194 -2.9347534 -2.1804428 -2.9347534 -4.309593l0 -5.675583l-11.202026 0.9427185l0 16.430336c5.1917725 2.603714 12.384888 3.905571 21.579224 3.905571c9.194275 0 15.952576 -2.052185 20.274841 -6.156563c4.3222046 -4.0915527 6.834961 -10.511047 7.53833 -19.258507c0.15344238 -1.8982697 0.23016357 -6.1950455 0.23016357 -12.890305l0 -43.846287c-6.8286133 -2.9243698 -14.098389 -4.386551 -21.809387 -4.386551z" fill-rule="evenodd"/><defs><radialGradient id="p.11" gradientUnits="userSpaceOnUse" gradientTransform="matrix(20.382075724193832 0.0 0.0 20.382075724193832 0.0 0.0)" spreadMethod="pad" cx="22.678042504597666" cy="3.5038320120557813" fx="22.678042504597666" fy="3.5038320120557813" r="20.382076263427734"><stop offset="0.0" stop-color="#999999"/><stop offset="1.0" stop-color="#b3b3b3"/></radialGradient></defs><path fill="url(#p.11)" d="m716.8392 50.309895c4.5267944 0 7.7493286 1.8149033 9.66748 5.4447136c1.9309082 3.6169815 2.8964233 8.933426 2.8964233 15.949348c0 13.865097 -4.2838745 20.797646 -12.851624 20.797646c-2.6726074 0 -4.9104614 -0.628479 -6.713562 -1.8854446c-4.092041 -2.8345947 -6.1380615 -9.805618 -6.1380615 -20.913086c0 -5.9898186 1.0613403 -10.716267 3.184143 -14.179337c2.1227417 -3.475895 5.441162 -5.2138405 9.9552 -5.2138405zm0.65216064 -10.40844c-6.751892 0 -12.921936 2.1291466 -18.510132 6.387436c-2.902832 2.2830582 -5.217407 5.572975 -6.9437256 9.86974c-1.7263184 4.296768 -2.5895386 9.363106 -2.5895386 15.19902c0 10.402023 2.3145752 18.264465 6.9437256 23.587341c4.6419067 5.3100357 11.067749 7.9650497 19.277405 7.9650497c8.209717 0 14.942444 -2.7961044 20.19812 -8.388313c5.2685547 -5.5922165 7.902832 -13.826614 7.902832 -24.703217c0 -5.207428 -0.6522217 -9.722248 -1.956543 -13.544445c-1.291565 -3.8222008 -2.8580322 -6.7337418 -4.699463 -8.734627c-1.8414307 -2.01371 -4.392578 -3.7901344 -7.6534424 -5.329273c-3.2608643 -1.5391426 -7.2506104 -2.308712 -11.969238 -2.308712z" fill-rule="evenodd"/><defs><radialGradient id="p.12" gradientUnits="userSpaceOnUse" gradientTransform="matrix(20.382075724193832 0.0 0.0 20.382075724193832 0.0 0.0)" spreadMethod="pad" cx="22.678042504597666" cy="3.5038320120557813" fx="22.678042504597666" fy="3.5038320120557813" r="20.382076263427734"><stop offset="0.0" stop-color="#999999"/><stop offset="1.0" stop-color="#b3b3b3"/></radialGradient></defs><path fill="url(#p.12)" d="m779.0646 50.309895c4.5268555 0 7.7493286 1.8149033 9.66748 5.4447136c1.9309082 3.6169815 2.8964233 8.933426 2.8964233 15.949348c0 13.865097 -4.2838745 20.797646 -12.851624 20.797646c-2.6726074 0 -4.9104614 -0.628479 -6.713562 -1.8854446c-4.092041 -2.8345947 -6.1380615 -9.805618 -6.1380615 -20.913086c0 -5.9898186 1.0614014 -10.716267 3.184143 -14.179337c2.1227417 -3.475895 5.441162 -5.2138405 9.9552 -5.2138405zm0.65216064 -10.40844c-6.751892 0 -12.921936 2.1291466 -18.510132 6.387436c-2.902832 2.2830582 -5.217407 5.572975 -6.9437256 9.86974c-1.7263184 4.296768 -2.5894775 9.363106 -2.5894775 15.19902c0 10.402023 2.3145752 18.264465 6.9436646 23.587341c4.641968 5.3100357 11.067749 7.9650497 19.277405 7.9650497c8.209717 0 14.942444 -2.7961044 20.198181 -8.388313c5.2684937 -5.5922165 7.902771 -13.826614 7.902771 -24.703217c0 -5.207428 -0.65216064 -9.722248 -1.956543 -13.544445c-1.291565 -3.8222008 -2.8580322 -6.7337418 -4.699463 -8.734627c-1.8414307 -2.01371 -4.392578 -3.7901344 -7.6534424 -5.329273c-3.2608032 -1.5391426 -7.2506104 -2.308712 -11.969238 -2.308712z" fill-rule="evenodd"/><defs><radialGradient id="p.13" gradientUnits="userSpaceOnUse" gradientTransform="matrix(20.382075724193832 0.0 0.0 20.382075724193832 0.0 0.0)" spreadMethod="pad" cx="22.678042504597666" cy="3.5038320120557813" fx="22.678042504597666" fy="3.5038320120557813" r="20.382076263427734"><stop offset="0.0" stop-color="#999999"/><stop offset="1.0" stop-color="#b3b3b3"/></radialGradient></defs><path fill="url(#p.13)" d="m844.1864 50.19446c3.145752 0 6.131653 0.6284828 8.957764 1.8854446l0 30.62891c0 2.667839 -1.0614014 4.931656 -3.184143 6.791458c-2.1227417 1.8469696 -4.795349 2.7704544 -8.017883 2.7704544c-8.490967 0 -12.736511 -6.6183014 -12.736511 -19.85492c0 -6.4643936 1.1956787 -11.780842 3.586975 -15.949348c2.4040527 -4.1813316 6.2020264 -6.2719994 11.393799 -6.2719994zm0.82476807 -33.341644l0 9.350283l5.063965 0.34630585c2.0460205 0.1539135 3.0690308 1.1030502 3.0690308 2.847412l0 11.928345c-3.0690308 -0.94913864 -6.291565 -1.423706 -9.66748 -1.423706c-9.040894 0 -16.093323 3.0782814 -21.157227 9.234844c-5.063904 6.143738 -7.595886 14.339664 -7.595886 24.587784c0 7.8752747 1.6496582 14.532059 4.9488525 19.970352c3.6061401 5.98983 9.891235 8.984741 18.855408 8.984741c7.1483154 0 12.487183 -2.8794785 16.01654 -8.638435l0.36450195 0.13467407l0 6.964615l19.085571 0l0 -9.4657135l-4.1240234 -0.23087311c-1.8797607 0 -2.8580322 -0.90424347 -2.9347534 -2.712738l0 -71.87789z" fill-rule="evenodd"/><path stroke="#000000" stroke-width="1.0" stroke-linejoin="round" stroke-linecap="butt" d="m53.640846 22.528399l0 10.042894l7.193062 0.48098373l-3.1841278 54.966576c-0.16622925 1.9752274 -1.1508904 3.0398026 -2.9539528 3.193718l-4.239113 0.34630585l0 9.581154l27.813183 0l0 -10.042892l-7.6534195 -0.36554718l2.3401413 -43.846283l0.24936676 0l17.915527 46.693695l11.182816 0l18.145706 -47.17468l0.24935913 0l2.2250595 41.72997c0.08950043 1.8982697 -0.927124 2.9243622 -3.0498657 3.0782776l-4.239113 0.34630585l0 9.581154l28.388634 0l0 -10.042892l-7.3081512 -0.36554718l-2.9347687 -54.13929c-0.07673645 -2.5139313 1.0613861 -3.892746 3.4143066 -4.1364403l3.8938446 -0.34630966l0 -9.581152l-23.343895 0l-20.159767 53.427437l-0.23017883 0l-20.02549 -53.427437z" fill-rule="evenodd"/><path stroke="#000000" stroke-width="1.0" stroke-linejoin="round" stroke-linecap="butt" d="m163.2266 16.391073c-2.6598358 0 -4.81456 0.8465271 -6.464157 2.5395832c-1.6496124 1.6930542 -2.4744263 3.8029594 -2.4744263 6.3297176c0 2.5139313 0.82481384 4.578945 2.4744263 6.1950417c1.6495972 1.6160984 3.8043213 2.4241467 6.464157 2.4241467c2.6726227 0 4.8529205 -0.80804825 6.5408936 -2.4241467c1.7007751 -1.6160965 2.5511475 -3.6811104 2.5511475 -6.1950417c0 -2.5267582 -0.8503723 -4.6366634 -2.5511475 -6.3297176c-1.687973 -1.6930561 -3.8682709 -2.5395832 -6.5408936 -2.5395832zm-12.717331 25.299631l0 9.812027l4.1240234 0.2308693c1.0997314 0 1.8669891 0.2372818 2.301773 0.711853c0.43478394 0.47457123 0.6521759 1.3788147 0.6521759 2.712738l0 32.86066c0 2.2830582 -1.138092 3.5464325 -3.4143066 3.7901382l-3.8938446 0.34630585l0 8.984734l28.043365 0l0 -9.4657135l-6.7135315 -0.34630585l0 -49.637306z" fill-rule="evenodd"/><path stroke="#000000" stroke-width="1.0" stroke-linejoin="round" stroke-linecap="butt" d="m212.20894 39.901455c-6.956497 0 -13.203278 2.6229515 -18.740341 7.8688583c-5.5370636 5.245907 -8.305588 13.069878 -8.305588 23.471905c0 10.402023 2.410492 18.264465 7.23143 23.587334c4.83374 5.3100357 11.451355 7.9650574 19.85286 7.9650574c8.414291 0 15.415543 -2.2830582 21.003754 -6.8491745l-5.0830994 -9.100174c-4.629135 3.3861084 -9.32222 5.0791626 -14.079224 5.0791626c-4.757019 0 -8.395111 -1.8533859 -10.914276 -5.5601425c-2.5063934 -3.7067642 -3.7595825 -8.9077835 -3.7595825 -15.60305c0 -13.480309 4.757019 -20.220463 14.271042 -20.220463c1.6496124 0 3.2352905 0.25651932 4.757019 0.7695694c1.5345154 0.5130501 2.301773 1.8341484 2.301773 3.9632874l0 5.675583l10.837555 -0.82728577l0 -15.372173c-5.9590607 -3.2321968 -12.41684 -4.8482933 -19.373322 -4.8482933z" fill-rule="evenodd"/><path stroke="#000000" stroke-width="1.0" stroke-linejoin="round" stroke-linecap="butt" d="m240.78598 16.852816l0 9.812025l4.1240234 0.25010872c1.0997314 0.0769577 1.8669891 0.35271835 2.301773 0.8272896c0.43478394 0.4617424 0.6521759 1.3275089 0.6521759 2.5972996l0 57.56388c0 1.410881 -0.27493286 2.372841 -0.8247986 2.8858871c-0.549881 0.51304626 -1.4194336 0.8529358 -2.6086884 1.0196838l-3.8746643 0.34630585l0 8.984734l28.04335 0l0 -9.4657135l-6.7135315 -0.34630585l0 -28.608788c0 -3.3091545 1.118927 -6.1245003 3.356781 -8.446037c2.237854 -2.3215408 5.2237854 -3.4823074 8.957764 -3.4823074c3.7340088 0 6.2467957 1.1030502 7.53833 3.3091507c1.2915344 2.2061043 1.9373474 5.3549347 1.9373474 9.44648l0 24.35691c0 1.410881 -0.27493286 2.372841 -0.8248291 2.8858871c-0.5498657 0.51304626 -1.4130249 0.8529358 -2.589508 1.0196838l-3.8938293 0.34630585l0 8.984734l28.06253 0l0 -9.4657135l-6.7326965 -0.34630585l0 -30.859783c0 -6.8491783 -1.6304321 -11.986061 -4.8912964 -15.410652c-3.2608337 -3.437416 -7.8707886 -5.1561203 -13.8298645 -5.1561203c-7.391266 0 -13.126526 2.9179573 -17.20581 8.753864l0 -31.802504z" fill-rule="evenodd"/><path stroke="#000000" stroke-width="1.0" stroke-linejoin="round" stroke-linecap="butt" d="m341.55408 50.19446c3.8490906 0 6.8733826 0.51304626 9.072845 1.5391388l0 30.609669c0 2.6806793 -1.0997314 5.066345 -3.2991943 7.1570053c-2.1994934 2.0906677 -5.031952 3.1360016 -8.497437 3.1360016c-8.171295 0 -12.256958 -6.387436 -12.256958 -19.162308c0 -7.015915 1.1764526 -12.64661 3.5293884 -16.89207c2.3657227 -4.2582893 6.182831 -6.387436 11.451355 -6.387436zm1.7647095 -10.293007c-10.370819 0 -18.1521 2.9949112 -23.343903 8.984734c-5.179016 5.989826 -7.768524 14.346077 -7.768524 25.06876c0 8.901367 1.9245605 15.917282 5.773651 21.04776c3.8490906 5.1176453 9.782562 7.676468 17.800446 7.676468c6.8286133 0 12.205811 -2.8345947 16.131622 -8.503761l0.36447144 0.11544037l0 6.8491745l18.740326 0l0 -9.4657135l-3.7787476 -0.23087311c-1.099762 -0.0769577 -1.8670044 -0.35272217 -2.3017883 -0.82728577c-0.43478394 -0.47457123 -0.65216064 -1.340332 -0.65216064 -2.5973053l0 -43.980957c-7.301758 -2.7576256 -14.290222 -4.1364403 -20.965393 -4.1364403z" fill-rule="evenodd"/><path stroke="#000000" stroke-width="1.0" stroke-linejoin="round" stroke-linecap="butt" d="m406.95624 49.96359c4.7186584 0 7.0779724 2.3984985 7.0779724 7.195484c0 2.4497986 -1.2212219 4.5597076 -3.6636658 6.3297195c-2.429657 1.7700119 -5.0830994 2.9115372 -7.960327 3.424591c-2.864441 0.51303864 -6.0229797 0.80804443 -9.475647 0.88500214c0.23016357 -4.886772 1.5217285 -9.080933 3.8746643 -12.582478c2.3656921 -3.501545 5.748047 -5.2523193 10.147003 -5.2523193zm0.8247986 -10.062134c-9.194336 0 -16.34903 3.155239 -21.464111 9.465717c-5.1022644 6.2976494 -7.653412 14.095963 -7.653412 23.394943c0 9.298981 2.237854 16.609901 6.7135315 21.932762c4.4884644 5.3228607 11.521698 7.9842987 21.09967 7.9842987c4.7953796 0 9.060059 -0.7503357 12.794067 -2.2509995c3.7339783 -1.5006638 6.3874207 -2.9564285 7.960327 -4.3673096l-4.488495 -9.581154c-4.872101 3.463066 -9.744202 5.194603 -14.6163025 5.194603c-4.872101 0 -8.484619 -1.276207 -10.837555 -3.8286133c-2.3529358 -2.565239 -3.650879 -5.93853 -3.8938293 -10.119858c6.598419 0 12.531891 -0.7823944 17.800415 -2.3471909c3.1457825 -0.9491348 5.81839 -2.174034 8.017883 -3.6746979c2.1994934 -1.5006638 4.0408936 -3.5656815 5.5242615 -6.1950455c1.4961548 -2.642189 2.2442322 -5.701229 2.2442322 -9.177124c0 -5.194603 -1.7263184 -9.2284355 -5.1789856 -12.101498c-3.4526672 -2.885891 -8.126587 -4.3288345 -14.021698 -4.3288345z" fill-rule="evenodd"/><path stroke="#000000" stroke-width="1.0" stroke-linejoin="round" stroke-linecap="butt" d="m435.24307 16.852816l0 9.812025l4.1240234 0.25010872c1.9565125 0.1539154 2.934784 1.0966396 2.934784 2.8281727l0 58.27573c0 2.2830582 -1.138092 3.5464325 -3.4143066 3.7901382l-3.8938599 0.34630585l0 8.984734l28.062561 0l0 -9.4657135l-6.7135315 -0.34630585l0 -74.4752z" fill-rule="evenodd"/><path stroke="#000000" stroke-width="1.0" stroke-linejoin="round" stroke-linecap="butt" d="m528.80493 33.283146c4.3222046 0 7.838867 0.910656 10.549805 2.7319756c2.7109985 1.8084908 4.737854 4.2903557 6.0805664 7.445595c2.3529053 5.746128 3.529419 12.050198 3.529419 18.912197c0 7.6444054 -1.3363037 14.102383 -4.008972 19.373943c-2.902771 5.9898224 -7.966736 8.984734 -15.191711 8.984734c-13.516602 0 -20.274872 -9.767128 -20.274872 -29.3014c0 -5.0535164 0.5882263 -9.58757 1.764679 -13.602161c1.1764526 -4.014595 3.3120117 -7.4391823 6.406616 -10.273766c3.1074219 -2.847412 6.8222656 -4.271118 11.14447 -4.271118zm1.956543 -12.159214c-9.309448 0 -17.461609 3.03339 -24.456451 9.100172c-3.4526672 2.9884968 -6.240387 7.221136 -8.363129 12.697916c-2.1227722 5.476776 -3.184143 11.838562 -3.184143 19.08535c0 13.249435 3.024292 23.343636 9.072845 30.2826c6.048584 6.926132 14.392548 10.389206 25.03189 10.389206c10.6521 0 19.098389 -3.4887238 25.338745 -10.466164c6.253174 -6.9774323 9.379761 -17.257622 9.379761 -30.840542c0 -13.595745 -3.145752 -23.70277 -9.437317 -30.32108c-6.2787476 -6.618307 -14.072815 -9.92746 -23.382202 -9.92746z" fill-rule="evenodd"/><path stroke="#000000" stroke-width="1.0" stroke-linejoin="round" stroke-linecap="butt" d="m596.8727 39.901455c-6.5600586 0 -12.001221 1.6609879 -16.323486 4.9829674c-4.3222046 3.3091545 -6.4833374 8.016361 -6.4833374 14.12162c0 6.1052628 2.0012817 10.459747 6.003845 13.063461c2.0460205 1.2569656 3.913025 2.218933 5.601013 2.8858871c1.6879272 0.66696167 3.2608032 1.1992416 4.718628 1.5968628c1.4577637 0.3976059 2.9475708 0.7952118 4.4692993 1.192833c1.5344849 0.3847885 2.8516235 0.7759857 3.951355 1.1735916c1.0997925 0.39761353 2.218689 1.1479416 3.3568115 2.2509995c1.1380615 1.1030502 1.7071533 2.52034 1.7071533 4.251877c0 4.8098145 -3.2992554 7.2147217 -9.897705 7.2147217c-6.5983887 0 -9.897644 -1.7379456 -9.897644 -5.2138367l0 -5.675583l-10.607361 0.82728577l0 16.430328c4.8720703 2.4498062 12.103516 3.6747055 21.694275 3.6747055c6.5984497 0 12.039612 -1.6738205 16.323486 -5.021454c4.2838745 -3.3476257 6.4257812 -7.9778748 6.4257812 -13.890747c0 -4.5789413 -1.3746948 -8.324181 -4.1240234 -11.235733c-1.0230103 -1.1800079 -2.53833 -2.2830582 -4.5460205 -3.3091507c-2.0076294 -1.0260925 -3.6828613 -1.7507706 -5.0255737 -2.174034c-1.329895 -0.43608856 -3.3695068 -1.0260925 -6.1188965 -1.7700119c-2.7493286 -0.7567444 -5.102234 -1.6481628 -7.058777 -2.6742592c-1.2659912 -0.7054405 -2.1930542 -1.5519714 -2.781311 -2.539585c-0.58825684 -0.9876137 -0.8823242 -2.3664284 -0.8823242 -4.1364403c0 -1.7700119 0.805603 -3.2642632 2.41687 -4.48275c1.611206 -1.2313118 3.7531738 -1.8469696 6.4257812 -1.8469696c2.6726074 0 4.9488525 0.35913467 6.8286133 1.0774002c1.8158569 0.7054405 2.723755 2.0393639 2.723755 4.001766l0 4.96373l10.607422 -0.82728577l0 -14.17934c-6.4450073 -3.155239 -12.947571 -4.7328568 -19.50763 -4.7328568z" fill-rule="evenodd"/><path stroke="#000000" stroke-width="1.0" stroke-linejoin="round" stroke-linecap="butt" d="m654.9148 50.19446c3.529419 0 6.668762 0.4745674 9.418152 1.4237022l0 25.41507c0 3.5400238 -1.1572876 6.355377 -3.4718628 8.446037c-2.3145752 2.09066 -5.159851 3.1360016 -8.535767 3.1360016c-8.171326 0 -12.257019 -6.227104 -12.257019 -18.681328c0 -6.06678 1.2723999 -10.870182 3.8171387 -14.41021c2.5575562 -3.5528526 6.234009 -5.329273 11.029358 -5.329273zm1.2851562 -10.293007c-9.271057 0 -16.694275 2.6614304 -22.269714 7.984295c-5.5754395 5.3228645 -8.363159 13.1468315 -8.363159 23.4719c0 7.246788 1.6879883 13.55085 5.063965 18.912193c1.7263184 2.6806793 4.1431885 4.809822 7.2506104 6.387436c3.1073608 1.5648041 6.7006836 2.3471909 10.779968 2.3471909c6.6879883 0 11.911743 -2.2060928 15.671326 -6.6183014l0 6.5028687c0 5.515251 -1.0230103 9.786369 -3.0690308 12.813347c-2.0332642 3.0398102 -5.562683 4.5597076 -10.588196 4.5597076c-3.4655151 0 -6.1828613 -0.3719635 -8.152161 -1.1158752c-1.956543 -0.7439194 -2.9347534 -2.1804428 -2.9347534 -4.309593l0 -5.675583l-11.202026 0.9427185l0 16.430336c5.1917725 2.603714 12.384888 3.905571 21.579224 3.905571c9.194275 0 15.952576 -2.052185 20.274841 -6.156563c4.3222046 -4.0915527 6.834961 -10.511047 7.53833 -19.258507c0.15344238 -1.8982697 0.23016357 -6.1950455 0.23016357 -12.890305l0 -43.846287c-6.8286133 -2.9243698 -14.098389 -4.386551 -21.809387 -4.386551z" fill-rule="evenodd"/><path stroke="#000000" stroke-width="1.0" stroke-linejoin="round" stroke-linecap="butt" d="m716.8392 50.309895c4.5267944 0 7.7493286 1.8149033 9.66748 5.4447136c1.9309082 3.6169815 2.8964233 8.933426 2.8964233 15.949348c0 13.865097 -4.2838745 20.797646 -12.851624 20.797646c-2.6726074 0 -4.9104614 -0.628479 -6.713562 -1.8854446c-4.092041 -2.8345947 -6.1380615 -9.805618 -6.1380615 -20.913086c0 -5.9898186 1.0613403 -10.716267 3.184143 -14.179337c2.1227417 -3.475895 5.441162 -5.2138405 9.9552 -5.2138405zm0.65216064 -10.40844c-6.751892 0 -12.921936 2.1291466 -18.510132 6.387436c-2.902832 2.2830582 -5.217407 5.572975 -6.9437256 9.86974c-1.7263184 4.296768 -2.5895386 9.363106 -2.5895386 15.19902c0 10.402023 2.3145752 18.264465 6.9437256 23.587341c4.6419067 5.3100357 11.067749 7.9650497 19.277405 7.9650497c8.209717 0 14.942444 -2.7961044 20.19812 -8.388313c5.2685547 -5.5922165 7.902832 -13.826614 7.902832 -24.703217c0 -5.207428 -0.6522217 -9.722248 -1.956543 -13.544445c-1.291565 -3.8222008 -2.8580322 -6.7337418 -4.699463 -8.734627c-1.8414307 -2.01371 -4.392578 -3.7901344 -7.6534424 -5.329273c-3.2608643 -1.5391426 -7.2506104 -2.308712 -11.969238 -2.308712z" fill-rule="evenodd"/><path stroke="#000000" stroke-width="1.0" stroke-linejoin="round" stroke-linecap="butt" d="m779.0646 50.309895c4.5268555 0 7.7493286 1.8149033 9.66748 5.4447136c1.9309082 3.6169815 2.8964233 8.933426 2.8964233 15.949348c0 13.865097 -4.2838745 20.797646 -12.851624 20.797646c-2.6726074 0 -4.9104614 -0.628479 -6.713562 -1.8854446c-4.092041 -2.8345947 -6.1380615 -9.805618 -6.1380615 -20.913086c0 -5.9898186 1.0614014 -10.716267 3.184143 -14.179337c2.1227417 -3.475895 5.441162 -5.2138405 9.9552 -5.2138405zm0.65216064 -10.40844c-6.751892 0 -12.921936 2.1291466 -18.510132 6.387436c-2.902832 2.2830582 -5.217407 5.572975 -6.9437256 9.86974c-1.7263184 4.296768 -2.5894775 9.363106 -2.5894775 15.19902c0 10.402023 2.3145752 18.264465 6.9436646 23.587341c4.641968 5.3100357 11.067749 7.9650497 19.277405 7.9650497c8.209717 0 14.942444 -2.7961044 20.198181 -8.388313c5.2684937 -5.5922165 7.902771 -13.826614 7.902771 -24.703217c0 -5.207428 -0.65216064 -9.722248 -1.956543 -13.544445c-1.291565 -3.8222008 -2.8580322 -6.7337418 -4.699463 -8.734627c-1.8414307 -2.01371 -4.392578 -3.7901344 -7.6534424 -5.329273c-3.2608032 -1.5391426 -7.2506104 -2.308712 -11.969238 -2.308712z" fill-rule="evenodd"/><path stroke="#000000" stroke-width="1.0" stroke-linejoin="round" stroke-linecap="butt" d="m844.1864 50.19446c3.145752 0 6.131653 0.6284828 8.957764 1.8854446l0 30.62891c0 2.667839 -1.0614014 4.931656 -3.184143 6.791458c-2.1227417 1.8469696 -4.795349 2.7704544 -8.017883 2.7704544c-8.490967 0 -12.736511 -6.6183014 -12.736511 -19.85492c0 -6.4643936 1.1956787 -11.780842 3.586975 -15.949348c2.4040527 -4.1813316 6.2020264 -6.2719994 11.393799 -6.2719994zm0.82476807 -33.341644l0 9.350283l5.063965 0.34630585c2.0460205 0.1539135 3.0690308 1.1030502 3.0690308 2.847412l0 11.928345c-3.0690308 -0.94913864 -6.291565 -1.423706 -9.66748 -1.423706c-9.040894 0 -16.093323 3.0782814 -21.157227 9.234844c-5.063904 6.143738 -7.595886 14.339664 -7.595886 24.587784c0 7.8752747 1.6496582 14.532059 4.9488525 19.970352c3.6061401 5.98983 9.891235 8.984741 18.855408 8.984741c7.1483154 0 12.487183 -2.8794785 16.01654 -8.638435l0.36450195 0.13467407l0 6.964615l19.085571 0l0 -9.4657135l-4.1240234 -0.23087311c-1.8797607 0 -2.8580322 -0.90424347 -2.9347534 -2.712738l0 -71.87789z" fill-rule="evenodd"/><path fill="#cccccc" d="m101.843124 141.14868c7.192833 0 10.78923 4.313263 10.78923 12.939804c0 4.4262238 -0.885582 7.802353 -2.6567764 10.128403c-1.7712021 2.3260498 -4.241844 3.48909 -7.411972 3.48909l-5.646782 0l0 -26.557297zm-14.823929 -5.4579926l0 4.780319l3.1521072 0.17399597l0 26.163513c0 0.93408203 -0.5343399 1.4591217 -1.6030731 1.575119l-1.8282242 0.1648407l0 4.5605316l15.71553 0c4.719162 0 8.666794 -1.5018616 11.842934 -4.5055847c1.5850601 -1.495758 2.8368988 -3.5653992 3.755516 -6.208908c0.92463684 -2.6496277 1.3869324 -5.7540894 1.3869324 -9.31337c0 -5.7388153 -1.5220184 -10.070404 -4.566063 -12.994766c-3.0440369 -2.9304504 -7.2768707 -4.395691 -12.698509 -4.395691z" fill-rule="evenodd"/><path fill="#cccccc" d="m136.98248 148.74956c2.2154846 0 3.323227 1.1416626 3.323227 3.4249725c0 1.1660767 -0.5733948 2.1703796 -1.7201385 3.0128784c-1.1407776 0.84251404 -2.386612 1.3858643 -3.7375183 1.6300659c-1.3448792 0.24421692 -2.8278809 0.3846283 -4.4489746 0.42126465c0.108078 -2.3260498 0.7144623 -4.3224335 1.8192139 -5.9891357c1.110733 -1.6667023 2.6987915 -2.5000458 4.7641907 -2.5000458zm0.38726807 -4.7894745c-4.3168793 0 -7.676132 1.5018616 -10.077751 4.5055847c-2.395607 2.9976196 -3.5934067 6.7095337 -3.5934067 11.135757c0 4.4262085 1.0507126 7.906128 3.1521072 10.439758c2.1074142 2.5336304 5.40963 3.8004456 9.906639 3.8004456c2.2515106 0 4.253845 -0.35716248 6.007019 -1.0714569c1.7531891 -0.71429443 2.9990082 -1.4072266 3.737503 -2.0787964l-2.1074066 -4.5605316c-2.2875366 1.6483917 -4.575058 2.47258 -6.8625946 2.47258c-2.2875366 0 -3.9836578 -0.60746765 -5.0884094 -1.8223724c-1.1047516 -1.2210388 -1.7141724 -2.8266754 -1.8282318 -4.8169556c3.0980835 0 5.8839417 -0.372406 8.357605 -1.1172333c1.4769897 -0.45178223 2.7318115 -1.0348206 3.7645264 -1.749115c1.0326996 -0.7143097 1.8972778 -1.6972351 2.5937347 -2.9487762c0.7024689 -1.2576599 1.0537109 -2.7137299 1.0537109 -4.368225c0 -2.4725647 -0.8105469 -4.392639 -2.4316406 -5.7601776c-1.6210785 -1.3736572 -3.815567 -2.0604858 -6.5834045 -2.0604858z" fill-rule="evenodd"/><path fill="#cccccc" d="m148.98479 144.81175l0 4.3865356l1.6120758 0.1098938c0.47433472 0.036621094 0.8135681 0.14956665 1.0176849 0.33883667c0.20414734 0.18925476 0.399292 0.546402 0.5853882 1.0714417l7.7451935 22.390549l8.465668 0l7.1417847 -22.445496c0.2581787 -0.83029175 0.7535095 -1.282074 1.4860077 -1.3553314l1.7201538 -0.1098938l0 -4.3865356l-11.671829 0l0 4.4964294l2.8729248 0.17399597l-5.529709 18.507675l-0.11706543 0l-5.700821 -18.507675l3.3772583 -0.17399597l0 -4.4964294z" fill-rule="evenodd"/><path fill="#cccccc" d="m194.63953 148.74956c2.2154846 0 3.323227 1.1416626 3.323227 3.4249725c0 1.1660767 -0.5733795 2.1703796 -1.7201538 3.0128784c-1.1407623 0.84251404 -2.3865967 1.3858643 -3.737503 1.6300659c-1.3449097 0.24421692 -2.827896 0.3846283 -4.44899 0.42126465c0.108078 -2.3260498 0.7144928 -4.3224335 1.8192291 -5.9891357c1.1107483 -1.6667023 2.698822 -2.5000458 4.7641907 -2.5000458zm0.3872528 -4.7894745c-4.3168945 0 -7.6761475 1.5018616 -10.077744 4.5055847c-2.3956146 2.9976196 -3.5934143 6.7095337 -3.5934143 11.135757c0 4.4262085 1.050705 7.906128 3.1521149 10.439758c2.1074066 2.5336304 5.409622 3.8004456 9.906631 3.8004456c2.2515106 0 4.2538605 -0.35716248 6.0070343 -1.0714569c1.7531586 -0.71429443 2.9990082 -1.4072266 3.737503 -2.0787964l-2.1074219 -4.5605316c-2.2875214 1.6483917 -4.575058 2.47258 -6.8625946 2.47258c-2.2875366 0 -3.983673 -0.60746765 -5.0884094 -1.8223724c-1.1047363 -1.2210388 -1.7141266 -2.8266754 -1.8282166 -4.8169556c3.0980682 0 5.8839417 -0.372406 8.35759 -1.1172333c1.4769897 -0.45178223 2.731842 -1.0348206 3.7645264 -1.749115c1.0326843 -0.7143097 1.8972626 -1.6972351 2.5937347 -2.9487762c0.7024689 -1.2576599 1.0537109 -2.7137299 1.0537109 -4.368225c0 -2.4725647 -0.8105469 -4.392639 -2.4316254 -5.7601776c-1.6210938 -1.3736572 -3.8155518 -2.0604858 -6.58342 -2.0604858z" fill-rule="evenodd"/><path fill="#cccccc" d="m207.92067 132.98918l0 4.67041l1.9362946 0.11906433c0.9186096 0.07325745 1.3779144 0.5219879 1.3779144 1.3461761l0 27.738632c0 1.0867157 -0.5343628 1.6880646 -1.6030731 1.8040619l-1.8282166 0.1648407l0 4.276642l13.175827 0l0 -4.5055847l-3.1521149 -0.1648407l0 -35.4494z" fill-rule="evenodd"/><path fill="#cccccc" d="m237.27054 148.9144c2.1254272 0 3.6384277 0.86387634 4.539032 2.591629c0.90660095 1.7216339 1.3599243 4.2522125 1.3599243 7.5917206c0 6.59964 -2.0113678 9.89946 -6.0340576 9.89946c-1.254837 0 -2.305542 -0.29914856 -3.1520996 -0.89746094c-1.9212952 -1.3492279 -2.8819427 -4.6673584 -2.8819427 -9.954407c0 -2.8510895 0.49835205 -5.10083 1.4950104 -6.7492065c0.9966583 -1.6544952 2.5547028 -2.4817352 4.6741333 -2.4817352zm0.30619812 -4.954315c-3.1701202 0 -6.0670624 1.0134583 -8.690826 3.0403595c-1.362915 1.0867157 -2.4496307 2.6526794 -3.2601776 4.697891c-0.8105469 2.0452118 -1.2158203 4.4567413 -1.2158203 7.2345734c0 4.951248 1.086731 8.693695 3.2601929 11.227325c2.1794586 2.5275269 5.196472 3.791275 9.051056 3.791275c3.8545837 0 7.0157013 -1.3309174 9.483353 -3.992752c2.4736633 -2.6618195 3.710495 -6.581314 3.710495 -11.758469c0 -2.4786835 -0.30621338 -4.6276855 -0.9186249 -6.447006c-0.60639954 -1.8193359 -1.3418884 -3.205185 -2.2064667 -4.157593c-0.86457825 -0.9584961 -2.0623932 -1.8040619 -3.5934143 -2.5366821c-1.5310211 -0.732605 -3.4042816 -1.0989227 -5.619766 -1.0989227z" fill-rule="evenodd"/><path fill="#cccccc" d="m268.67484 149.41808c3.7225037 0 5.58374 3.1319275 5.58374 9.395782c0 2.777832 -0.50735474 5.103882 -1.5220032 6.9781494c-1.0086975 1.8742828 -2.5187073 2.8114166 -4.53006 2.8114166c-2.0113525 0 -3.7194824 -0.46704102 -5.12442 -1.401123l0 -12.939819c0 -1.3125916 0.5433655 -2.4481506 1.6300964 -3.406662c1.0927429 -0.9584961 2.4136047 -1.4377441 3.9626465 -1.4377441zm2.4316406 -5.4579926c-2.1374512 0 -3.9806824 0.47009277 -5.529724 1.4102936c-1.5490112 0.94018555 -2.6177368 1.9719543 -3.2061462 3.0952911l0 -3.6539154l-9.357254 0l0 4.5513763l2.3235474 0.17399597c0.5163574 0 0.8766022 0.12210083 1.0807343 0.3663025c0.20413208 0.24420166 0.30621338 0.68377686 0.30621338 1.3187103l0 27.234955c0 0.6715698 -0.12911987 1.1294556 -0.38726807 1.3736572c-0.2581787 0.24420166 -0.6634369 0.40293884 -1.2158203 0.4761963l-1.8282318 0.17399597l0 4.276642l14.274582 0l0 -4.450638l-4.485016 -0.2197876l0 -7.7657166c1.7351685 1.0867157 3.7104797 1.6300659 5.9259644 1.6300659c3.7225037 0 6.6705017 -1.3492279 8.843933 -4.047699c2.1794434 -2.7045593 3.2691956 -6.5874176 3.2691956 -11.648575c0 -9.53009 -3.3382263 -14.295151 -10.014709 -14.295151z" fill-rule="evenodd"/><path fill="#cccccc" d="m298.55496 148.74956c2.2154846 0 3.3232117 1.1416626 3.3232117 3.4249725c0 1.1660767 -0.57336426 2.1703796 -1.7201538 3.0128784c-1.1407471 0.84251404 -2.3865967 1.3858643 -3.7374878 1.6300659c-1.3449097 0.24421692 -2.8279114 0.3846283 -4.4489746 0.42126465c0.108062744 -2.3260498 0.71447754 -4.3224335 1.8192139 -5.9891357c1.1107483 -1.6667023 2.698822 -2.5000458 4.7641907 -2.5000458zm0.38726807 -4.7894745c-4.3168945 0 -7.6761475 1.5018616 -10.077759 4.5055847c-2.3955994 2.9976196 -3.5934143 6.7095337 -3.5934143 11.135757c0 4.4262085 1.0506897 7.906128 3.1520996 10.439758c2.1074219 2.5336304 5.4096375 3.8004456 9.906647 3.8004456c2.2515259 0 4.2538757 -0.35716248 6.007019 -1.0714569c1.7531738 -0.71429443 2.9990234 -1.4072266 3.7375183 -2.0787964l-2.1074219 -4.5605316c-2.2875366 1.6483917 -4.5750732 2.47258 -6.8625793 2.47258c-2.2875366 0 -3.983673 -0.60746765 -5.0884094 -1.8223724c-1.1047363 -1.2210388 -1.7141418 -2.8266754 -1.8282471 -4.8169556c3.0980835 0 5.883972 -0.372406 8.357605 -1.1172333c1.4769897 -0.45178223 2.731842 -1.0348206 3.7645264 -1.749115c1.0326843 -0.7143097 1.8972778 -1.6972351 2.59375 -2.9487762c0.7024536 -1.2576599 1.0536804 -2.7137299 1.0536804 -4.368225c0 -2.4725647 -0.81051636 -4.392639 -2.43161 -5.7601776c-1.6210938 -1.3736572 -3.8155518 -2.0604858 -6.5834045 -2.0604858z" fill-rule="evenodd"/><path fill="#cccccc" d="m328.8485 143.96008c-1.8252258 0 -3.4403076 0.4792633 -4.8452454 1.4377594c-1.3989258 0.95851135 -2.4316406 2.167328 -3.0980835 3.6264496l0 -4.2125397l-9.348267 0l0 4.5513763l2.323578 0.17399597c0.5163574 0.036621094 0.8765869 0.17704773 1.080719 0.4212494c0.20413208 0.24420166 0.30621338 0.66545105 0.30621338 1.2637634l0 15.58638c0 0.6715698 -0.12908936 1.1294556 -0.38726807 1.3736572c-0.2581787 0.24420166 -0.66345215 0.4059906 -1.2158203 0.48535156l-1.8282166 0.1648407l0 4.276642l14.823914 0l0 -4.4414825l-4.809204 -0.22894287l0 -13.049698c0 -1.6544952 0.46832275 -3.0159302 1.4049377 -4.0843353c0.94262695 -1.0683899 2.1524353 -1.6025848 3.629425 -1.6025848c0.5884094 0 1.086731 0.09461975 1.4949951 0.2838745c0.36627197 0.18927002 0.54937744 0.65631104 0.54937744 1.4011383l0 2.5916138l5.1514587 -0.3937683l0 -8.379288c-1.6631165 -0.830307 -3.4072876 -1.2454529 -5.2325134 -1.2454529z" fill-rule="evenodd"/><path fill="#cccccc" d="m361.32724 148.9144c2.1253967 0 3.6384277 0.86387634 4.539032 2.591629c0.9066162 1.7216339 1.3598938 4.2522125 1.3598938 7.5917206c0 6.59964 -2.011322 9.89946 -6.034027 9.89946c-1.2548523 0 -2.305542 -0.29914856 -3.1520996 -0.89746094c-1.9212952 -1.3492279 -2.881958 -4.6673584 -2.881958 -9.954407c0 -2.8510895 0.49835205 -5.10083 1.4950256 -6.7492065c0.9966736 -1.6544952 2.554718 -2.4817352 4.6741333 -2.4817352zm0.30618286 -4.954315c-3.170105 0 -6.067047 1.0134583 -8.690826 3.0403595c-1.3628845 1.0867157 -2.4496155 2.6526794 -3.2601624 4.697891c-0.8105469 2.0452118 -1.2158203 4.4567413 -1.2158203 7.2345734c0 4.951248 1.086731 8.693695 3.2601929 11.227325c2.1794434 2.5275269 5.196472 3.791275 9.051056 3.791275c3.8545837 0 7.015686 -1.3309174 9.483337 -3.992752c2.4736633 -2.6618195 3.7105103 -6.581314 3.7105103 -11.758469c0 -2.4786835 -0.30621338 -4.6276855 -0.91864014 -6.447006c-0.6063843 -1.8193359 -1.3418884 -3.205185 -2.2064514 -4.157593c-0.8645935 -0.9584961 -2.0624084 -1.8040619 -3.5934143 -2.5366821c-1.5310364 -0.732605 -3.4042969 -1.0989227 -5.6197815 -1.0989227z" fill-rule="evenodd"/><path fill="#cccccc" d="m390.46204 132.43056c-2.9900208 0 -5.2595215 0.76924133 -6.808563 2.3077393c-1.6571045 1.6117554 -2.4856567 4.2552795 -2.4856567 7.9305573l0 2.1428986l-4.764221 0l0 4.7253723l4.764221 0l0 17.271393c0 0.6715698 -0.12908936 1.1294556 -0.38726807 1.3736572c-0.2581787 0.24420166 -0.66345215 0.4059906 -1.2158203 0.48535156l-1.8282166 0.1648407l0 4.276642l14.661804 0l0 -4.5055847l-4.6470947 -0.2197876l0 -18.846512l8.186462 0l0 -4.7253723l-8.186462 0l0 -2.646576c0 -1.575119 0.29418945 -2.7472992 0.88256836 -3.5165405c0.5944214 -0.7692566 1.6661377 -1.1538696 3.2151794 -1.1538696c1.5490417 0 3.209137 0.46704102 4.980316 1.401123l1.6030884 -4.4964294c-2.3235474 -1.3126068 -4.9803467 -1.9689026 -7.970337 -1.9689026z" fill-rule="evenodd"/><path fill="#cccccc" d="m407.6733 135.69069l0 4.780319l3.1520996 0.17399597l7.6371155 32.464005l7.799225 0l5.6467896 -25.037125l0.16210938 0l5.808899 25.037125l7.583069 0l6.9706726 -30.659943c0.2581787 -1.2759705 0.8675842 -1.9536285 1.8282166 -2.0330048l1.8282471 -0.1648407l0 -4.5605316l-12.455353 0l0 4.780319l2.9899902 0.22894287l-4.7011414 23.516937l-0.108062744 0l-5.980011 -25.540787l-7.1417847 0l-5.7548523 25.430893l-0.216156 0l-4.8182373 -21.72203c-0.036010742 -0.18315125 -0.054016113 -0.3510437 -0.054016113 -0.50367737c0 -0.8608093 0.57336426 -1.3492279 1.7201538 -1.4652252l1.8192139 -0.1648407l0 -4.5605316z" fill-rule="evenodd"/><path fill="#cccccc" d="m471.69214 148.74956c2.2154846 0 3.3232117 1.1416626 3.3232117 3.4249725c0 1.1660767 -0.57336426 2.1703796 -1.7201538 3.0128784c-1.1407471 0.84251404 -2.3865967 1.3858643 -3.7374878 1.6300659c-1.3449097 0.24421692 -2.8279114 0.3846283 -4.449005 0.42126465c0.10809326 -2.3260498 0.71447754 -4.3224335 1.8192444 -5.9891357c1.1107178 -1.6667023 2.6987915 -2.5000458 4.7641907 -2.5000458zm0.38723755 -4.7894745c-4.3168945 0 -7.676117 1.5018616 -10.077728 4.5055847c-2.39563 2.9976196 -3.5934143 6.7095337 -3.5934143 11.135757c0 4.4262085 1.0506897 7.906128 3.1520996 10.439758c2.1074219 2.5336304 5.4096375 3.8004456 9.906647 3.8004456c2.2514954 0 4.253845 -0.35716248 6.007019 -1.0714569c1.7531738 -0.71429443 2.9990234 -1.4072266 3.7375183 -2.0787964l-2.1074219 -4.5605316c-2.2875366 1.6483917 -4.5750732 2.47258 -6.86261 2.47258c-2.2875366 0 -3.983673 -0.60746765 -5.0884094 -1.8223724c-1.1047363 -1.2210388 -1.7141418 -2.8266754 -1.8282166 -4.8169556c3.0980835 0 5.8839417 -0.372406 8.357605 -1.1172333c1.4769897 -0.45178223 2.731842 -1.0348206 3.7645264 -1.749115c1.0326843 -0.7143097 1.8972778 -1.6972351 2.5937195 -2.9487762c0.70248413 -1.2576599 1.0537109 -2.7137299 1.0537109 -4.368225c0 -2.4725647 -0.8105469 -4.392639 -2.43161 -5.7601776c-1.6210938 -1.3736572 -3.8155823 -2.0604858 -6.583435 -2.0604858z" fill-rule="evenodd"/><path fill="#cccccc" d="m498.80655 148.96935c4.130768 0 6.196167 3.1716156 6.196167 9.514832c0 6.935425 -2.1044312 10.403137 -6.3132324 10.403137c-1.8432312 0 -3.464325 -0.37547302 -4.8632812 -1.1264038l0 -14.56987c0 -1.2393494 0.49835205 -2.2527924 1.4950256 -3.0403595c0.99664307 -0.7875519 2.1584473 -1.1813354 3.485321 -1.1813354zm-14.7248535 -15.980164l0 4.67041l1.9362793 0.11906433c0.9246216 0.036621094 1.3869324 0.48535156 1.3869324 1.3461761l0 32.299164c1.1828003 0.67155457 2.8338928 1.2423859 4.9533386 1.7124786c2.1194153 0.47010803 4.1397705 0.7051544 6.061035 0.7051544c8.928009 0 13.391998 -5.421356 13.391998 -16.264053c0 -4.3102264 -1.014679 -7.655838 -3.0440674 -10.036835c-2.029358 -2.3871002 -4.7792053 -3.580658 -8.249512 -3.580658c-2.803894 0 -5.034363 0.78756714 -6.691498 2.3626862l0 -13.333588z" fill-rule="evenodd"/><path fill="#cccccc" d="m543.0159 141.99118l4.9803467 16.03511l-10.293884 0l5.151428 -16.03511zm-8.852905 -6.3004913l0 4.5605316l3.4852905 0.33883667l-8.906921 26.21846c-0.33624268 0.9768219 -0.89160156 1.5018616 -1.6661377 1.575119l-1.8192139 0.1648407l0 4.5605316l12.779541 0l0 -4.780319l-3.3231812 -0.17399597l1.6660767 -4.9451447l12.941711 0l1.1617432 3.4890747c0.18615723 0.5983124 0.16815186 1.0104065 -0.054016113 1.2362823c-0.22216797 0.22589111 -0.6454468 0.37547302 -1.2698364 0.44873047l-2.1074219 0.1648407l0 4.5605316l14.283569 0l0 -4.780319l-3.1611328 -0.17399597l-0.054016113 0l-11.284607 -32.464005z" fill-rule="evenodd"/><path fill="#cccccc" d="m578.4847 149.41808c3.7224731 0 5.58374 3.1319275 5.58374 9.395782c0 2.777832 -0.50738525 5.103882 -1.5220337 6.9781494c-1.008667 1.8742828 -2.5186768 2.8114166 -4.5300293 2.8114166c-2.0113525 0 -3.7194824 -0.46704102 -5.1244507 -1.401123l0 -12.939819c0 -1.3125916 0.543396 -2.4481506 1.630127 -3.406662c1.0927124 -0.9584961 2.4135742 -1.4377441 3.9626465 -1.4377441zm2.4315796 -5.4579926c-2.1373901 0 -3.9806519 0.47009277 -5.529663 1.4102936c-1.5490723 0.94018555 -2.6177979 1.9719543 -3.2061768 3.0952911l0 -3.6539154l-9.357239 0l0 4.5513763l2.3235474 0.17399597c0.5163574 0 0.8765869 0.12210083 1.0806885 0.3663025c0.2041626 0.24420166 0.30621338 0.68377686 0.30621338 1.3187103l0 27.234955c0 0.6715698 -0.12908936 1.1294556 -0.38726807 1.3736572c-0.25811768 0.24420166 -0.6633911 0.40293884 -1.2157593 0.4761963l-1.8282471 0.17399597l0 4.276642l14.274536 0l0 -4.450638l-4.4849854 -0.2197876l0 -7.7657166c1.7351685 1.0867157 3.7105103 1.6300659 5.9259644 1.6300659c3.7224731 0 6.670471 -1.3492279 8.843933 -4.047699c2.1794434 -2.7045593 3.269165 -6.5874176 3.269165 -11.648575c0 -9.53009 -3.3381958 -14.295151 -10.014709 -14.295151z" fill-rule="evenodd"/><path fill="#cccccc" d="m609.9138 149.41808c3.7224731 0 5.58374 3.1319275 5.58374 9.395782c0 2.777832 -0.5073242 5.103882 -1.5220337 6.9781494c-1.008667 1.8742828 -2.5186768 2.8114166 -4.5300293 2.8114166c-2.0113525 0 -3.7194824 -0.46704102 -5.1244507 -1.401123l0 -12.939819c0 -1.3125916 0.543396 -2.4481506 1.630127 -3.406662c1.0927124 -0.9584961 2.4136353 -1.4377441 3.9626465 -1.4377441zm2.4316406 -5.4579926c-2.1374512 0 -3.980713 0.47009277 -5.529724 1.4102936c-1.5490112 0.94018555 -2.6177368 1.9719543 -3.2061157 3.0952911l0 -3.6539154l-9.3573 0l0 4.5513763l2.3235474 0.17399597c0.5163574 0 0.8765869 0.12210083 1.0807495 0.3663025c0.20410156 0.24420166 0.30621338 0.68377686 0.30621338 1.3187103l0 27.234955c0 0.6715698 -0.12908936 1.1294556 -0.38726807 1.3736572c-0.2581787 0.24420166 -0.66345215 0.40293884 -1.2158203 0.4761963l-1.8282471 0.17399597l0 4.276642l14.274597 0l0 -4.450638l-4.4850464 -0.2197876l0 -7.7657166c1.7351685 1.0867157 3.7105103 1.6300659 5.9260254 1.6300659c3.7224731 0 6.670471 -1.3492279 8.843872 -4.047699c2.1795044 -2.7045593 3.269226 -6.5874176 3.269226 -11.648575c0 -9.53009 -3.3382568 -14.295151 -10.014709 -14.295151z" fill-rule="evenodd"/><path fill="#cccccc" d="m626.2939 132.98918l0 4.67041l1.9362793 0.11906433c0.91864014 0.07325745 1.3779297 0.5219879 1.3779297 1.3461761l0 27.738632c0 1.0867157 -0.5343628 1.6880646 -1.6030273 1.8040619l-1.8282471 0.1648407l0 4.276642l13.175842 0l0 -4.5055847l-3.1521606 -0.1648407l0 -35.4494z" fill-rule="evenodd"/><path fill="#cccccc" d="m648.8622 132.7694c-1.2487793 0 -2.260498 0.40293884 -3.0350342 1.2088165c-0.7744751 0.8058777 -1.1617432 1.8101654 -1.1617432 3.0128784c0 1.1966095 0.38726807 2.179535 1.1617432 2.9487762c0.77453613 0.76924133 1.7862549 1.1538696 3.0350342 1.1538696c1.2548828 0 2.2785645 -0.3846283 3.071106 -1.1538696c0.79852295 -0.76924133 1.1977539 -1.7521667 1.1977539 -2.9487762c0 -1.202713 -0.39923096 -2.2070007 -1.1977539 -3.0128784c-0.7925415 -0.8058777 -1.8162231 -1.2088165 -3.071106 -1.2088165zm-5.9710083 12.042358l0 4.6704254l1.9363403 0.1098938c0.5163574 0 0.8765869 0.11294556 1.0806885 0.3388214c0.2041626 0.22589111 0.30621338 0.65631104 0.30621338 1.2912445l0 15.641327c0 1.0867157 -0.5343628 1.6880646 -1.6030884 1.8040619l-1.828186 0.1648407l0 4.276642l13.166809 0l0 -4.5055847l-3.1520996 -0.1648407l0 -23.626831z" fill-rule="evenodd"/><path fill="#cccccc" d="m671.8602 143.96008c-3.2662354 0 -6.1991577 1.2485046 -8.79895 3.7454987c-2.5997314 2.496994 -3.8995972 6.2211304 -3.8995972 11.172379c0 4.951248 1.1317749 8.693695 3.3952637 11.227325c2.2695312 2.5275269 5.376648 3.791275 9.321289 3.791275c3.9506226 0 7.237854 -1.0867004 9.861572 -3.2601318l-2.3865967 -4.3315887c-2.173462 1.6117554 -4.376892 2.417633 -6.6104126 2.417633c-2.2335205 0 -3.9416504 -0.8821869 -5.1244507 -2.646576c-1.1767578 -1.7643738 -1.7651978 -4.2400055 -1.7651978 -7.42688c0 -6.4164886 2.2335205 -9.624725 6.7005005 -9.624725c0.77453613 0 1.519043 0.12210083 2.2335205 0.3663025c0.720459 0.24420166 1.0806885 0.8730316 1.0806885 1.8864899l0 2.7015076l5.08844 -0.3937683l0 -7.3170013c-2.7978516 -1.5384827 -5.829895 -2.3077393 -9.096069 -2.3077393z" fill-rule="evenodd"/><path fill="#cccccc" d="m699.39 148.85945c1.807251 0 3.2271729 0.24420166 4.2598877 0.73262024l0 14.56987c0 1.2759705 -0.5163574 2.4115295 -1.5490723 3.406662c-1.0326538 0.99513245 -2.3625488 1.4927063 -3.989685 1.4927063c-3.8365479 0 -5.754822 -3.0403595 -5.754822 -9.121063c0 -3.3394928 0.55236816 -6.0196533 1.6571045 -8.040451c1.1107788 -2.026886 2.902954 -3.0403442 5.376587 -3.0403442zm0.82855225 -4.8993683c-4.8692627 0 -8.522705 1.4255524 -10.960327 4.276642c-2.4316406 2.8510895 -3.647461 6.828583 -3.647461 11.932465c0 4.2369537 0.9036255 7.576462 2.7108154 10.018509c1.807251 2.4359436 4.5930786 3.6539307 8.357605 3.6539307c3.2061768 0 5.730835 -1.3492432 7.5740967 -4.047699l0.17108154 0.0549469l0 3.2601318l8.79895 0l0 -4.5055847l-1.774231 -0.1098938c-0.5163574 -0.036636353 -0.8765869 -0.16789246 -1.0806885 -0.39378357c-0.2041626 -0.22587585 -0.30621338 -0.6379852 -0.30621338 -1.2362823l0 -20.934479c-3.4282837 -1.3125916 -6.7095337 -1.9689026 -9.843628 -1.9689026z" fill-rule="evenodd"/><path fill="#cccccc" d="m722.7395 138.84094c-0.73846436 2.0269012 -1.552063 3.5959167 -2.4406128 4.7070465c-0.8826294 1.1050262 -2.1914673 1.7308044 -3.9266357 1.8773346l-0.54937744 4.111801l3.9266357 0l0 15.0186c0 1.1233368 0.018005371 1.9780579 0.054016113 2.564148c0.036010742 0.58000183 0.20117188 1.376709 0.49536133 2.3901672c0.3001709 1.013443 0.72650146 1.7826843 1.2788696 2.3077393c0.55236816 0.5250397 1.3989258 1.001236 2.5396729 1.4285889c1.1467896 0.43347168 2.548706 0.65019226 4.2058105 0.65019226c2.8399048 0 5.1845093 -0.6562958 7.0337524 -1.9689026l-1.6661377 -4.3315735c-1.2548828 0.7875519 -2.5006714 1.1813354 -3.7374878 1.1813354c-1.230835 0 -2.1434326 -0.32662964 -2.737854 -0.97987366c-0.5883789 -0.65934753 -0.88256836 -1.8132172 -0.88256836 -3.461609l0 -14.798813l6.8085327 0l0.54937744 -4.7253723l-7.35791 0l0 -5.97081z" fill-rule="evenodd"/><path fill="#cccccc" d="m743.53705 132.7694c-1.2488403 0 -2.260498 0.40293884 -3.0350342 1.2088165c-0.77453613 0.8058777 -1.1618042 1.8101654 -1.1618042 3.0128784c0 1.1966095 0.38726807 2.179535 1.1618042 2.9487762c0.77453613 0.76924133 1.7861938 1.1538696 3.0350342 1.1538696c1.2548218 0 2.2785034 -0.3846283 3.071045 -1.1538696c0.79852295 -0.76924133 1.197815 -1.7521667 1.197815 -2.9487762c0 -1.202713 -0.399292 -2.2070007 -1.197815 -3.0128784c-0.7925415 -0.8058777 -1.8162231 -1.2088165 -3.071045 -1.2088165zm-5.9710083 12.042358l0 4.6704254l1.9362793 0.1098938c0.5163574 0 0.8765869 0.11294556 1.0807495 0.3388214c0.20410156 0.22589111 0.30621338 0.65631104 0.30621338 1.2912445l0 15.641327c0 1.0867157 -0.5343628 1.6880646 -1.6030884 1.8040619l-1.8282471 0.1648407l0 4.276642l13.16687 0l0 -4.5055847l-3.1521606 -0.1648407l0 -23.626831z" fill-rule="evenodd"/><path fill="#cccccc" d="m766.6972 148.9144c2.1254272 0 3.6384277 0.86387634 4.5390015 2.591629c0.9066162 1.7216339 1.3599243 4.2522125 1.3599243 7.5917206c0 6.59964 -2.0113525 9.89946 -6.0340576 9.89946c-1.2548218 0 -2.305542 -0.29914856 -3.1520996 -0.89746094c-1.9212646 -1.3492279 -2.881897 -4.6673584 -2.881897 -9.954407c0 -2.8510895 0.49829102 -5.10083 1.4949951 -6.7492065c0.99664307 -1.6544952 2.5546875 -2.4817352 4.6741333 -2.4817352zm0.30621338 -4.954315c-3.170166 0 -6.0670776 1.0134583 -8.690857 3.0403595c-1.362915 1.0867157 -2.449646 2.6526794 -3.2601929 4.697891c-0.8105469 2.0452118 -1.2158203 4.4567413 -1.2158203 7.2345734c0 4.951248 1.086731 8.693695 3.2601929 11.227325c2.1795044 2.5275269 5.196472 3.791275 9.051086 3.791275c3.8545532 0 7.015686 -1.3309174 9.483337 -3.992752c2.4736938 -2.6618195 3.7105103 -6.581314 3.7105103 -11.758469c0 -2.4786835 -0.30621338 -4.6276855 -0.91864014 -6.447006c-0.6063843 -1.8193359 -1.341919 -3.205185 -2.206482 -4.157593c-0.864563 -0.9584961 -2.062378 -1.8040619 -3.5933838 -2.5366821c-1.5310059 -0.732605 -3.4042969 -1.0989227 -5.619751 -1.0989227z" fill-rule="evenodd"/><path fill="#cccccc" d="m801.0375 143.96008c-1.8492432 0 -3.5664062 0.4059906 -5.151428 1.2179718c-1.585083 0.8058777 -2.8579102 1.9017487 -3.8186035 3.287613l0 -3.6539154l-9.348267 0l0 4.4964294l2.3236084 0.17399597c0.9246216 0.036621094 1.3869019 0.61660767 1.3869019 1.7399597l0 15.58638c0 0.6715698 -0.12908936 1.1294556 -0.38726807 1.3736572c-0.2581787 0.24420166 -0.6664429 0.4059906 -1.2247925 0.48535156l-1.8192139 0.1648407l0 4.276642l13.166809 0l0 -4.5055847l-3.1520996 -0.1648407l0 -13.617477c0 -1.5384979 0.5162964 -2.8694153 1.5490112 -3.992752c1.0327148 -1.1233368 2.4226074 -1.6850128 4.1698 -1.6850128c1.7531738 0 2.9419556 0.4975586 3.5664062 1.4927063c0.6304321 0.98902893 0.9456177 2.5153046 0.9456177 4.578842l0 11.593628c0 0.6715698 -0.12908936 1.1294556 -0.38726807 1.3736572c-0.2581787 0.24420166 -0.66345215 0.4059906 -1.2158203 0.48535156l-1.828186 0.1648407l0 4.276642l13.175781 0l0 -4.5055847l-3.1610718 -0.1648407l0 -14.688934c0 -3.2601318 -0.76556396 -5.7052307 -2.2965698 -7.3352966c-1.5310059 -1.6361847 -3.6954346 -2.4542694 -6.493347 -2.4542694z" fill-rule="evenodd"/><path fill="#cccccc" d="m827.843 143.96008c-3.0800781 0 -5.6347656 0.7906189 -7.6641235 2.3718414c-2.029358 1.575119 -3.0440674 3.8157043 -3.0440674 6.7217407c0 2.9060516 0.93963623 4.9787292 2.8189087 6.2180786c0.9606323 0.5982971 1.8372192 1.0561829 2.6297607 1.3736572c0.7925415 0.3174591 1.5310059 0.57081604 2.2155151 0.76008606c0.68444824 0.18925476 1.3839111 0.37850952 2.0983887 0.5677643c0.720459 0.1831665 1.3389282 0.3693695 1.8552246 0.55862427c0.5163574 0.18925476 1.041687 0.546402 1.5760498 1.0714569c0.5343628 0.5250397 0.8015747 1.199646 0.8015747 2.0238495c0 2.2894135 -1.5490723 3.4341278 -4.647156 3.4341278c-3.0980835 0 -4.6470947 -0.82724 -4.6470947 -2.4817352l0 -2.7015228l-4.9803467 0.39378357l0 7.8206635c2.2875366 1.1660919 5.6828003 1.7491302 10.185852 1.7491302c3.0980835 0 5.652771 -0.7967224 7.6641235 -2.3901672c2.0113525 -1.5934296 3.0170288 -3.7973785 3.0170288 -6.611847c0 -2.179535 -0.6454468 -3.9622192 -1.9363403 -5.3480835c-0.48028564 -0.561676 -1.1917725 -1.0867157 -2.1343994 -1.5751343c-0.94262695 -0.48840332 -1.729187 -0.8333435 -2.359558 -1.0348053c-0.6244507 -0.20758057 -1.5820312 -0.48841858 -2.8729248 -0.84251404c-1.2908936 -0.36019897 -2.39563 -0.7845001 -3.31427 -1.2729187c-0.59436035 -0.3357849 -1.0296631 -0.73872375 -1.3058472 -1.2088165c-0.27618408 -0.47009277 -0.41430664 -1.1263885 -0.41430664 -1.9689026c0 -0.8424988 0.3782959 -1.5537567 1.1347656 -2.1337433c0.75653076 -0.5860901 1.762207 -0.87913513 3.0170288 -0.87913513c1.2548218 0 2.3235474 0.17094421 3.2061768 0.51283264c0.85253906 0.3357849 1.2788696 0.9707184 1.2788696 1.9048004l0 2.3626862l4.9802856 -0.39378357l0 -6.749222c-3.026001 -1.5018616 -6.0790405 -2.2527924 -9.159119 -2.2527924z" fill-rule="evenodd"/><path stroke="#000000" stroke-width="1.0" stroke-linejoin="round" stroke-linecap="butt" d="m101.843124 141.14868c7.192833 0 10.78923 4.313263 10.78923 12.939804c0 4.4262238 -0.885582 7.802353 -2.6567764 10.128403c-1.7712021 2.3260498 -4.241844 3.48909 -7.411972 3.48909l-5.646782 0l0 -26.557297zm-14.823929 -5.4579926l0 4.780319l3.1521072 0.17399597l0 26.163513c0 0.93408203 -0.5343399 1.4591217 -1.6030731 1.575119l-1.8282242 0.1648407l0 4.5605316l15.71553 0c4.719162 0 8.666794 -1.5018616 11.842934 -4.5055847c1.5850601 -1.495758 2.8368988 -3.5653992 3.755516 -6.208908c0.92463684 -2.6496277 1.3869324 -5.7540894 1.3869324 -9.31337c0 -5.7388153 -1.5220184 -10.070404 -4.566063 -12.994766c-3.0440369 -2.9304504 -7.2768707 -4.395691 -12.698509 -4.395691z" fill-rule="evenodd"/><path stroke="#000000" stroke-width="1.0" stroke-linejoin="round" stroke-linecap="butt" d="m136.98248 148.74956c2.2154846 0 3.323227 1.1416626 3.323227 3.4249725c0 1.1660767 -0.5733948 2.1703796 -1.7201385 3.0128784c-1.1407776 0.84251404 -2.386612 1.3858643 -3.7375183 1.6300659c-1.3448792 0.24421692 -2.8278809 0.3846283 -4.4489746 0.42126465c0.108078 -2.3260498 0.7144623 -4.3224335 1.8192139 -5.9891357c1.110733 -1.6667023 2.6987915 -2.5000458 4.7641907 -2.5000458zm0.38726807 -4.7894745c-4.3168793 0 -7.676132 1.5018616 -10.077751 4.5055847c-2.395607 2.9976196 -3.5934067 6.7095337 -3.5934067 11.135757c0 4.4262085 1.0507126 7.906128 3.1521072 10.439758c2.1074142 2.5336304 5.40963 3.8004456 9.906639 3.8004456c2.2515106 0 4.253845 -0.35716248 6.007019 -1.0714569c1.7531891 -0.71429443 2.9990082 -1.4072266 3.737503 -2.0787964l-2.1074066 -4.5605316c-2.2875366 1.6483917 -4.575058 2.47258 -6.8625946 2.47258c-2.2875366 0 -3.9836578 -0.60746765 -5.0884094 -1.8223724c-1.1047516 -1.2210388 -1.7141724 -2.8266754 -1.8282318 -4.8169556c3.0980835 0 5.8839417 -0.372406 8.357605 -1.1172333c1.4769897 -0.45178223 2.7318115 -1.0348206 3.7645264 -1.749115c1.0326996 -0.7143097 1.8972778 -1.6972351 2.5937347 -2.9487762c0.7024689 -1.2576599 1.0537109 -2.7137299 1.0537109 -4.368225c0 -2.4725647 -0.8105469 -4.392639 -2.4316406 -5.7601776c-1.6210785 -1.3736572 -3.815567 -2.0604858 -6.5834045 -2.0604858z" fill-rule="evenodd"/><path stroke="#000000" stroke-width="1.0" stroke-linejoin="round" stroke-linecap="butt" d="m148.98479 144.81175l0 4.3865356l1.6120758 0.1098938c0.47433472 0.036621094 0.8135681 0.14956665 1.0176849 0.33883667c0.20414734 0.18925476 0.399292 0.546402 0.5853882 1.0714417l7.7451935 22.390549l8.465668 0l7.1417847 -22.445496c0.2581787 -0.83029175 0.7535095 -1.282074 1.4860077 -1.3553314l1.7201538 -0.1098938l0 -4.3865356l-11.671829 0l0 4.4964294l2.8729248 0.17399597l-5.529709 18.507675l-0.11706543 0l-5.700821 -18.507675l3.3772583 -0.17399597l0 -4.4964294z" fill-rule="evenodd"/><path stroke="#000000" stroke-width="1.0" stroke-linejoin="round" stroke-linecap="butt" d="m194.63953 148.74956c2.2154846 0 3.323227 1.1416626 3.323227 3.4249725c0 1.1660767 -0.5733795 2.1703796 -1.7201538 3.0128784c-1.1407623 0.84251404 -2.3865967 1.3858643 -3.737503 1.6300659c-1.3449097 0.24421692 -2.827896 0.3846283 -4.44899 0.42126465c0.108078 -2.3260498 0.7144928 -4.3224335 1.8192291 -5.9891357c1.1107483 -1.6667023 2.698822 -2.5000458 4.7641907 -2.5000458zm0.3872528 -4.7894745c-4.3168945 0 -7.6761475 1.5018616 -10.077744 4.5055847c-2.3956146 2.9976196 -3.5934143 6.7095337 -3.5934143 11.135757c0 4.4262085 1.050705 7.906128 3.1521149 10.439758c2.1074066 2.5336304 5.409622 3.8004456 9.906631 3.8004456c2.2515106 0 4.2538605 -0.35716248 6.0070343 -1.0714569c1.7531586 -0.71429443 2.9990082 -1.4072266 3.737503 -2.0787964l-2.1074219 -4.5605316c-2.2875214 1.6483917 -4.575058 2.47258 -6.8625946 2.47258c-2.2875366 0 -3.983673 -0.60746765 -5.0884094 -1.8223724c-1.1047363 -1.2210388 -1.7141266 -2.8266754 -1.8282166 -4.8169556c3.0980682 0 5.8839417 -0.372406 8.35759 -1.1172333c1.4769897 -0.45178223 2.731842 -1.0348206 3.7645264 -1.749115c1.0326843 -0.7143097 1.8972626 -1.6972351 2.5937347 -2.9487762c0.7024689 -1.2576599 1.0537109 -2.7137299 1.0537109 -4.368225c0 -2.4725647 -0.8105469 -4.392639 -2.4316254 -5.7601776c-1.6210938 -1.3736572 -3.8155518 -2.0604858 -6.58342 -2.0604858z" fill-rule="evenodd"/><path stroke="#000000" stroke-width="1.0" stroke-linejoin="round" stroke-linecap="butt" d="m207.92067 132.98918l0 4.67041l1.9362946 0.11906433c0.9186096 0.07325745 1.3779144 0.5219879 1.3779144 1.3461761l0 27.738632c0 1.0867157 -0.5343628 1.6880646 -1.6030731 1.8040619l-1.8282166 0.1648407l0 4.276642l13.175827 0l0 -4.5055847l-3.1521149 -0.1648407l0 -35.4494z" fill-rule="evenodd"/><path stroke="#000000" stroke-width="1.0" stroke-linejoin="round" stroke-linecap="butt" d="m237.27054 148.9144c2.1254272 0 3.6384277 0.86387634 4.539032 2.591629c0.90660095 1.7216339 1.3599243 4.2522125 1.3599243 7.5917206c0 6.59964 -2.0113678 9.89946 -6.0340576 9.89946c-1.254837 0 -2.305542 -0.29914856 -3.1520996 -0.89746094c-1.9212952 -1.3492279 -2.8819427 -4.6673584 -2.8819427 -9.954407c0 -2.8510895 0.49835205 -5.10083 1.4950104 -6.7492065c0.9966583 -1.6544952 2.5547028 -2.4817352 4.6741333 -2.4817352zm0.30619812 -4.954315c-3.1701202 0 -6.0670624 1.0134583 -8.690826 3.0403595c-1.362915 1.0867157 -2.4496307 2.6526794 -3.2601776 4.697891c-0.8105469 2.0452118 -1.2158203 4.4567413 -1.2158203 7.2345734c0 4.951248 1.086731 8.693695 3.2601929 11.227325c2.1794586 2.5275269 5.196472 3.791275 9.051056 3.791275c3.8545837 0 7.0157013 -1.3309174 9.483353 -3.992752c2.4736633 -2.6618195 3.710495 -6.581314 3.710495 -11.758469c0 -2.4786835 -0.30621338 -4.6276855 -0.9186249 -6.447006c-0.60639954 -1.8193359 -1.3418884 -3.205185 -2.2064667 -4.157593c-0.86457825 -0.9584961 -2.0623932 -1.8040619 -3.5934143 -2.5366821c-1.5310211 -0.732605 -3.4042816 -1.0989227 -5.619766 -1.0989227z" fill-rule="evenodd"/><path stroke="#000000" stroke-width="1.0" stroke-linejoin="round" stroke-linecap="butt" d="m268.67484 149.41808c3.7225037 0 5.58374 3.1319275 5.58374 9.395782c0 2.777832 -0.50735474 5.103882 -1.5220032 6.9781494c-1.0086975 1.8742828 -2.5187073 2.8114166 -4.53006 2.8114166c-2.0113525 0 -3.7194824 -0.46704102 -5.12442 -1.401123l0 -12.939819c0 -1.3125916 0.5433655 -2.4481506 1.6300964 -3.406662c1.0927429 -0.9584961 2.4136047 -1.4377441 3.9626465 -1.4377441zm2.4316406 -5.4579926c-2.1374512 0 -3.9806824 0.47009277 -5.529724 1.4102936c-1.5490112 0.94018555 -2.6177368 1.9719543 -3.2061462 3.0952911l0 -3.6539154l-9.357254 0l0 4.5513763l2.3235474 0.17399597c0.5163574 0 0.8766022 0.12210083 1.0807343 0.3663025c0.20413208 0.24420166 0.30621338 0.68377686 0.30621338 1.3187103l0 27.234955c0 0.6715698 -0.12911987 1.1294556 -0.38726807 1.3736572c-0.2581787 0.24420166 -0.6634369 0.40293884 -1.2158203 0.4761963l-1.8282318 0.17399597l0 4.276642l14.274582 0l0 -4.450638l-4.485016 -0.2197876l0 -7.7657166c1.7351685 1.0867157 3.7104797 1.6300659 5.9259644 1.6300659c3.7225037 0 6.6705017 -1.3492279 8.843933 -4.047699c2.1794434 -2.7045593 3.2691956 -6.5874176 3.2691956 -11.648575c0 -9.53009 -3.3382263 -14.295151 -10.014709 -14.295151z" fill-rule="evenodd"/><path stroke="#000000" stroke-width="1.0" stroke-linejoin="round" stroke-linecap="butt" d="m298.55496 148.74956c2.2154846 0 3.3232117 1.1416626 3.3232117 3.4249725c0 1.1660767 -0.57336426 2.1703796 -1.7201538 3.0128784c-1.1407471 0.84251404 -2.3865967 1.3858643 -3.7374878 1.6300659c-1.3449097 0.24421692 -2.8279114 0.3846283 -4.4489746 0.42126465c0.108062744 -2.3260498 0.71447754 -4.3224335 1.8192139 -5.9891357c1.1107483 -1.6667023 2.698822 -2.5000458 4.7641907 -2.5000458zm0.38726807 -4.7894745c-4.3168945 0 -7.6761475 1.5018616 -10.077759 4.5055847c-2.3955994 2.9976196 -3.5934143 6.7095337 -3.5934143 11.135757c0 4.4262085 1.0506897 7.906128 3.1520996 10.439758c2.1074219 2.5336304 5.4096375 3.8004456 9.906647 3.8004456c2.2515259 0 4.2538757 -0.35716248 6.007019 -1.0714569c1.7531738 -0.71429443 2.9990234 -1.4072266 3.7375183 -2.0787964l-2.1074219 -4.5605316c-2.2875366 1.6483917 -4.5750732 2.47258 -6.8625793 2.47258c-2.2875366 0 -3.983673 -0.60746765 -5.0884094 -1.8223724c-1.1047363 -1.2210388 -1.7141418 -2.8266754 -1.8282471 -4.8169556c3.0980835 0 5.883972 -0.372406 8.357605 -1.1172333c1.4769897 -0.45178223 2.731842 -1.0348206 3.7645264 -1.749115c1.0326843 -0.7143097 1.8972778 -1.6972351 2.59375 -2.9487762c0.7024536 -1.2576599 1.0536804 -2.7137299 1.0536804 -4.368225c0 -2.4725647 -0.81051636 -4.392639 -2.43161 -5.7601776c-1.6210938 -1.3736572 -3.8155518 -2.0604858 -6.5834045 -2.0604858z" fill-rule="evenodd"/><path stroke="#000000" stroke-width="1.0" stroke-linejoin="round" stroke-linecap="butt" d="m328.8485 143.96008c-1.8252258 0 -3.4403076 0.4792633 -4.8452454 1.4377594c-1.3989258 0.95851135 -2.4316406 2.167328 -3.0980835 3.6264496l0 -4.2125397l-9.348267 0l0 4.5513763l2.323578 0.17399597c0.5163574 0.036621094 0.8765869 0.17704773 1.080719 0.4212494c0.20413208 0.24420166 0.30621338 0.66545105 0.30621338 1.2637634l0 15.58638c0 0.6715698 -0.12908936 1.1294556 -0.38726807 1.3736572c-0.2581787 0.24420166 -0.66345215 0.4059906 -1.2158203 0.48535156l-1.8282166 0.1648407l0 4.276642l14.823914 0l0 -4.4414825l-4.809204 -0.22894287l0 -13.049698c0 -1.6544952 0.46832275 -3.0159302 1.4049377 -4.0843353c0.94262695 -1.0683899 2.1524353 -1.6025848 3.629425 -1.6025848c0.5884094 0 1.086731 0.09461975 1.4949951 0.2838745c0.36627197 0.18927002 0.54937744 0.65631104 0.54937744 1.4011383l0 2.5916138l5.1514587 -0.3937683l0 -8.379288c-1.6631165 -0.830307 -3.4072876 -1.2454529 -5.2325134 -1.2454529z" fill-rule="evenodd"/><path stroke="#000000" stroke-width="1.0" stroke-linejoin="round" stroke-linecap="butt" d="m361.32724 148.9144c2.1253967 0 3.6384277 0.86387634 4.539032 2.591629c0.9066162 1.7216339 1.3598938 4.2522125 1.3598938 7.5917206c0 6.59964 -2.011322 9.89946 -6.034027 9.89946c-1.2548523 0 -2.305542 -0.29914856 -3.1520996 -0.89746094c-1.9212952 -1.3492279 -2.881958 -4.6673584 -2.881958 -9.954407c0 -2.8510895 0.49835205 -5.10083 1.4950256 -6.7492065c0.9966736 -1.6544952 2.554718 -2.4817352 4.6741333 -2.4817352zm0.30618286 -4.954315c-3.170105 0 -6.067047 1.0134583 -8.690826 3.0403595c-1.3628845 1.0867157 -2.4496155 2.6526794 -3.2601624 4.697891c-0.8105469 2.0452118 -1.2158203 4.4567413 -1.2158203 7.2345734c0 4.951248 1.086731 8.693695 3.2601929 11.227325c2.1794434 2.5275269 5.196472 3.791275 9.051056 3.791275c3.8545837 0 7.015686 -1.3309174 9.483337 -3.992752c2.4736633 -2.6618195 3.7105103 -6.581314 3.7105103 -11.758469c0 -2.4786835 -0.30621338 -4.6276855 -0.91864014 -6.447006c-0.6063843 -1.8193359 -1.3418884 -3.205185 -2.2064514 -4.157593c-0.8645935 -0.9584961 -2.0624084 -1.8040619 -3.5934143 -2.5366821c-1.5310364 -0.732605 -3.4042969 -1.0989227 -5.6197815 -1.0989227z" fill-rule="evenodd"/><path stroke="#000000" stroke-width="1.0" stroke-linejoin="round" stroke-linecap="butt" d="m390.46204 132.43056c-2.9900208 0 -5.2595215 0.76924133 -6.808563 2.3077393c-1.6571045 1.6117554 -2.4856567 4.2552795 -2.4856567 7.9305573l0 2.1428986l-4.764221 0l0 4.7253723l4.764221 0l0 17.271393c0 0.6715698 -0.12908936 1.1294556 -0.38726807 1.3736572c-0.2581787 0.24420166 -0.66345215 0.4059906 -1.2158203 0.48535156l-1.8282166 0.1648407l0 4.276642l14.661804 0l0 -4.5055847l-4.6470947 -0.2197876l0 -18.846512l8.186462 0l0 -4.7253723l-8.186462 0l0 -2.646576c0 -1.575119 0.29418945 -2.7472992 0.88256836 -3.5165405c0.5944214 -0.7692566 1.6661377 -1.1538696 3.2151794 -1.1538696c1.5490417 0 3.209137 0.46704102 4.980316 1.401123l1.6030884 -4.4964294c-2.3235474 -1.3126068 -4.9803467 -1.9689026 -7.970337 -1.9689026z" fill-rule="evenodd"/><path stroke="#000000" stroke-width="1.0" stroke-linejoin="round" stroke-linecap="butt" d="m407.6733 135.69069l0 4.780319l3.1520996 0.17399597l7.6371155 32.464005l7.799225 0l5.6467896 -25.037125l0.16210938 0l5.808899 25.037125l7.583069 0l6.9706726 -30.659943c0.2581787 -1.2759705 0.8675842 -1.9536285 1.8282166 -2.0330048l1.8282471 -0.1648407l0 -4.5605316l-12.455353 0l0 4.780319l2.9899902 0.22894287l-4.7011414 23.516937l-0.108062744 0l-5.980011 -25.540787l-7.1417847 0l-5.7548523 25.430893l-0.216156 0l-4.8182373 -21.72203c-0.036010742 -0.18315125 -0.054016113 -0.3510437 -0.054016113 -0.50367737c0 -0.8608093 0.57336426 -1.3492279 1.7201538 -1.4652252l1.8192139 -0.1648407l0 -4.5605316z" fill-rule="evenodd"/><path stroke="#000000" stroke-width="1.0" stroke-linejoin="round" stroke-linecap="butt" d="m471.69214 148.74956c2.2154846 0 3.3232117 1.1416626 3.3232117 3.4249725c0 1.1660767 -0.57336426 2.1703796 -1.7201538 3.0128784c-1.1407471 0.84251404 -2.3865967 1.3858643 -3.7374878 1.6300659c-1.3449097 0.24421692 -2.8279114 0.3846283 -4.449005 0.42126465c0.10809326 -2.3260498 0.71447754 -4.3224335 1.8192444 -5.9891357c1.1107178 -1.6667023 2.6987915 -2.5000458 4.7641907 -2.5000458zm0.38723755 -4.7894745c-4.3168945 0 -7.676117 1.5018616 -10.077728 4.5055847c-2.39563 2.9976196 -3.5934143 6.7095337 -3.5934143 11.135757c0 4.4262085 1.0506897 7.906128 3.1520996 10.439758c2.1074219 2.5336304 5.4096375 3.8004456 9.906647 3.8004456c2.2514954 0 4.253845 -0.35716248 6.007019 -1.0714569c1.7531738 -0.71429443 2.9990234 -1.4072266 3.7375183 -2.0787964l-2.1074219 -4.5605316c-2.2875366 1.6483917 -4.5750732 2.47258 -6.86261 2.47258c-2.2875366 0 -3.983673 -0.60746765 -5.0884094 -1.8223724c-1.1047363 -1.2210388 -1.7141418 -2.8266754 -1.8282166 -4.8169556c3.0980835 0 5.8839417 -0.372406 8.357605 -1.1172333c1.4769897 -0.45178223 2.731842 -1.0348206 3.7645264 -1.749115c1.0326843 -0.7143097 1.8972778 -1.6972351 2.5937195 -2.9487762c0.70248413 -1.2576599 1.0537109 -2.7137299 1.0537109 -4.368225c0 -2.4725647 -0.8105469 -4.392639 -2.43161 -5.7601776c-1.6210938 -1.3736572 -3.8155823 -2.0604858 -6.583435 -2.0604858z" fill-rule="evenodd"/><path stroke="#000000" stroke-width="1.0" stroke-linejoin="round" stroke-linecap="butt" d="m498.80655 148.96935c4.130768 0 6.196167 3.1716156 6.196167 9.514832c0 6.935425 -2.1044312 10.403137 -6.3132324 10.403137c-1.8432312 0 -3.464325 -0.37547302 -4.8632812 -1.1264038l0 -14.56987c0 -1.2393494 0.49835205 -2.2527924 1.4950256 -3.0403595c0.99664307 -0.7875519 2.1584473 -1.1813354 3.485321 -1.1813354zm-14.7248535 -15.980164l0 4.67041l1.9362793 0.11906433c0.9246216 0.036621094 1.3869324 0.48535156 1.3869324 1.3461761l0 32.299164c1.1828003 0.67155457 2.8338928 1.2423859 4.9533386 1.7124786c2.1194153 0.47010803 4.1397705 0.7051544 6.061035 0.7051544c8.928009 0 13.391998 -5.421356 13.391998 -16.264053c0 -4.3102264 -1.014679 -7.655838 -3.0440674 -10.036835c-2.029358 -2.3871002 -4.7792053 -3.580658 -8.249512 -3.580658c-2.803894 0 -5.034363 0.78756714 -6.691498 2.3626862l0 -13.333588z" fill-rule="evenodd"/><path stroke="#000000" stroke-width="1.0" stroke-linejoin="round" stroke-linecap="butt" d="m543.0159 141.99118l4.9803467 16.03511l-10.293884 0l5.151428 -16.03511zm-8.852905 -6.3004913l0 4.5605316l3.4852905 0.33883667l-8.906921 26.21846c-0.33624268 0.9768219 -0.89160156 1.5018616 -1.6661377 1.575119l-1.8192139 0.1648407l0 4.5605316l12.779541 0l0 -4.780319l-3.3231812 -0.17399597l1.6660767 -4.9451447l12.941711 0l1.1617432 3.4890747c0.18615723 0.5983124 0.16815186 1.0104065 -0.054016113 1.2362823c-0.22216797 0.22589111 -0.6454468 0.37547302 -1.2698364 0.44873047l-2.1074219 0.1648407l0 4.5605316l14.283569 0l0 -4.780319l-3.1611328 -0.17399597l-0.054016113 0l-11.284607 -32.464005z" fill-rule="evenodd"/><path stroke="#000000" stroke-width="1.0" stroke-linejoin="round" stroke-linecap="butt" d="m578.4847 149.41808c3.7224731 0 5.58374 3.1319275 5.58374 9.395782c0 2.777832 -0.50738525 5.103882 -1.5220337 6.9781494c-1.008667 1.8742828 -2.5186768 2.8114166 -4.5300293 2.8114166c-2.0113525 0 -3.7194824 -0.46704102 -5.1244507 -1.401123l0 -12.939819c0 -1.3125916 0.543396 -2.4481506 1.630127 -3.406662c1.0927124 -0.9584961 2.4135742 -1.4377441 3.9626465 -1.4377441zm2.4315796 -5.4579926c-2.1373901 0 -3.9806519 0.47009277 -5.529663 1.4102936c-1.5490723 0.94018555 -2.6177979 1.9719543 -3.2061768 3.0952911l0 -3.6539154l-9.357239 0l0 4.5513763l2.3235474 0.17399597c0.5163574 0 0.8765869 0.12210083 1.0806885 0.3663025c0.2041626 0.24420166 0.30621338 0.68377686 0.30621338 1.3187103l0 27.234955c0 0.6715698 -0.12908936 1.1294556 -0.38726807 1.3736572c-0.25811768 0.24420166 -0.6633911 0.40293884 -1.2157593 0.4761963l-1.8282471 0.17399597l0 4.276642l14.274536 0l0 -4.450638l-4.4849854 -0.2197876l0 -7.7657166c1.7351685 1.0867157 3.7105103 1.6300659 5.9259644 1.6300659c3.7224731 0 6.670471 -1.3492279 8.843933 -4.047699c2.1794434 -2.7045593 3.269165 -6.5874176 3.269165 -11.648575c0 -9.53009 -3.3381958 -14.295151 -10.014709 -14.295151z" fill-rule="evenodd"/><path stroke="#000000" stroke-width="1.0" stroke-linejoin="round" stroke-linecap="butt" d="m609.9138 149.41808c3.7224731 0 5.58374 3.1319275 5.58374 9.395782c0 2.777832 -0.5073242 5.103882 -1.5220337 6.9781494c-1.008667 1.8742828 -2.5186768 2.8114166 -4.5300293 2.8114166c-2.0113525 0 -3.7194824 -0.46704102 -5.1244507 -1.401123l0 -12.939819c0 -1.3125916 0.543396 -2.4481506 1.630127 -3.406662c1.0927124 -0.9584961 2.4136353 -1.4377441 3.9626465 -1.4377441zm2.4316406 -5.4579926c-2.1374512 0 -3.980713 0.47009277 -5.529724 1.4102936c-1.5490112 0.94018555 -2.6177368 1.9719543 -3.2061157 3.0952911l0 -3.6539154l-9.3573 0l0 4.5513763l2.3235474 0.17399597c0.5163574 0 0.8765869 0.12210083 1.0807495 0.3663025c0.20410156 0.24420166 0.30621338 0.68377686 0.30621338 1.3187103l0 27.234955c0 0.6715698 -0.12908936 1.1294556 -0.38726807 1.3736572c-0.2581787 0.24420166 -0.66345215 0.40293884 -1.2158203 0.4761963l-1.8282471 0.17399597l0 4.276642l14.274597 0l0 -4.450638l-4.4850464 -0.2197876l0 -7.7657166c1.7351685 1.0867157 3.7105103 1.6300659 5.9260254 1.6300659c3.7224731 0 6.670471 -1.3492279 8.843872 -4.047699c2.1795044 -2.7045593 3.269226 -6.5874176 3.269226 -11.648575c0 -9.53009 -3.3382568 -14.295151 -10.014709 -14.295151z" fill-rule="evenodd"/><path stroke="#000000" stroke-width="1.0" stroke-linejoin="round" stroke-linecap="butt" d="m626.2939 132.98918l0 4.67041l1.9362793 0.11906433c0.91864014 0.07325745 1.3779297 0.5219879 1.3779297 1.3461761l0 27.738632c0 1.0867157 -0.5343628 1.6880646 -1.6030273 1.8040619l-1.8282471 0.1648407l0 4.276642l13.175842 0l0 -4.5055847l-3.1521606 -0.1648407l0 -35.4494z" fill-rule="evenodd"/><path stroke="#000000" stroke-width="1.0" stroke-linejoin="round" stroke-linecap="butt" d="m648.8622 132.7694c-1.2487793 0 -2.260498 0.40293884 -3.0350342 1.2088165c-0.7744751 0.8058777 -1.1617432 1.8101654 -1.1617432 3.0128784c0 1.1966095 0.38726807 2.179535 1.1617432 2.9487762c0.77453613 0.76924133 1.7862549 1.1538696 3.0350342 1.1538696c1.2548828 0 2.2785645 -0.3846283 3.071106 -1.1538696c0.79852295 -0.76924133 1.1977539 -1.7521667 1.1977539 -2.9487762c0 -1.202713 -0.39923096 -2.2070007 -1.1977539 -3.0128784c-0.7925415 -0.8058777 -1.8162231 -1.2088165 -3.071106 -1.2088165zm-5.9710083 12.042358l0 4.6704254l1.9363403 0.1098938c0.5163574 0 0.8765869 0.11294556 1.0806885 0.3388214c0.2041626 0.22589111 0.30621338 0.65631104 0.30621338 1.2912445l0 15.641327c0 1.0867157 -0.5343628 1.6880646 -1.6030884 1.8040619l-1.828186 0.1648407l0 4.276642l13.166809 0l0 -4.5055847l-3.1520996 -0.1648407l0 -23.626831z" fill-rule="evenodd"/><path stroke="#000000" stroke-width="1.0" stroke-linejoin="round" stroke-linecap="butt" d="m671.8602 143.96008c-3.2662354 0 -6.1991577 1.2485046 -8.79895 3.7454987c-2.5997314 2.496994 -3.8995972 6.2211304 -3.8995972 11.172379c0 4.951248 1.1317749 8.693695 3.3952637 11.227325c2.2695312 2.5275269 5.376648 3.791275 9.321289 3.791275c3.9506226 0 7.237854 -1.0867004 9.861572 -3.2601318l-2.3865967 -4.3315887c-2.173462 1.6117554 -4.376892 2.417633 -6.6104126 2.417633c-2.2335205 0 -3.9416504 -0.8821869 -5.1244507 -2.646576c-1.1767578 -1.7643738 -1.7651978 -4.2400055 -1.7651978 -7.42688c0 -6.4164886 2.2335205 -9.624725 6.7005005 -9.624725c0.77453613 0 1.519043 0.12210083 2.2335205 0.3663025c0.720459 0.24420166 1.0806885 0.8730316 1.0806885 1.8864899l0 2.7015076l5.08844 -0.3937683l0 -7.3170013c-2.7978516 -1.5384827 -5.829895 -2.3077393 -9.096069 -2.3077393z" fill-rule="evenodd"/><path stroke="#000000" stroke-width="1.0" stroke-linejoin="round" stroke-linecap="butt" d="m699.39 148.85945c1.807251 0 3.2271729 0.24420166 4.2598877 0.73262024l0 14.56987c0 1.2759705 -0.5163574 2.4115295 -1.5490723 3.406662c-1.0326538 0.99513245 -2.3625488 1.4927063 -3.989685 1.4927063c-3.8365479 0 -5.754822 -3.0403595 -5.754822 -9.121063c0 -3.3394928 0.55236816 -6.0196533 1.6571045 -8.040451c1.1107788 -2.026886 2.902954 -3.0403442 5.376587 -3.0403442zm0.82855225 -4.8993683c-4.8692627 0 -8.522705 1.4255524 -10.960327 4.276642c-2.4316406 2.8510895 -3.647461 6.828583 -3.647461 11.932465c0 4.2369537 0.9036255 7.576462 2.7108154 10.018509c1.807251 2.4359436 4.5930786 3.6539307 8.357605 3.6539307c3.2061768 0 5.730835 -1.3492432 7.5740967 -4.047699l0.17108154 0.0549469l0 3.2601318l8.79895 0l0 -4.5055847l-1.774231 -0.1098938c-0.5163574 -0.036636353 -0.8765869 -0.16789246 -1.0806885 -0.39378357c-0.2041626 -0.22587585 -0.30621338 -0.6379852 -0.30621338 -1.2362823l0 -20.934479c-3.4282837 -1.3125916 -6.7095337 -1.9689026 -9.843628 -1.9689026z" fill-rule="evenodd"/><path stroke="#000000" stroke-width="1.0" stroke-linejoin="round" stroke-linecap="butt" d="m722.7395 138.84094c-0.73846436 2.0269012 -1.552063 3.5959167 -2.4406128 4.7070465c-0.8826294 1.1050262 -2.1914673 1.7308044 -3.9266357 1.8773346l-0.54937744 4.111801l3.9266357 0l0 15.0186c0 1.1233368 0.018005371 1.9780579 0.054016113 2.564148c0.036010742 0.58000183 0.20117188 1.376709 0.49536133 2.3901672c0.3001709 1.013443 0.72650146 1.7826843 1.2788696 2.3077393c0.55236816 0.5250397 1.3989258 1.001236 2.5396729 1.4285889c1.1467896 0.43347168 2.548706 0.65019226 4.2058105 0.65019226c2.8399048 0 5.1845093 -0.6562958 7.0337524 -1.9689026l-1.6661377 -4.3315735c-1.2548828 0.7875519 -2.5006714 1.1813354 -3.7374878 1.1813354c-1.230835 0 -2.1434326 -0.32662964 -2.737854 -0.97987366c-0.5883789 -0.65934753 -0.88256836 -1.8132172 -0.88256836 -3.461609l0 -14.798813l6.8085327 0l0.54937744 -4.7253723l-7.35791 0l0 -5.97081z" fill-rule="evenodd"/><path stroke="#000000" stroke-width="1.0" stroke-linejoin="round" stroke-linecap="butt" d="m743.53705 132.7694c-1.2488403 0 -2.260498 0.40293884 -3.0350342 1.2088165c-0.77453613 0.8058777 -1.1618042 1.8101654 -1.1618042 3.0128784c0 1.1966095 0.38726807 2.179535 1.1618042 2.9487762c0.77453613 0.76924133 1.7861938 1.1538696 3.0350342 1.1538696c1.2548218 0 2.2785034 -0.3846283 3.071045 -1.1538696c0.79852295 -0.76924133 1.197815 -1.7521667 1.197815 -2.9487762c0 -1.202713 -0.399292 -2.2070007 -1.197815 -3.0128784c-0.7925415 -0.8058777 -1.8162231 -1.2088165 -3.071045 -1.2088165zm-5.9710083 12.042358l0 4.6704254l1.9362793 0.1098938c0.5163574 0 0.8765869 0.11294556 1.0807495 0.3388214c0.20410156 0.22589111 0.30621338 0.65631104 0.30621338 1.2912445l0 15.641327c0 1.0867157 -0.5343628 1.6880646 -1.6030884 1.8040619l-1.8282471 0.1648407l0 4.276642l13.16687 0l0 -4.5055847l-3.1521606 -0.1648407l0 -23.626831z" fill-rule="evenodd"/><path stroke="#000000" stroke-width="1.0" stroke-linejoin="round" stroke-linecap="butt" d="m766.6972 148.9144c2.1254272 0 3.6384277 0.86387634 4.5390015 2.591629c0.9066162 1.7216339 1.3599243 4.2522125 1.3599243 7.5917206c0 6.59964 -2.0113525 9.89946 -6.0340576 9.89946c-1.2548218 0 -2.305542 -0.29914856 -3.1520996 -0.89746094c-1.9212646 -1.3492279 -2.881897 -4.6673584 -2.881897 -9.954407c0 -2.8510895 0.49829102 -5.10083 1.4949951 -6.7492065c0.99664307 -1.6544952 2.5546875 -2.4817352 4.6741333 -2.4817352zm0.30621338 -4.954315c-3.170166 0 -6.0670776 1.0134583 -8.690857 3.0403595c-1.362915 1.0867157 -2.449646 2.6526794 -3.2601929 4.697891c-0.8105469 2.0452118 -1.2158203 4.4567413 -1.2158203 7.2345734c0 4.951248 1.086731 8.693695 3.2601929 11.227325c2.1795044 2.5275269 5.196472 3.791275 9.051086 3.791275c3.8545532 0 7.015686 -1.3309174 9.483337 -3.992752c2.4736938 -2.6618195 3.7105103 -6.581314 3.7105103 -11.758469c0 -2.4786835 -0.30621338 -4.6276855 -0.91864014 -6.447006c-0.6063843 -1.8193359 -1.341919 -3.205185 -2.206482 -4.157593c-0.864563 -0.9584961 -2.062378 -1.8040619 -3.5933838 -2.5366821c-1.5310059 -0.732605 -3.4042969 -1.0989227 -5.619751 -1.0989227z" fill-rule="evenodd"/><path stroke="#000000" stroke-width="1.0" stroke-linejoin="round" stroke-linecap="butt" d="m801.0375 143.96008c-1.8492432 0 -3.5664062 0.4059906 -5.151428 1.2179718c-1.585083 0.8058777 -2.8579102 1.9017487 -3.8186035 3.287613l0 -3.6539154l-9.348267 0l0 4.4964294l2.3236084 0.17399597c0.9246216 0.036621094 1.3869019 0.61660767 1.3869019 1.7399597l0 15.58638c0 0.6715698 -0.12908936 1.1294556 -0.38726807 1.3736572c-0.2581787 0.24420166 -0.6664429 0.4059906 -1.2247925 0.48535156l-1.8192139 0.1648407l0 4.276642l13.166809 0l0 -4.5055847l-3.1520996 -0.1648407l0 -13.617477c0 -1.5384979 0.5162964 -2.8694153 1.5490112 -3.992752c1.0327148 -1.1233368 2.4226074 -1.6850128 4.1698 -1.6850128c1.7531738 0 2.9419556 0.4975586 3.5664062 1.4927063c0.6304321 0.98902893 0.9456177 2.5153046 0.9456177 4.578842l0 11.593628c0 0.6715698 -0.12908936 1.1294556 -0.38726807 1.3736572c-0.2581787 0.24420166 -0.66345215 0.4059906 -1.2158203 0.48535156l-1.828186 0.1648407l0 4.276642l13.175781 0l0 -4.5055847l-3.1610718 -0.1648407l0 -14.688934c0 -3.2601318 -0.76556396 -5.7052307 -2.2965698 -7.3352966c-1.5310059 -1.6361847 -3.6954346 -2.4542694 -6.493347 -2.4542694z" fill-rule="evenodd"/><path stroke="#000000" stroke-width="1.0" stroke-linejoin="round" stroke-linecap="butt" d="m827.843 143.96008c-3.0800781 0 -5.6347656 0.7906189 -7.6641235 2.3718414c-2.029358 1.575119 -3.0440674 3.8157043 -3.0440674 6.7217407c0 2.9060516 0.93963623 4.9787292 2.8189087 6.2180786c0.9606323 0.5982971 1.8372192 1.0561829 2.6297607 1.3736572c0.7925415 0.3174591 1.5310059 0.57081604 2.2155151 0.76008606c0.68444824 0.18925476 1.3839111 0.37850952 2.0983887 0.5677643c0.720459 0.1831665 1.3389282 0.3693695 1.8552246 0.55862427c0.5163574 0.18925476 1.041687 0.546402 1.5760498 1.0714569c0.5343628 0.5250397 0.8015747 1.199646 0.8015747 2.0238495c0 2.2894135 -1.5490723 3.4341278 -4.647156 3.4341278c-3.0980835 0 -4.6470947 -0.82724 -4.6470947 -2.4817352l0 -2.7015228l-4.9803467 0.39378357l0 7.8206635c2.2875366 1.1660919 5.6828003 1.7491302 10.185852 1.7491302c3.0980835 0 5.652771 -0.7967224 7.6641235 -2.3901672c2.0113525 -1.5934296 3.0170288 -3.7973785 3.0170288 -6.611847c0 -2.179535 -0.6454468 -3.9622192 -1.9363403 -5.3480835c-0.48028564 -0.561676 -1.1917725 -1.0867157 -2.1343994 -1.5751343c-0.94262695 -0.48840332 -1.729187 -0.8333435 -2.359558 -1.0348053c-0.6244507 -0.20758057 -1.5820312 -0.48841858 -2.8729248 -0.84251404c-1.2908936 -0.36019897 -2.39563 -0.7845001 -3.31427 -1.2729187c-0.59436035 -0.3357849 -1.0296631 -0.73872375 -1.3058472 -1.2088165c-0.27618408 -0.47009277 -0.41430664 -1.1263885 -0.41430664 -1.9689026c0 -0.8424988 0.3782959 -1.5537567 1.1347656 -2.1337433c0.75653076 -0.5860901 1.762207 -0.87913513 3.0170288 -0.87913513c1.2548218 0 2.3235474 0.17094421 3.2061768 0.51283264c0.85253906 0.3357849 1.2788696 0.9707184 1.2788696 1.9048004l0 2.3626862l4.9802856 -0.39378357l0 -6.749222c-3.026001 -1.5018616 -6.0790405 -2.2527924 -9.159119 -2.2527924z" fill-rule="evenodd"/></g></svg>